<svg width="41" height="36" viewBox="0 0 41 36" fill="none" xmlns="http://www.w3.org/2000/svg">
<path d="M35.1811 5.00132L33.2276 14.8955C33.2236 14.9153 33.2251 14.9358 33.2318 14.9548C33.2384 14.9739 33.2501 14.9908 33.2655 15.0038C33.281 15.0168 33.2996 15.0254 33.3194 15.0288C33.3393 15.0321 33.3598 15.0301 33.3786 15.0228L35.4671 14.2357C35.4721 14.2647 35.4772 14.2947 35.4819 14.3226C35.9834 17.4827 35.6159 20.7197 34.4188 23.687C33.2216 26.6542 31.2399 29.2399 28.6859 31.1672C26.1318 33.0944 23.1016 34.2907 19.9197 34.6278C16.7379 34.9649 13.5243 34.4302 10.623 33.0808C13.6652 34.768 17.12 35.5667 20.5939 35.3859C24.0679 35.2051 27.4212 34.0523 30.2718 32.0585C33.1225 30.0648 35.3557 27.3105 36.7172 24.1093C38.0786 20.9082 38.5137 17.389 37.9724 13.9527L40.3778 14.148C40.3983 14.1496 40.4186 14.1456 40.437 14.1365C40.4553 14.1274 40.4707 14.1135 40.4818 14.0963C40.4929 14.0791 40.4989 14.0592 40.4996 14.0387C40.5001 14.0183 40.4952 13.9981 40.4852 13.9803L35.39 4.96711C35.3785 4.9471 35.3613 4.93106 35.3405 4.92115C35.3197 4.91124 35.2964 4.90792 35.2737 4.91164C35.2509 4.91536 35.2299 4.92596 35.2133 4.94198C35.1967 4.95802 35.1855 4.97873 35.1811 5.00132Z" fill="white"/>
<path d="M31.4506 25.6428C29.8727 27.6498 27.846 29.259 25.5337 30.3411C23.2213 31.4233 20.6874 31.9485 18.1355 31.8743C15.5834 31.8002 13.0843 31.129 10.8386 29.9144C8.59294 28.6998 6.6632 26.9757 5.20431 24.8805C3.74541 22.7854 2.79793 20.3773 2.43791 17.8497C2.0779 15.3221 2.31537 12.7453 3.13127 10.3261C3.94717 7.90692 5.31877 5.71263 7.13603 3.91934C8.95328 2.12606 11.1656 0.783703 13.5954 0C10.4644 0.769538 7.61259 2.40363 5.3655 4.71586C3.11839 7.0281 1.56643 9.92536 0.886646 13.0771C0.20686 16.2289 0.426625 19.5083 1.52087 22.5412C2.61513 25.5742 4.5398 28.2383 7.07533 30.2301C9.61086 32.2219 12.6551 33.4609 15.8609 33.8057C19.0667 34.1506 22.3048 33.5875 25.206 32.1806C28.1072 30.7737 30.5545 28.5798 32.2688 25.8491C33.983 23.1183 34.8953 19.9607 34.9015 16.7365C34.6712 19.9843 33.4687 23.0876 31.4506 25.6428Z" fill="white"/>
<path d="M27.8602 8.39731C26.854 9.67886 25.7097 10.8458 24.4481 11.877C24.4353 11.8875 24.4249 11.9007 24.4179 11.9156C24.4109 11.9306 24.4072 11.947 24.4072 11.9635V27.9732C24.4072 28.102 24.3662 28.2275 24.2903 28.3315C24.2143 28.4356 24.1073 28.5128 23.9847 28.552L23.9716 28.5562C23.8807 28.5854 23.7842 28.5926 23.69 28.5774C23.5957 28.5623 23.5063 28.5249 23.4293 28.4687C23.3522 28.4123 23.2894 28.3387 23.2462 28.2537C23.2029 28.1685 23.1804 28.0744 23.1804 27.9789V13.0529C23.1804 13.0324 23.1749 13.0123 23.1643 12.9947C23.1537 12.9771 23.1385 12.9628 23.1202 12.9533C23.1021 12.9438 23.0816 12.9395 23.0612 12.9408C23.0407 12.9421 23.0209 12.9491 23.0041 12.9608C21.3336 14.1111 19.5124 15.0254 17.5921 15.678C17.5699 15.6855 17.5506 15.6997 17.5369 15.7187C17.5233 15.7378 17.5159 15.7606 17.5159 15.784V28.7139C17.5159 28.8036 17.496 28.8924 17.4576 28.9734C17.4192 29.0546 17.3633 29.1262 17.294 29.1832C17.2246 29.2402 17.1435 29.281 17.0564 29.303C16.9694 29.3248 16.8786 29.3271 16.7905 29.3097L16.7667 29.305C16.6294 29.2778 16.5057 29.2037 16.417 29.0953C16.3283 28.987 16.2799 28.8513 16.2803 28.7112C16.2835 27.3191 16.2867 25.4447 16.289 25.4461V16.224C16.289 16.2067 16.285 16.1898 16.2774 16.1743C16.2698 16.1589 16.2587 16.1455 16.2451 16.135C16.2314 16.1245 16.2156 16.1174 16.1987 16.114C16.1818 16.1107 16.1644 16.1113 16.1478 16.1158L16.0923 16.1304C14.5257 16.5421 13.1395 17.4609 12.1503 18.7435C11.1611 20.0263 10.6245 21.6004 10.6244 23.2202V25.3438C10.6247 25.4623 10.5902 25.5786 10.5252 25.6777C10.4601 25.777 10.3675 25.855 10.2586 25.9021C10.1497 25.9491 10.0294 25.9633 9.91256 25.9427C9.79574 25.9223 9.68749 25.8679 9.60123 25.7864C7.19508 23.4738 5.66518 20.3985 5.27212 17.0844C4.87907 13.7703 5.6472 10.4225 7.44565 7.61121C9.2441 4.79993 11.9616 2.69917 15.1352 1.66679C18.3088 0.634398 21.7421 0.734266 24.8505 1.94938C22.4032 0.785973 19.6892 0.298597 16.99 0.537809C14.2908 0.77702 11.7048 1.7341 9.5002 3.30976C7.29565 4.88544 5.55287 7.02228 4.45263 9.49864C3.35241 11.975 2.93482 14.7006 3.2432 17.3928C3.55158 20.0849 4.5747 22.6455 6.20641 24.8089C7.83813 26.9724 10.019 28.6597 12.5227 29.6961C15.0265 30.7323 17.762 31.0799 20.4453 30.7026C23.1287 30.3253 25.6621 29.2367 27.783 27.55C28.5228 27.0395 29.213 26.4603 29.844 25.8201L29.9103 25.7492C30.0148 25.6371 30.0728 25.4895 30.0725 25.3362V5.58906C30.0725 5.58906 30.0725 5.51861 30.0725 5.42519C30.0726 5.40021 30.0644 5.37589 30.0493 5.35605C30.0341 5.33623 30.0128 5.322 29.9886 5.31564C29.9645 5.30929 29.9388 5.31115 29.9158 5.32093C29.8928 5.33071 29.8739 5.34785 29.8616 5.36967C29.2781 6.43177 28.6087 7.44435 27.8602 8.39731Z" fill="white"/>
</svg>
