<svg width="40" height="36" viewBox="0 0 40 36" fill="none" xmlns="http://www.w3.org/2000/svg">
<path d="M34.6811 5.00035L32.7276 14.8946C32.7236 14.9144 32.7251 14.9348 32.7318 14.9539C32.7384 14.9729 32.7501 14.9898 32.7655 15.0028C32.781 15.0158 32.7996 15.0245 32.8194 15.0278C32.8393 15.0312 32.8598 15.0291 32.8786 15.0219L34.9671 14.2347C34.9721 14.2637 34.9772 14.2938 34.9819 14.3216C35.4834 17.4818 35.1159 20.7187 33.9188 23.686C32.7216 26.6532 30.7399 29.2389 28.1859 31.1663C25.6318 33.0934 22.6016 34.2897 19.4197 34.6268C16.2379 34.9639 13.0243 34.4292 10.123 33.0799C13.1652 34.767 16.62 35.5657 20.0939 35.3849C23.5679 35.2041 26.9212 34.0513 29.7718 32.0576C32.6225 30.0638 34.8557 27.3096 36.2172 24.1083C37.5786 20.9072 38.0137 17.388 37.4724 13.9518L39.8778 14.147C39.8983 14.1486 39.9186 14.1447 39.937 14.1355C39.9553 14.1265 39.9707 14.1126 39.9818 14.0953C39.9929 14.0781 39.9989 14.0582 39.9996 14.0378C40.0001 14.0173 39.9952 13.9971 39.9852 13.9793L34.89 4.96613C34.8785 4.94612 34.8613 4.93009 34.8405 4.92017C34.8197 4.91026 34.7964 4.90694 34.7737 4.91066C34.7509 4.91439 34.7299 4.92499 34.7133 4.94101C34.6967 4.95704 34.6855 4.97776 34.6811 5.00035Z" fill="#9D82C4"/>
<path d="M30.9506 25.6428C29.3727 27.6498 27.346 29.259 25.0337 30.3411C22.7213 31.4233 20.1874 31.9485 17.6355 31.8743C15.0834 31.8002 12.5843 31.129 10.3386 29.9144C8.09294 28.6998 6.1632 26.9757 4.70431 24.8805C3.24541 22.7854 2.29793 20.3773 1.93791 17.8497C1.5779 15.3221 1.81537 12.7453 2.63127 10.3261C3.44717 7.90692 4.81877 5.71263 6.63603 3.91934C8.45328 2.12606 10.6656 0.783703 13.0954 0C9.96435 0.769538 7.11259 2.40363 4.8655 4.71586C2.61839 7.0281 1.06643 9.92536 0.386646 13.0771C-0.29314 16.2289 -0.0733747 19.5083 1.02087 22.5412C2.11513 25.5742 4.0398 28.2383 6.57533 30.2301C9.11086 32.2219 12.1551 33.4609 15.3609 33.8057C18.5667 34.1506 21.8048 33.5875 24.706 32.1806C27.6072 30.7737 30.0545 28.5798 31.7688 25.8491C33.483 23.1183 34.3953 19.9607 34.4015 16.7365C34.1712 19.9843 32.9687 23.0876 30.9506 25.6428Z" fill="#9D82C4"/>
<path d="M27.3602 8.39633C26.354 9.67789 25.2097 10.8448 23.9481 11.876C23.9353 11.8865 23.9249 11.8997 23.9179 11.9147C23.9109 11.9296 23.9072 11.946 23.9072 11.9625V27.9722C23.9072 28.1011 23.8662 28.2265 23.7903 28.3305C23.7143 28.4347 23.6073 28.5118 23.4847 28.5511L23.4716 28.5553C23.3807 28.5844 23.2842 28.5917 23.19 28.5764C23.0957 28.5613 23.0063 28.5239 22.9293 28.4677C22.8522 28.4114 22.7894 28.3377 22.7462 28.2527C22.7029 28.1675 22.6804 28.0734 22.6804 27.9779V13.0519C22.6804 13.0314 22.6749 13.0113 22.6643 12.9937C22.6537 12.9761 22.6385 12.9618 22.6202 12.9523C22.6021 12.9428 22.5816 12.9385 22.5612 12.9398C22.5407 12.9412 22.5209 12.9481 22.5041 12.9599C20.8336 14.1101 19.0124 15.0244 17.0921 15.677C17.0699 15.6845 17.0506 15.6987 17.0369 15.7178C17.0233 15.7368 17.0159 15.7596 17.0159 15.783V28.7129C17.0159 28.8027 16.996 28.8914 16.9576 28.9724C16.9192 29.0536 16.8633 29.1252 16.794 29.1822C16.7246 29.2393 16.6435 29.28 16.5564 29.302C16.4694 29.3238 16.3786 29.3261 16.2905 29.3087L16.2667 29.304C16.1294 29.2768 16.0057 29.2027 15.917 29.0943C15.8283 28.986 15.7799 28.8503 15.7803 28.7102C15.7835 27.3181 15.7867 25.4438 15.789 25.4451V16.223C15.789 16.2058 15.785 16.1888 15.7774 16.1734C15.7698 16.158 15.7587 16.1445 15.7451 16.134C15.7314 16.1236 15.7156 16.1164 15.6987 16.1131C15.6818 16.1097 15.6644 16.1103 15.6478 16.1148L15.5923 16.1294C14.0257 16.5411 12.6395 17.46 11.6503 18.7426C10.6611 20.0253 10.1245 21.5995 10.1244 23.2192V25.3428C10.1247 25.4614 10.0902 25.5776 10.0252 25.6767C9.96014 25.776 9.86745 25.854 9.75858 25.9012C9.64969 25.9481 9.5294 25.9624 9.41256 25.9417C9.29574 25.9213 9.18749 25.8669 9.10123 25.7854C6.69508 23.4728 5.16518 20.3975 4.77212 17.0834C4.37907 13.7694 5.1472 10.4215 6.94565 7.61023C8.7441 4.79896 11.4616 2.69819 14.6352 1.66581C17.8088 0.633422 21.2421 0.73329 24.3505 1.9484C21.9032 0.784997 19.1892 0.297621 16.49 0.536833C13.7908 0.776043 11.2048 1.73313 9.0002 3.30879C6.79565 4.88447 5.05287 7.02131 3.95263 9.49766C2.85241 11.974 2.43482 14.6996 2.7432 17.3919C3.05158 20.0839 4.0747 22.6446 5.70641 24.8079C7.33813 26.9714 9.51898 28.6588 12.0227 29.6951C14.5265 30.7314 17.262 31.0789 19.9453 30.7017C22.6287 30.3243 25.1621 29.2357 27.283 27.5491C28.0228 27.0385 28.713 26.4593 29.344 25.8191L29.4103 25.7482C29.5148 25.6361 29.5728 25.4885 29.5725 25.3352V5.58808C29.5725 5.58808 29.5725 5.51763 29.5725 5.42421C29.5726 5.39924 29.5644 5.37492 29.5493 5.35507C29.5341 5.33525 29.5128 5.32102 29.4886 5.31467C29.4645 5.30831 29.4388 5.31017 29.4158 5.31995C29.3928 5.32973 29.3739 5.34687 29.3616 5.36869C28.7781 6.43079 28.1087 7.44338 27.3602 8.39633Z" fill="#9D82C4"/>
</svg>
