<svg width="102" height="102" viewBox="0 0 102 102" fill="none" xmlns="http://www.w3.org/2000/svg">
    <circle cx="51" cy="51" r="49.7067" fill="#F7F6FC" stroke="#9D82C4" stroke-width="1.41346"/>
    <mask id="mask0_415_9625" style="mask-type:alpha" maskUnits="userSpaceOnUse" x="2" y="2" width="98" height="98">
    <circle cx="51" cy="51" r="48.5288" fill="#F7F6FC" stroke="#9D82C4" stroke-width="0.942308"/>
    </mask>
    <g mask="url(#mask0_415_9625)">
    <rect x="14.7212" y="34.0386" width="72.5577" height="80.0962" rx="7.53846" fill="white" stroke="#E7E7E7" stroke-width="0.942308"/>
    </g>
    <circle cx="34.0387" cy="23.673" r="4.47596" fill="#FDFCFE" stroke="#71579F" stroke-width="0.471154"/>
    <circle cx="51.4713" cy="23.673" r="4.71154" fill="#876CB1"/>
    <circle cx="68.9039" cy="23.673" r="4.47596" fill="#FDFCFE" stroke="#71579F" stroke-width="0.471154"/>
    <rect x="21.3174" y="40.6348" width="31.5673" height="4.71154" rx="0.942308" fill="#ECDAFE"/>
    <rect x="21.3174" y="65.1348" width="31.5673" height="4.71154" rx="0.942308" fill="#ECDAFE"/>
    <rect x="21.3174" y="71.731" width="59.8365" height="8.48077" rx="1.41346" fill="#ECDAFE"/>
    <rect x="20.8174" y="47.6733" width="60.8365" height="15.1346" rx="1.91346" stroke="#9D82C4"/>
    <path d="M63.1245 55.25C62.0964 55.25 61.2495 56.0969 61.2495 57.125V64.5081L60.8395 64.0781L60.6833 63.9413C60.3356 63.5952 59.8651 63.4009 59.3745 63.4009C58.884 63.4009 58.4134 63.5952 58.0658 63.9413C57.7197 64.2889 57.5254 64.7595 57.5254 65.25C57.5254 65.7405 57.7197 66.2111 58.0658 66.5588V66.5781L63.1833 71.6369L63.222 71.6562L63.2414 71.6956C64.1408 72.3774 65.2378 72.7475 66.3664 72.75H67.4414C68.1138 72.7514 68.7799 72.62 69.4014 72.3633C70.0228 72.1066 70.5875 71.7297 71.0629 71.2542C71.5384 70.7787 71.9152 70.214 72.1718 69.5925C72.4284 68.971 72.5598 68.3049 72.5583 67.6325V62.75C72.5583 61.7219 71.7108 60.875 70.6833 60.875C70.417 60.875 70.1708 60.9481 69.9408 61.0506C69.7358 60.2381 68.9964 59.625 68.1245 59.625C67.6458 59.625 67.2064 59.8125 66.8745 60.1131C66.5329 59.801 66.0873 59.627 65.6245 59.625C65.411 59.6277 65.1995 59.6674 64.9995 59.7425V57.125C64.9995 56.0969 64.1527 55.25 63.1245 55.25ZM63.1245 56.5C63.4714 56.5 63.7495 56.7781 63.7495 57.125V64H64.9995V61.5C64.9995 61.1531 65.2777 60.875 65.6245 60.875C65.9714 60.875 66.2495 61.1531 66.2495 61.5V64H67.4995V61.5C67.4995 61.1531 67.7777 60.875 68.1245 60.875C68.4714 60.875 68.7495 61.1531 68.7495 61.5V64H70.0583V62.75C70.0583 62.4031 70.3364 62.125 70.6833 62.125C71.0295 62.125 71.3083 62.4031 71.3083 62.75V67.6331C71.3083 69.7981 69.6064 71.5 67.4408 71.5H66.367C65.4514 71.5 64.6602 71.1731 64.0033 70.6794L58.9445 65.6794C58.6664 65.4013 58.6664 65.0981 58.9445 64.82C59.2233 64.5419 59.5258 64.5419 59.8039 64.82L62.4995 67.5156V57.125C62.4995 56.7781 62.7777 56.5 63.1245 56.5Z" fill="#876CB1"/>
    <path d="M63.1245 56.5C63.4714 56.5 63.7495 56.7781 63.7495 57.125V64H64.9995V61.5C64.9995 61.1531 65.2777 60.875 65.6245 60.875C65.9714 60.875 66.2495 61.1531 66.2495 61.5V64H67.4995V61.5C67.4995 61.1531 67.7777 60.875 68.1245 60.875C68.4714 60.875 68.7495 61.1531 68.7495 61.5V64H70.0583V62.75C70.0583 62.4031 70.3364 62.125 70.6833 62.125C71.0295 62.125 71.3083 62.4031 71.3083 62.75V67.6331C71.3083 69.7981 69.6064 71.5 67.4408 71.5H66.367C65.4514 71.5 64.6602 71.1731 64.0033 70.6794L58.9445 65.6794C58.6664 65.4013 58.6664 65.0981 58.9445 64.82C59.2233 64.5419 59.5258 64.5419 59.8039 64.82L62.4995 67.5156V57.125C62.4995 56.7781 62.7777 56.5 63.1245 56.5Z" fill="#876CB1"/>
    </svg>
    