<svg width="210" height="36" viewBox="0 0 210 36" fill="none" xmlns="http://www.w3.org/2000/svg">
    <path d="M34.6811 5.00035L32.7276 14.8946C32.7236 14.9144 32.7251 14.9348 32.7318 14.9539C32.7384 14.9729 32.7501 14.9898 32.7655 15.0028C32.781 15.0158 32.7996 15.0245 32.8194 15.0278C32.8393 15.0312 32.8598 15.0291 32.8786 15.0219L34.9671 14.2347C34.9721 14.2637 34.9772 14.2938 34.9819 14.3216C35.4834 17.4818 35.1159 20.7187 33.9188 23.686C32.7216 26.6532 30.7399 29.2389 28.1859 31.1663C25.6318 33.0934 22.6016 34.2897 19.4197 34.6268C16.2379 34.9639 13.0243 34.4292 10.123 33.0799C13.1652 34.767 16.62 35.5657 20.0939 35.3849C23.5679 35.2041 26.9212 34.0513 29.7718 32.0576C32.6225 30.0638 34.8557 27.3096 36.2172 24.1083C37.5786 20.9072 38.0137 17.388 37.4724 13.9518L39.8778 14.147C39.8983 14.1486 39.9186 14.1447 39.937 14.1355C39.9553 14.1265 39.9707 14.1126 39.9818 14.0953C39.9929 14.0781 39.9989 14.0582 39.9996 14.0378C40.0001 14.0173 39.9952 13.9971 39.9852 13.9793L34.89 4.96613C34.8785 4.94612 34.8613 4.93009 34.8405 4.92017C34.8197 4.91026 34.7964 4.90694 34.7737 4.91066C34.7509 4.91439 34.7299 4.92499 34.7133 4.94101C34.6967 4.95704 34.6855 4.97776 34.6811 5.00035Z" fill="#9D82C4"/>
    <path d="M30.9506 25.6428C29.3727 27.6498 27.346 29.259 25.0337 30.3411C22.7213 31.4233 20.1874 31.9485 17.6355 31.8743C15.0834 31.8002 12.5843 31.129 10.3386 29.9144C8.09294 28.6998 6.1632 26.9757 4.70431 24.8805C3.24541 22.7854 2.29793 20.3773 1.93791 17.8497C1.5779 15.3221 1.81537 12.7453 2.63127 10.3261C3.44717 7.90692 4.81877 5.71263 6.63603 3.91934C8.45328 2.12606 10.6656 0.783703 13.0954 0C9.96435 0.769538 7.11259 2.40363 4.8655 4.71586C2.61839 7.0281 1.06643 9.92536 0.386646 13.0771C-0.29314 16.2289 -0.0733747 19.5083 1.02087 22.5412C2.11513 25.5742 4.0398 28.2383 6.57533 30.2301C9.11086 32.2219 12.1551 33.4609 15.3609 33.8057C18.5667 34.1506 21.8048 33.5875 24.706 32.1806C27.6072 30.7737 30.0545 28.5798 31.7688 25.8491C33.483 23.1183 34.3953 19.9607 34.4015 16.7365C34.1712 19.9843 32.9687 23.0876 30.9506 25.6428Z" fill="#9D82C4"/>
    <path d="M27.3602 8.39633C26.354 9.67789 25.2097 10.8448 23.9481 11.876C23.9353 11.8865 23.9249 11.8997 23.9179 11.9147C23.9109 11.9296 23.9072 11.946 23.9072 11.9625V27.9722C23.9072 28.1011 23.8662 28.2265 23.7903 28.3305C23.7143 28.4347 23.6073 28.5118 23.4847 28.5511L23.4716 28.5553C23.3807 28.5844 23.2842 28.5917 23.19 28.5764C23.0957 28.5613 23.0063 28.5239 22.9293 28.4677C22.8522 28.4114 22.7894 28.3377 22.7462 28.2527C22.7029 28.1675 22.6804 28.0734 22.6804 27.9779V13.0519C22.6804 13.0314 22.6749 13.0113 22.6643 12.9937C22.6537 12.9761 22.6385 12.9618 22.6202 12.9523C22.6021 12.9428 22.5816 12.9385 22.5612 12.9398C22.5407 12.9412 22.5209 12.9481 22.5041 12.9599C20.8336 14.1101 19.0124 15.0244 17.0921 15.677C17.0699 15.6845 17.0506 15.6987 17.0369 15.7178C17.0233 15.7368 17.0159 15.7596 17.0159 15.783V28.7129C17.0159 28.8027 16.996 28.8914 16.9576 28.9724C16.9192 29.0536 16.8633 29.1252 16.794 29.1822C16.7246 29.2393 16.6435 29.28 16.5564 29.302C16.4694 29.3238 16.3786 29.3261 16.2905 29.3087L16.2667 29.304C16.1294 29.2768 16.0057 29.2027 15.917 29.0943C15.8283 28.986 15.7799 28.8503 15.7803 28.7102C15.7835 27.3181 15.7867 25.4438 15.789 25.4451V16.223C15.789 16.2058 15.785 16.1888 15.7774 16.1734C15.7698 16.158 15.7587 16.1445 15.7451 16.134C15.7314 16.1236 15.7156 16.1164 15.6987 16.1131C15.6818 16.1097 15.6644 16.1103 15.6478 16.1148L15.5923 16.1294C14.0257 16.5411 12.6395 17.46 11.6503 18.7426C10.6611 20.0253 10.1245 21.5995 10.1244 23.2192V25.3428C10.1247 25.4614 10.0902 25.5776 10.0252 25.6767C9.96014 25.776 9.86745 25.854 9.75858 25.9012C9.64969 25.9481 9.5294 25.9624 9.41256 25.9417C9.29574 25.9213 9.18749 25.8669 9.10123 25.7854C6.69508 23.4728 5.16518 20.3975 4.77212 17.0834C4.37907 13.7694 5.1472 10.4215 6.94565 7.61023C8.7441 4.79896 11.4616 2.69819 14.6352 1.66581C17.8088 0.633422 21.2421 0.73329 24.3505 1.9484C21.9032 0.784997 19.1892 0.297621 16.49 0.536833C13.7908 0.776043 11.2048 1.73313 9.0002 3.30879C6.79565 4.88447 5.05287 7.02131 3.95263 9.49766C2.85241 11.974 2.43482 14.6996 2.7432 17.3919C3.05158 20.0839 4.0747 22.6446 5.70641 24.8079C7.33813 26.9714 9.51898 28.6588 12.0227 29.6951C14.5265 30.7314 17.262 31.0789 19.9453 30.7017C22.6287 30.3243 25.1621 29.2357 27.283 27.5491C28.0228 27.0385 28.713 26.4593 29.344 25.8191L29.4103 25.7482C29.5148 25.6361 29.5728 25.4885 29.5725 25.3352V5.58808C29.5725 5.58808 29.5725 5.51763 29.5725 5.42421C29.5726 5.39924 29.5644 5.37492 29.5493 5.35507C29.5341 5.33525 29.5128 5.32102 29.4886 5.31467C29.4645 5.30831 29.4388 5.31017 29.4158 5.31995C29.3928 5.32973 29.3739 5.34687 29.3616 5.36869C28.7781 6.43079 28.1087 7.44338 27.3602 8.39633Z" fill="#9D82C4"/>
    <path d="M50.741 13.2051V4.10508H55.122C55.9713 4.10508 56.7037 4.24374 57.319 4.52108C57.943 4.79841 58.424 5.19708 58.762 5.71708C59.1 6.22841 59.269 6.83508 59.269 7.53708C59.269 8.23908 59.1 8.84574 58.762 9.35708C58.424 9.86841 57.943 10.2671 57.319 10.5531C56.7037 10.8304 55.9713 10.9691 55.122 10.9691H52.444L53.809 9.65608V13.2051H50.741ZM53.809 9.99408L52.444 8.60308H54.927C55.3517 8.60308 55.6637 8.50774 55.863 8.31708C56.071 8.12641 56.175 7.86641 56.175 7.53708C56.175 7.20774 56.071 6.94774 55.863 6.75708C55.6637 6.56641 55.3517 6.47108 54.927 6.47108H52.444L53.809 5.08008V9.99408ZM66.5032 13.4131C65.1079 13.4131 64.0202 13.0361 63.2402 12.2821C62.4602 11.5281 62.0702 10.4707 62.0702 9.11008V4.10508H65.1382V9.01908C65.1382 9.71241 65.2639 10.2064 65.5152 10.5011C65.7666 10.7871 66.1046 10.9301 66.5292 10.9301C66.9626 10.9301 67.3006 10.7871 67.5432 10.5011C67.7946 10.2064 67.9202 9.71241 67.9202 9.01908V4.10508H70.9362V9.11008C70.9362 10.4707 70.5462 11.5281 69.7662 12.2821C68.9862 13.0361 67.8986 13.4131 66.5032 13.4131ZM74.3426 13.2051V4.10508H78.7236C79.5729 4.10508 80.3052 4.24374 80.9206 4.52108C81.5446 4.79841 82.0256 5.19708 82.3636 5.71708C82.7016 6.22841 82.8706 6.83508 82.8706 7.53708C82.8706 8.23908 82.7016 8.84574 82.3636 9.35708C82.0256 9.85974 81.5446 10.2454 80.9206 10.5141C80.3052 10.7827 79.5729 10.9171 78.7236 10.9171H76.0456L77.4106 9.65608V13.2051H74.3426ZM79.7896 13.2051L77.5536 9.89008H80.8036L83.0656 13.2051H79.7896ZM77.4106 9.99408L76.0456 8.60308H78.5286C78.9532 8.60308 79.2652 8.50774 79.4646 8.31708C79.6726 8.12641 79.7766 7.86641 79.7766 7.53708C79.7766 7.20774 79.6726 6.94774 79.4646 6.75708C79.2652 6.56641 78.9532 6.47108 78.5286 6.47108H76.0456L77.4106 5.08008V9.99408ZM90.7351 13.4131C90.0071 13.4131 89.3311 13.3004 88.7071 13.0751C88.0918 12.8411 87.5544 12.5117 87.0951 12.0871C86.6444 11.6624 86.2934 11.1597 86.0421 10.5791C85.7908 9.99841 85.6651 9.35708 85.6651 8.65508C85.6651 7.95308 85.7908 7.31174 86.0421 6.73108C86.2934 6.15041 86.6444 5.64774 87.0951 5.22308C87.5544 4.79841 88.0918 4.47341 88.7071 4.24808C89.3311 4.01408 90.0071 3.89708 90.7351 3.89708C91.6278 3.89708 92.4164 4.05308 93.1011 4.36508C93.7944 4.67708 94.3664 5.12774 94.8171 5.71708L92.8801 7.44608C92.6114 7.10808 92.3124 6.84808 91.9831 6.66608C91.6624 6.47541 91.2984 6.38008 90.8911 6.38008C90.5704 6.38008 90.2801 6.43208 90.0201 6.53608C89.7601 6.64008 89.5348 6.79174 89.3441 6.99108C89.1621 7.19041 89.0191 7.43308 88.9151 7.71908C88.8111 7.99641 88.7591 8.30841 88.7591 8.65508C88.7591 9.00174 88.8111 9.31808 88.9151 9.60408C89.0191 9.88141 89.1621 10.1197 89.3441 10.3191C89.5348 10.5184 89.7601 10.6701 90.0201 10.7741C90.2801 10.8781 90.5704 10.9301 90.8911 10.9301C91.2984 10.9301 91.6624 10.8391 91.9831 10.6571C92.3124 10.4664 92.6114 10.2021 92.8801 9.86408L94.8171 11.5931C94.3664 12.1737 93.7944 12.6244 93.1011 12.9451C92.4164 13.2571 91.6278 13.4131 90.7351 13.4131ZM103.605 4.10508H106.673V13.2051H103.605V4.10508ZM100.771 13.2051H97.7029V4.10508H100.771V13.2051ZM103.813 9.85108H100.563V7.32908H103.813V9.85108ZM109.163 13.2051L113.141 4.10508H116.157L120.135 13.2051H116.963L114.025 5.56108H115.221L112.283 13.2051H109.163ZM111.529 11.6191L112.309 9.40908H116.495L117.275 11.6191H111.529ZM126.018 13.4131C125.255 13.4131 124.518 13.3264 123.808 13.1531C123.097 12.9797 122.512 12.7544 122.053 12.4771L123.041 10.2411C123.474 10.4924 123.955 10.6961 124.484 10.8521C125.021 10.9994 125.541 11.0731 126.044 11.0731C126.338 11.0731 126.568 11.0557 126.733 11.0211C126.906 10.9777 127.032 10.9214 127.11 10.8521C127.188 10.7741 127.227 10.6831 127.227 10.5791C127.227 10.4144 127.136 10.2844 126.954 10.1891C126.772 10.0937 126.529 10.0157 126.226 9.95508C125.931 9.88574 125.606 9.81641 125.251 9.74708C124.895 9.66908 124.536 9.56941 124.172 9.44808C123.816 9.32674 123.487 9.16641 123.184 8.96708C122.889 8.76774 122.651 8.50774 122.469 8.18708C122.287 7.85774 122.196 7.45041 122.196 6.96508C122.196 6.40174 122.352 5.89041 122.664 5.43108C122.984 4.96308 123.457 4.59041 124.081 4.31308C124.713 4.03574 125.498 3.89708 126.434 3.89708C127.049 3.89708 127.656 3.96208 128.254 4.09208C128.852 4.22208 129.389 4.42141 129.866 4.69008L128.943 6.91308C128.492 6.68774 128.054 6.51874 127.63 6.40608C127.214 6.29341 126.806 6.23708 126.408 6.23708C126.113 6.23708 125.879 6.26308 125.706 6.31508C125.532 6.36708 125.407 6.43641 125.329 6.52308C125.259 6.60974 125.225 6.70508 125.225 6.80908C125.225 6.96508 125.316 7.09074 125.498 7.18608C125.68 7.27274 125.918 7.34641 126.213 7.40708C126.516 7.46774 126.845 7.53274 127.201 7.60208C127.565 7.67141 127.924 7.76674 128.28 7.88808C128.635 8.00941 128.96 8.16974 129.255 8.36908C129.558 8.56841 129.801 8.82841 129.983 9.14908C130.165 9.46974 130.256 9.86841 130.256 10.3451C130.256 10.8997 130.095 11.4111 129.775 11.8791C129.463 12.3384 128.995 12.7111 128.371 12.9971C127.747 13.2744 126.962 13.4131 126.018 13.4131ZM133.169 13.2051V4.10508H136.237V13.2051H133.169ZM139.714 13.2051V4.10508H142.236L146.864 9.64308H145.694V4.10508H148.684V13.2051H146.162L141.534 7.66708H142.704V13.2051H139.714ZM156.881 13.4131C156.144 13.4131 155.464 13.3004 154.84 13.0751C154.225 12.8411 153.687 12.5117 153.228 12.0871C152.777 11.6624 152.426 11.1597 152.175 10.5791C151.924 9.99841 151.798 9.35708 151.798 8.65508C151.798 7.95308 151.924 7.31174 152.175 6.73108C152.426 6.15041 152.782 5.64774 153.241 5.22308C153.7 4.79841 154.242 4.47341 154.866 4.24808C155.499 4.01408 156.192 3.89708 156.946 3.89708C157.847 3.89708 158.649 4.04874 159.351 4.35208C160.062 4.65541 160.647 5.08874 161.106 5.65208L159.143 7.38108C158.857 7.05174 158.545 6.80474 158.207 6.64008C157.878 6.46674 157.509 6.38008 157.102 6.38008C156.764 6.38008 156.456 6.43208 156.179 6.53608C155.91 6.64008 155.681 6.79174 155.49 6.99108C155.299 7.19041 155.152 7.42874 155.048 7.70608C154.944 7.98341 154.892 8.29974 154.892 8.65508C154.892 8.99308 154.944 9.30508 155.048 9.59108C155.152 9.86841 155.299 10.1067 155.49 10.3061C155.681 10.5054 155.906 10.6614 156.166 10.7741C156.435 10.8781 156.734 10.9301 157.063 10.9301C157.41 10.9301 157.748 10.8737 158.077 10.7611C158.406 10.6397 158.757 10.4361 159.13 10.1501L160.846 12.2561C160.291 12.6287 159.659 12.9147 158.948 13.1141C158.237 13.3134 157.548 13.4131 156.881 13.4131ZM158.181 11.8661V8.40808H160.846V12.2561L158.181 11.8661ZM54.134 31.4131C53.3713 31.4131 52.6347 31.3264 51.924 31.1531C51.2133 30.9797 50.6283 30.7544 50.169 30.4771L51.157 28.2411C51.5903 28.4924 52.0713 28.6961 52.6 28.8521C53.1373 28.9994 53.6573 29.0731 54.16 29.0731C54.4547 29.0731 54.6843 29.0557 54.849 29.0211C55.0223 28.9777 55.148 28.9214 55.226 28.8521C55.304 28.7741 55.343 28.6831 55.343 28.5791C55.343 28.4144 55.252 28.2844 55.07 28.1891C54.888 28.0937 54.6453 28.0157 54.342 27.9551C54.0473 27.8857 53.7223 27.8164 53.367 27.7471C53.0117 27.6691 52.652 27.5694 52.288 27.4481C51.9327 27.3267 51.6033 27.1664 51.3 26.9671C51.0053 26.7677 50.767 26.5077 50.585 26.1871C50.403 25.8577 50.312 25.4504 50.312 24.9651C50.312 24.4017 50.468 23.8904 50.78 23.4311C51.1007 22.9631 51.573 22.5904 52.197 22.3131C52.8297 22.0357 53.614 21.8971 54.55 21.8971C55.1653 21.8971 55.772 21.9621 56.37 22.0921C56.968 22.2221 57.5053 22.4214 57.982 22.6901L57.059 24.9131C56.6083 24.6877 56.1707 24.5187 55.746 24.4061C55.33 24.2934 54.9227 24.2371 54.524 24.2371C54.2293 24.2371 53.9953 24.2631 53.822 24.3151C53.6487 24.3671 53.523 24.4364 53.445 24.5231C53.3757 24.6097 53.341 24.7051 53.341 24.8091C53.341 24.9651 53.432 25.0907 53.614 25.1861C53.796 25.2727 54.0343 25.3464 54.329 25.4071C54.6323 25.4677 54.9617 25.5327 55.317 25.6021C55.681 25.6714 56.0407 25.7667 56.396 25.8881C56.7513 26.0094 57.0763 26.1697 57.371 26.3691C57.6743 26.5684 57.917 26.8284 58.099 27.1491C58.281 27.4697 58.372 27.8684 58.372 28.3451C58.372 28.8997 58.2117 29.4111 57.891 29.8791C57.579 30.3384 57.111 30.7111 56.487 30.9971C55.863 31.2744 55.0787 31.4131 54.134 31.4131ZM66.0559 31.4131C65.3193 31.4131 64.6346 31.2961 64.0019 31.0621C63.3779 30.8281 62.8363 30.4987 62.3769 30.0741C61.9176 29.6407 61.5579 29.1337 61.2979 28.5531C61.0466 27.9724 60.9209 27.3397 60.9209 26.6551C60.9209 25.9617 61.0466 25.3291 61.2979 24.7571C61.5579 24.1764 61.9176 23.6737 62.3769 23.2491C62.8363 22.8157 63.3779 22.4821 64.0019 22.2481C64.6346 22.0141 65.3193 21.8971 66.0559 21.8971C66.8013 21.8971 67.4859 22.0141 68.1099 22.2481C68.7339 22.4821 69.2756 22.8157 69.7349 23.2491C70.1943 23.6737 70.5496 24.1764 70.8009 24.7571C71.0609 25.3291 71.1909 25.9617 71.1909 26.6551C71.1909 27.3397 71.0609 27.9724 70.8009 28.5531C70.5496 29.1337 70.1943 29.6407 69.7349 30.0741C69.2756 30.4987 68.7339 30.8281 68.1099 31.0621C67.4859 31.2961 66.8013 31.4131 66.0559 31.4131ZM66.0559 28.9301C66.3419 28.9301 66.6063 28.8781 66.8489 28.7741C67.1003 28.6701 67.3169 28.5227 67.4989 28.3321C67.6896 28.1327 67.8369 27.8944 67.9409 27.6171C68.0449 27.3311 68.0969 27.0104 68.0969 26.6551C68.0969 26.2997 68.0449 25.9834 67.9409 25.7061C67.8369 25.4201 67.6896 25.1817 67.4989 24.9911C67.3169 24.7917 67.1003 24.6401 66.8489 24.5361C66.6063 24.4321 66.3419 24.3801 66.0559 24.3801C65.7699 24.3801 65.5013 24.4321 65.2499 24.5361C65.0073 24.6401 64.7906 24.7917 64.5999 24.9911C64.4179 25.1817 64.2749 25.4201 64.1709 25.7061C64.0669 25.9834 64.0149 26.2997 64.0149 26.6551C64.0149 27.0104 64.0669 27.3311 64.1709 27.6171C64.2749 27.8944 64.4179 28.1327 64.5999 28.3321C64.7906 28.5227 65.0073 28.6701 65.2499 28.7741C65.5013 28.8781 65.7699 28.9301 66.0559 28.9301ZM77.1645 25.9791H81.1685V28.2931H77.1645V25.9791ZM77.3725 31.2051H74.3045V22.1051H81.7015V24.4191H77.3725V31.2051ZM86.7102 31.2051V24.4841H84.0452V22.1051H92.4432V24.4841H89.7782V31.2051H86.7102ZM97.2871 31.2051L94.3751 22.1051H97.5341L99.8871 29.7881H98.3011L100.797 22.1051H103.618L105.945 29.7881H104.424L106.881 22.1051H109.793L106.881 31.2051H103.592L101.694 24.9131H102.578L100.576 31.2051H97.2871ZM111.156 31.2051L115.134 22.1051H118.15L122.128 31.2051H118.956L116.018 23.5611H117.214L114.276 31.2051H111.156ZM113.522 29.6191L114.302 27.4091H118.488L119.268 29.6191H113.522ZM124.618 31.2051V22.1051H128.999C129.848 22.1051 130.581 22.2437 131.196 22.5211C131.82 22.7984 132.301 23.1971 132.639 23.7171C132.977 24.2284 133.146 24.8351 133.146 25.5371C133.146 26.2391 132.977 26.8457 132.639 27.3571C132.301 27.8597 131.82 28.2454 131.196 28.5141C130.581 28.7827 129.848 28.9171 128.999 28.9171H126.321L127.686 27.6561V31.2051H124.618ZM130.065 31.2051L127.829 27.8901H131.079L133.341 31.2051H130.065ZM127.686 27.9941L126.321 26.6031H128.804C129.229 26.6031 129.541 26.5077 129.74 26.3171C129.948 26.1264 130.052 25.8664 130.052 25.5371C130.052 25.2077 129.948 24.9477 129.74 24.7571C129.541 24.5664 129.229 24.4711 128.804 24.4711H126.321L127.686 23.0801V27.9941ZM139.112 25.4851H143.168V27.6951H139.112V25.4851ZM139.32 28.8911H143.87V31.2051H136.304V22.1051H143.701V24.4191H139.32V28.8911Z" fill="#9D82C4"/>
    </svg>    