<svg width="24" height="25" viewBox="0 0 24 25" fill="none" xmlns="http://www.w3.org/2000/svg">
    <path d="M10.614 13.3118C10.5069 13.2056 10.4218 13.0792 10.3638 12.9399C10.3058 12.8007 10.2759 12.6513 10.2759 12.5004C10.2759 12.3496 10.3058 12.2002 10.3638 12.061C10.4218 11.9217 10.5069 11.7953 10.614 11.6891L15.8594 6.45508C15.9665 6.34884 16.0515 6.22245 16.1095 6.08319C16.1676 5.94393 16.1974 5.79456 16.1974 5.6437C16.1974 5.49283 16.1676 5.34347 16.1095 5.20421C16.0515 5.06495 15.9665 4.93855 15.8594 4.83232C15.6453 4.61947 15.3556 4.5 15.0537 4.5C14.7518 4.5 14.4622 4.61947 14.2481 4.83232L9.00264 10.0777C8.36062 10.7205 8 11.5919 8 12.5004C8 13.409 8.36062 14.2803 9.00264 14.9232L14.2481 20.1686C14.4609 20.3797 14.7482 20.4987 15.048 20.5C15.1984 20.5008 15.3475 20.472 15.4867 20.4152C15.626 20.3583 15.7526 20.2745 15.8594 20.1686C15.9665 20.0623 16.0515 19.9359 16.1095 19.7967C16.1676 19.6574 16.1974 19.5081 16.1974 19.3572C16.1974 19.2063 16.1676 19.057 16.1095 18.9177C16.0515 18.7784 15.9665 18.652 15.8594 18.5458L10.614 13.3118Z" fill="#142232"/>
    </svg>
    