<svg width="24" height="24" viewBox="0 0 24 24" fill="none" xmlns="http://www.w3.org/2000/svg">
    <path d="M10.8333 10.3332C10.1703 10.3332 9.5344 10.5966 9.06556 11.0655C8.59672 11.5343 8.33333 12.1702 8.33333 12.8332C8.33333 13.4963 8.59672 14.1321 9.06556 14.601C9.5344 15.0698 10.1703 15.3332 10.8333 15.3332H14.1667C14.8297 15.3332 15.4656 15.0698 15.9344 14.601C16.4033 14.1321 16.6667 13.4963 16.6667 12.8332C16.6667 12.1702 16.4033 11.5343 15.9344 11.0655C15.4656 10.5966 14.8297 10.3332 14.1667 10.3332H10.8333ZM15 12.8332C15 13.0542 14.9122 13.2662 14.7559 13.4225C14.5996 13.5788 14.3877 13.6665 14.1667 13.6665H10.8333C10.6123 13.6665 10.4004 13.5788 10.2441 13.4225C10.0878 13.2662 10 13.0542 10 12.8332C10 12.6122 10.0878 12.4002 10.2441 12.244C10.4004 12.0877 10.6123 11.9999 10.8333 11.9999H14.1667C14.3877 11.9999 14.5996 12.0877 14.7559 12.244C14.9122 12.4002 15 12.6122 15 12.8332ZM16.6667 17.8332C16.6667 18.0542 16.5789 18.2662 16.4226 18.4225C16.2663 18.5787 16.0543 18.6665 15.8333 18.6665H9.16666C8.94565 18.6665 8.73369 18.5787 8.57741 18.4225C8.42113 18.2662 8.33333 18.0542 8.33333 17.8332C8.33333 17.6122 8.42113 17.4002 8.57741 17.244C8.73369 17.0877 8.94565 16.9999 9.16666 16.9999H15.8333C16.0543 16.9999 16.2663 17.0877 16.4226 17.244C16.5789 17.4002 16.6667 17.6122 16.6667 17.8332ZM18.78 4.60072L17.3983 3.22072C17.0124 2.8326 16.5533 2.52486 16.0477 2.31531C15.542 2.10575 14.9998 1.99855 14.4525 1.99989H9.16666C8.062 2.00121 7.00296 2.44063 6.22185 3.22174C5.44073 4.00285 5.00132 5.06189 5 6.16655V17.8332C5.00132 18.9379 5.44073 19.9969 6.22185 20.778C7.00296 21.5591 8.062 21.9986 9.16666 21.9999H15.8333C16.938 21.9986 17.997 21.5591 18.7781 20.778C19.5593 19.9969 19.9987 18.9379 20 17.8332V7.54739C20.0016 6.99996 19.8945 6.45766 19.6851 5.95186C19.4757 5.44607 19.1681 4.98683 18.78 4.60072ZM17.6017 5.77905C17.7189 5.89775 17.8244 6.02752 17.9167 6.16655H15.8333V4.08322C15.9726 4.1745 16.1021 4.27977 16.22 4.39739L17.6017 5.77905ZM18.3333 17.8332C18.3333 18.4963 18.0699 19.1321 17.6011 19.601C17.1323 20.0698 16.4964 20.3332 15.8333 20.3332H9.16666C8.50362 20.3332 7.86774 20.0698 7.3989 19.601C6.93006 19.1321 6.66667 18.4963 6.66667 17.8332V6.16655C6.66667 5.50351 6.93006 4.86763 7.3989 4.39879C7.86774 3.92995 8.50362 3.66656 9.16666 3.66656H14.1667V6.16655C14.1667 6.60858 14.3423 7.0325 14.6548 7.34506C14.9674 7.65763 15.3913 7.83322 15.8333 7.83322H18.3333V17.8332Z" fill="#919191"/>
    </svg>
    