<svg width="16" height="13" viewBox="0 0 16 13" fill="none" xmlns="http://www.w3.org/2000/svg">
<path d="M11.333 11.8334H14.6663V10.5001C14.6663 9.39548 13.7709 8.50008 12.6663 8.50008C12.0293 8.50008 11.4617 8.79795 11.0955 9.26201M11.333 11.8334L11.0955 9.26201M11.333 11.8334H4.66634M11.333 11.8334V10.5001C11.333 10.0626 11.2487 9.64475 11.0955 9.26201M11.0955 9.26201C10.604 8.03408 9.40314 7.16675 7.99967 7.16675C6.59622 7.16675 5.39534 8.03408 4.90384 9.26201M4.66634 11.8334H1.33301V10.5001C1.33301 9.39548 2.22844 8.50008 3.33301 8.50008C3.97008 8.50008 4.53758 8.79795 4.90384 9.26201M4.66634 11.8334L4.90384 9.26201M4.66634 11.8334V10.5001C4.66634 10.0626 4.75062 9.64475 4.90384 9.26201M9.99967 3.16675C9.99967 4.27131 9.10427 5.16675 7.99967 5.16675C6.89507 5.16675 5.99967 4.27131 5.99967 3.16675C5.99967 2.06218 6.89507 1.16675 7.99967 1.16675C9.10427 1.16675 9.99967 2.06218 9.99967 3.16675ZM13.9997 5.16675C13.9997 5.90315 13.4027 6.50008 12.6663 6.50008C11.9299 6.50008 11.333 5.90315 11.333 5.16675C11.333 4.43037 11.9299 3.83341 12.6663 3.83341C13.4027 3.83341 13.9997 4.43037 13.9997 5.16675ZM4.66634 5.16675C4.66634 5.90315 4.06939 6.50008 3.33301 6.50008C2.59663 6.50008 1.99967 5.90315 1.99967 5.16675C1.99967 4.43037 2.59663 3.83341 3.33301 3.83341C4.06939 3.83341 4.66634 4.43037 4.66634 5.16675Z" stroke="white" stroke-width="1.5" stroke-linecap="round" stroke-linejoin="round"/>
</svg>
