<svg width="21" height="19" viewBox="0 0 21 19" fill="none" xmlns="http://www.w3.org/2000/svg">
    <path fill-rule="evenodd" clip-rule="evenodd" d="M10.014 0C11.034 0 11.947 0.529 12.453 1.415L19.639 13.979C20.142 14.858 20.139 15.907 19.63 16.784C19.121 17.662 18.212 18.186 17.199 18.186H2.81601C1.80201 18.186 0.893013 17.662 0.384013 16.784C-0.124987 15.907 -0.127987 14.858 0.375013 13.979L7.57501 1.413C8.08101 0.528 8.99201 0 10.013 0H10.014ZM10.013 1.5C9.53701 1.5 9.11301 1.746 8.87501 2.159L1.67701 14.724C1.44301 15.134 1.44501 15.623 1.68201 16.032C1.91901 16.441 2.34301 16.686 2.81601 16.686H17.199C17.671 16.686 18.095 16.441 18.332 16.032C18.57 15.623 18.572 15.134 18.336 14.724L11.151 2.159C10.914 1.746 10.49 1.5 10.013 1.5ZM10.0062 12.499C10.5592 12.499 11.0062 12.946 11.0062 13.499C11.0062 14.052 10.5592 14.499 10.0062 14.499C9.45321 14.499 9.00121 14.052 9.00121 13.499C9.00121 12.946 9.44421 12.499 9.99621 12.499H10.0062ZM10.0042 6.564C10.4182 6.564 10.7542 6.9 10.7542 7.314V10.414C10.7542 10.828 10.4182 11.164 10.0042 11.164C9.59021 11.164 9.25421 10.828 9.25421 10.414V7.314C9.25421 6.9 9.59021 6.564 10.0042 6.564Z" fill="#919191"/>
</svg>    