<svg width="15" height="17" viewBox="0 0 15 17" fill="none" xmlns="http://www.w3.org/2000/svg">
<path d="M9.96851 0.5H3.54226C2.60344 0.5 1.83935 1.26462 1.83935 2.20291V8.49997H1.67302C1.29411 8.49997 0.986816 8.80696 0.986816 9.18621V13.3478C0.986816 13.727 1.29408 14.034 1.67302 14.034H1.83935V14.7971C1.83935 15.7364 2.60344 16.5 3.54226 16.5H12.3106C13.2488 16.5 14.013 15.7363 14.013 14.7971V4.53033L9.96851 0.5ZM2.78702 9.93723C2.98813 9.90324 3.2708 9.87762 3.66906 9.87762C4.07153 9.87762 4.35839 9.95445 4.55113 10.1088C4.73524 10.2542 4.85948 10.4942 4.85948 10.7767C4.85948 11.0591 4.76534 11.2992 4.59403 11.4618C4.37123 11.6716 4.04173 11.7657 3.65628 11.7657C3.5705 11.7657 3.49361 11.7615 3.43348 11.7531V12.7851H2.78702V9.93723ZM12.3106 15.4571H3.54226C3.17874 15.4571 2.88273 15.1611 2.88273 14.7971V14.034H11.0566C11.4356 14.034 11.7429 13.727 11.7429 13.3478V9.18621C11.7429 8.80696 11.4356 8.49997 11.0566 8.49997H2.88273V2.20291C2.88273 1.83993 3.17878 1.54391 3.54226 1.54391L9.57835 1.53761V3.76876C9.57835 4.42045 10.1071 4.94973 10.7593 4.94973L12.945 4.94346L12.9696 14.797C12.9696 15.1611 12.6741 15.4571 12.3106 15.4571ZM5.27633 12.772V9.93723C5.51609 9.89906 5.8286 9.87762 6.15839 9.87762C6.70648 9.87762 7.0619 9.97595 7.34039 10.1857C7.64009 10.4085 7.82835 10.7636 7.82835 11.2735C7.82835 11.8258 7.62724 12.2071 7.34872 12.4424C7.04484 12.695 6.58227 12.8148 6.01716 12.8148C5.67873 12.8148 5.43897 12.7934 5.27633 12.772ZM9.94972 11.0936V11.6245H8.91334V12.7851H8.25826V9.89906H10.0224V10.4341H8.91334V11.0936H9.94972Z" fill="white"/>
</svg>
