<svg width="15" height="15" viewBox="0 0 15 15" fill="none" xmlns="http://www.w3.org/2000/svg">
<path d="M10.8333 10.8333H12.1667C12.9031 10.8333 13.5 10.2364 13.5 9.5V6.83333C13.5 6.09695 12.9031 5.5 12.1667 5.5H2.83333C2.09695 5.5 1.5 6.09695 1.5 6.83333V9.5C1.5 10.2364 2.09695 10.8333 2.83333 10.8333H4.16667M5.5 13.5H9.5C10.2364 13.5 10.8333 12.9031 10.8333 12.1667V9.5C10.8333 8.7636 10.2364 8.16667 9.5 8.16667H5.5C4.76362 8.16667 4.16667 8.7636 4.16667 9.5V12.1667C4.16667 12.9031 4.76362 13.5 5.5 13.5ZM10.8333 5.5V2.83333C10.8333 2.09695 10.2364 1.5 9.5 1.5H5.5C4.76362 1.5 4.16667 2.09695 4.16667 2.83333V5.5H10.8333Z" stroke="white" stroke-width="1.5" stroke-linecap="round" stroke-linejoin="round"/>
</svg>
