<svg width="20" height="21" viewBox="0 0 20 21" fill="none" xmlns="http://www.w3.org/2000/svg">
    <path d="M17.6393 17.2947C17.4551 17.2947 17.2785 17.2215 17.1482 17.0913C17.018 16.9611 16.9448 16.7845 16.9448 16.6003C16.9437 15.4956 16.5044 14.4365 15.7233 13.6554C14.9422 12.8743 13.8831 12.435 12.7784 12.4339H8.73004V13.5352C8.72998 13.8098 8.64849 14.0783 8.49589 14.3066C8.34328 14.535 8.1264 14.7129 7.87266 14.818C7.61893 14.9231 7.33973 14.9506 7.07036 14.897C6.801 14.8435 6.55357 14.7113 6.35934 14.5171L2.27693 10.4347C1.88639 10.044 1.66699 9.51425 1.66699 8.96186C1.66699 8.40946 1.88639 7.87969 2.27693 7.48903L6.35934 3.40662C6.55357 3.21246 6.801 3.08023 7.07036 3.02667C7.33973 2.97311 7.61893 3.00061 7.87266 3.1057C8.1264 3.21079 8.34328 3.38875 8.49589 3.61709C8.64849 3.84542 8.72998 4.11387 8.73004 4.38851V5.48984H12.084C13.741 5.49167 15.3295 6.15071 16.5012 7.32234C17.6728 8.49398 18.3318 10.0825 18.3337 11.7395V16.6003C18.3337 16.7845 18.2605 16.9611 18.1303 17.0913C18 17.2215 17.8234 17.2947 17.6393 17.2947ZM7.34123 4.38851L3.25882 8.47091C3.12864 8.60113 3.05551 8.77773 3.05551 8.96186C3.05551 9.14599 3.12864 9.32258 3.25882 9.4528L7.34123 13.5352V11.7395C7.34123 11.5553 7.41439 11.3787 7.54461 11.2485C7.67484 11.1182 7.85146 11.0451 8.03563 11.0451H12.7784C13.567 11.0448 14.3465 11.2128 15.065 11.5378C15.7835 11.8628 16.4243 12.3373 16.9448 12.9297V11.7395C16.9434 10.4508 16.4308 9.21524 15.5195 8.30397C14.6083 7.39271 13.3727 6.88012 12.084 6.87864H8.03563C7.85146 6.87864 7.67484 6.80548 7.54461 6.67526C7.41439 6.54503 7.34123 6.36841 7.34123 6.18424V4.38851Z" fill="#355B74"/>
    </svg>
    