<svg width="32" height="32" viewBox="0 0 32 32" fill="none" xmlns="http://www.w3.org/2000/svg">
    <path
        d="M27.963 17.8427L25.8521 10.2481C25.2334 8.02312 23.8887 6.06885 22.0318 4.69588C20.1749 3.32291 17.9123 2.61003 15.6038 2.67055C13.2952 2.73108 11.0731 3.56154 9.29073 5.02993C7.50833 6.49832 6.2679 8.52037 5.76662 10.7747L4.13236 18.1238C3.95185 18.9359 3.95602 19.7781 4.14458 20.5883C4.33313 21.3986 4.70126 22.1561 5.22178 22.805C5.74229 23.4539 6.40191 23.9776 7.15192 24.3375C7.90193 24.6974 8.7232 24.8842 9.55508 24.8842H10.7927C11.0477 26.1399 11.729 27.2689 12.7211 28.0798C13.7132 28.8907 14.9552 29.3337 16.2365 29.3337C17.5179 29.3337 18.7598 28.8907 19.752 28.0798C20.7441 27.2689 21.4254 26.1399 21.6804 24.8842H22.6114C23.4677 24.8842 24.3125 24.6863 25.0797 24.3058C25.8469 23.9254 26.5157 23.3727 27.034 22.6909C27.5522 22.0092 27.9058 21.2168 28.0672 20.3758C28.2285 19.5348 28.1932 18.6679 27.9641 17.8427H27.963ZM16.2365 27.1061C15.5497 27.1033 14.8804 26.8883 14.3204 26.4905C13.7604 26.0928 13.337 25.5318 13.108 24.8842H19.3651C19.1361 25.5318 18.7127 26.0928 18.1526 26.4905C17.5926 26.8883 16.9234 27.1033 16.2365 27.1061ZM25.2644 21.3457C24.9548 21.7564 24.5537 22.0892 24.093 22.3177C23.6322 22.5463 23.1245 22.6642 22.6102 22.6622H9.55508C9.05601 22.6621 8.56332 22.5499 8.1134 22.334C7.66347 22.118 7.26779 21.8038 6.95555 21.4144C6.64332 21.0251 6.4225 20.5706 6.30941 20.0845C6.19631 19.5984 6.19382 19.0932 6.30212 18.606L7.93526 11.2557C8.32894 9.48504 9.30322 7.89677 10.7032 6.7434C12.1032 5.59003 13.8486 4.93774 15.6619 4.89024C17.4752 4.84274 19.2523 5.40274 20.7108 6.48123C22.1693 7.55972 23.2254 9.09479 23.7112 10.8424L25.8221 18.4371C25.9616 18.9319 25.9838 19.4524 25.887 19.9573C25.7902 20.4622 25.577 20.9376 25.2644 21.3457Z"
        fill="#B1B1B1" />
</svg>    