<svg width="16" height="17" viewBox="0 0 16 17" fill="none" xmlns="http://www.w3.org/2000/svg">
    <path d="M3.02847 6.444C3.86847 4.14333 6.07714 2.5 8.66647 2.5C11.9778 2.5 14.6665 5.18867 14.6665 8.5C14.6665 11.8113 11.9778 14.5 8.66647 14.5C6.44781 14.5 4.50848 13.2933 3.47048 11.5007C3.28648 11.182 3.39514 10.774 3.71381 10.5893C4.03181 10.4053 4.43981 10.514 4.62448 10.8327C5.43181 12.2273 6.94047 13.1667 8.66647 13.1667C11.2418 13.1667 13.3331 11.0753 13.3331 8.5C13.3331 5.924 11.2418 3.83333 8.66647 3.83333C6.52181 3.83333 4.71314 5.28267 4.16781 7.25467L5.33582 6.588C5.65515 6.40534 6.06248 6.516 6.24515 6.836C6.42781 7.15533 6.31647 7.56267 5.99714 7.74534L3.66381 9.07867C3.50581 9.16934 3.31781 9.19067 3.14315 9.13867C2.96848 9.08667 2.82314 8.966 2.73981 8.804L1.40647 6.202C1.23847 5.87467 1.36848 5.47267 1.69581 5.30467C2.02314 5.13667 2.42514 5.26667 2.59314 5.594L3.02847 6.444ZM9.33314 8.224L11.1378 10.0287C11.3978 10.2887 11.3978 10.7113 11.1378 10.9713C10.8778 11.2313 10.4551 11.2313 10.1951 10.9713L8.19514 8.97133C8.06981 8.846 7.99981 8.67667 7.99981 8.5V5.83333C7.99981 5.46533 8.29847 5.16667 8.66647 5.16667C9.03447 5.16667 9.33314 5.46533 9.33314 5.83333V8.224Z" fill="#666666"/>
    </svg>
    