<svg width="20" height="20" viewBox="0 0 20 20" fill="none" xmlns="http://www.w3.org/2000/svg">
    <path d="M5.83333 13.3335V3.3335V13.3335ZM5.83333 3.3335L2.5 6.66683L5.83333 3.3335ZM5.83333 3.3335L9.16667 6.66683L5.83333 3.3335ZM14.1667 6.66683V16.6668V6.66683ZM14.1667 16.6668L17.5 13.3335L14.1667 16.6668ZM14.1667 16.6668L10.8333 13.3335L14.1667 16.6668Z" fill="#003A94"/>
    <path d="M14.1667 16.6668L10.8333 13.3335M5.83333 13.3335V3.3335V13.3335ZM5.83333 3.3335L2.5 6.66683L5.83333 3.3335ZM5.83333 3.3335L9.16667 6.66683L5.83333 3.3335ZM14.1667 6.66683V16.6668V6.66683ZM14.1667 16.6668L17.5 13.3335L14.1667 16.6668Z" stroke="#666666" stroke-width="1.5" stroke-linecap="round" stroke-linejoin="round"/>
</svg>
    