<svg width="24" height="24" viewBox="0 0 24 24" fill="none" xmlns="http://www.w3.org/2000/svg">
    <path d="M12 2C10.0222 2 8.08879 2.58649 6.4443 3.6853C4.79981 4.78412 3.51809 6.3459 2.76121 8.17316C2.00433 10.0004 1.8063 12.0111 2.19215 13.9509C2.578 15.8907 3.53041 17.6725 4.92894 19.0711C6.32746 20.4696 8.10929 21.422 10.0491 21.8078C11.9889 22.1937 13.9996 21.9957 15.8268 21.2388C17.6541 20.4819 19.2159 19.2002 20.3147 17.5557C21.4135 15.9112 22 13.9778 22 12C21.9971 9.34871 20.9426 6.80684 19.0679 4.9321C17.1932 3.05736 14.6513 2.00287 12 2V2ZM12 20.3333C10.3518 20.3333 8.74066 19.8446 7.37025 18.9289C5.99984 18.0132 4.93174 16.7117 4.30101 15.189C3.67028 13.6663 3.50525 11.9908 3.82679 10.3742C4.14834 8.75774 4.94201 7.27288 6.10745 6.10744C7.27288 4.94201 8.75774 4.14833 10.3743 3.82679C11.9908 3.50525 13.6663 3.67027 15.189 4.301C16.7117 4.93173 18.0132 5.99984 18.9289 7.37025C19.8446 8.74066 20.3333 10.3518 20.3333 12C20.3309 14.2094 19.4522 16.3276 17.8899 17.8899C16.3276 19.4522 14.2094 20.3309 12 20.3333Z" fill="#5985AA"/>
    <path d="M11.9997 10.334H11.1663C10.9453 10.334 10.7334 10.4218 10.5771 10.5781C10.4208 10.7343 10.333 10.9463 10.333 11.1673C10.333 11.3883 10.4208 11.6003 10.5771 11.7566C10.7334 11.9129 10.9453 12.0007 11.1663 12.0007H11.9997V17.0007C11.9997 17.2217 12.0875 17.4336 12.2437 17.5899C12.4 17.7462 12.612 17.834 12.833 17.834C13.054 17.834 13.266 17.7462 13.4223 17.5899C13.5785 17.4336 13.6663 17.2217 13.6663 17.0007V12.0007C13.6663 11.5586 13.4907 11.1347 13.1782 10.8221C12.8656 10.5096 12.4417 10.334 11.9997 10.334Z" fill="#5985AA"/>
    <path d="M12 8.66601C12.6904 8.66601 13.25 8.10637 13.25 7.41602C13.25 6.72566 12.6904 6.16602 12 6.16602C11.3096 6.16602 10.75 6.72566 10.75 7.41602C10.75 8.10637 11.3096 8.66601 12 8.66601Z" fill="#5985AA"/>
    </svg>    