<svg width="17" height="16" viewBox="0 0 17 16" fill="none" xmlns="http://www.w3.org/2000/svg">
    <path d="M11.8333 5.99967V4.66634C11.8333 3.92996 11.2364 3.33301 10.5 3.33301H3.83333C3.09695 3.33301 2.5 3.92996 2.5 4.66634V8.66634C2.5 9.40274 3.09695 9.99967 3.83333 9.99967H5.16667M6.5 12.6663H13.1667C13.9031 12.6663 14.5 12.0694 14.5 11.333V7.33301C14.5 6.59663 13.9031 5.99967 13.1667 5.99967H6.5C5.76362 5.99967 5.16667 6.59663 5.16667 7.33301V11.333C5.16667 12.0694 5.76362 12.6663 6.5 12.6663ZM11.1667 9.33301C11.1667 10.0694 10.5697 10.6663 9.83333 10.6663C9.09693 10.6663 8.5 10.0694 8.5 9.33301C8.5 8.59661 9.09693 7.99967 9.83333 7.99967C10.5697 7.99967 11.1667 8.59661 11.1667 9.33301Z" stroke="white" stroke-width="1.5" stroke-linecap="round" stroke-linejoin="round"/>
</svg>    