<svg width="41" height="40" viewBox="0 0 41 40" fill="none" xmlns="http://www.w3.org/2000/svg">
    <path d="M32.3337 28.3333C32.3337 30.1743 30.8413 31.6667 29.0003 31.6667C27.1593 31.6667 25.667 30.1743 25.667 28.3333C25.667 26.4923 27.1593 25 29.0003 25C30.8413 25 32.3337 26.4923 32.3337 28.3333Z" fill="white"/>
    <path d="M22.3337 26.6663V9.99967C22.3337 9.07921 21.5875 8.33301 20.667 8.33301H7.33366C6.41319 8.33301 5.66699 9.07921 5.66699 9.99967V26.6663C5.66699 27.5868 6.41319 28.333 7.33366 28.333H9.00033M22.3337 26.6663C22.3337 27.5868 21.5875 28.333 20.667 28.333H15.667M22.3337 26.6663V13.333C22.3337 12.4125 23.0798 11.6663 24.0003 11.6663H28.31C28.752 11.6663 29.176 11.8419 29.4885 12.1545L35.1788 17.8448C35.4913 18.1573 35.667 18.5813 35.667 19.0233V26.6663C35.667 27.5868 34.9208 28.333 34.0003 28.333H32.3337M22.3337 26.6663C22.3337 27.5868 23.0798 28.333 24.0003 28.333H25.667M9.00033 28.333C9.00033 30.174 10.4927 31.6663 12.3337 31.6663C14.1746 31.6663 15.667 30.174 15.667 28.333M9.00033 28.333C9.00033 26.492 10.4927 24.9997 12.3337 24.9997C14.1746 24.9997 15.667 26.492 15.667 28.333M32.3337 28.333C32.3337 30.174 30.8413 31.6663 29.0003 31.6663C27.1593 31.6663 25.667 30.174 25.667 28.333M32.3337 28.333C32.3337 26.492 30.8413 24.9997 29.0003 24.9997C27.1593 24.9997 25.667 26.492 25.667 28.333" stroke="#5985AA" stroke-width="3" stroke-linecap="round" stroke-linejoin="round"/>
</svg>    