<svg width="4" height="19" viewBox="0 0 4 19" fill="none" xmlns="http://www.w3.org/2000/svg">
<path d="M2 2.5V2.51V2.5ZM2 9.5V9.51V9.5ZM2 16.5V16.51V16.5ZM2 3.5C1.4477 3.5 1 3.05228 1 2.5C1 1.94772 1.4477 1.5 2 1.5C2.5523 1.5 3 1.94772 3 2.5C3 3.05228 2.5523 3.5 2 3.5ZM2 10.5C1.4477 10.5 1 10.0523 1 9.5C1 8.9477 1.4477 8.5 2 8.5C2.5523 8.5 3 8.9477 3 9.5C3 10.0523 2.5523 10.5 2 10.5ZM2 17.5C1.4477 17.5 1 17.0523 1 16.5C1 15.9477 1.4477 15.5 2 15.5C2.5523 15.5 3 15.9477 3 16.5C3 17.0523 2.5523 17.5 2 17.5Z" stroke="#666666" stroke-width="2" stroke-linecap="round" stroke-linejoin="round"/>
</svg>
