<svg width="16" height="17" viewBox="0 0 16 17" fill="none" xmlns="http://www.w3.org/2000/svg">
    <path d="M11.7711 11.6046C11.1466 12.229 9.8409 13.5347 8.94237 14.4333C8.42164 14.954 7.5783 14.9543 7.05757 14.4335C6.17473 13.5507 4.89423 12.2702 4.2286 11.6046C2.1458 9.5218 2.1458 6.14489 4.2286 4.0621C6.3114 1.9793 9.6883 1.9793 11.7711 4.0621C13.8538 6.14489 13.8538 9.5218 11.7711 11.6046Z" stroke="#666666" stroke-width="1.5" stroke-linecap="round" stroke-linejoin="round"/>
    <path d="M10 7.83301C10 8.93761 9.1046 9.83301 8 9.83301C6.8954 9.83301 6 8.93761 6 7.83301C6 6.72844 6.8954 5.83301 8 5.83301C9.1046 5.83301 10 6.72844 10 7.83301Z" stroke="#666666" stroke-width="1.5" stroke-linecap="round" stroke-linejoin="round"/>
    </svg>    