<svg width="24" height="24" viewBox="0 0 24 24" fill="none" xmlns="http://www.w3.org/2000/svg">
    <path d="M8.24576 22C6.73722 21.999 5.27993 21.4525 4.14281 20.4612C3.00568 19.4699 2.26546 18.1008 2.05873 16.6065C1.85201 15.1122 2.19272 13.5935 3.01802 12.3308C3.84331 11.068 5.09747 10.1463 6.54909 9.73584C7.60419 9.4337 8.721 9.41989 9.78325 9.69584L16.3732 3.10752C16.7231 2.75525 17.1394 2.47596 17.598 2.28585C18.0566 2.09573 18.5484 1.99858 19.0449 2.00002C19.8262 2.00068 20.5753 2.31134 21.1278 2.86381C21.6802 3.41627 21.9909 4.16538 21.9916 4.94668C21.9929 5.44317 21.8957 5.93499 21.7058 6.39371C21.5158 6.85243 21.2368 7.26895 20.8849 7.61918L20.3249 8.17918C20.0116 8.49038 19.5882 8.66553 19.1466 8.66668H17.8249V9.50001C17.8249 9.94204 17.6493 10.366 17.3368 10.6785C17.0242 10.9911 16.6003 11.1667 16.1582 11.1667H15.3249V12.4883C15.3255 12.7073 15.2826 12.9242 15.1988 13.1264C15.115 13.3287 14.9919 13.5123 14.8366 13.6667L14.2949 14.2083C14.5724 15.2701 14.5589 16.387 14.2557 17.4417C13.9147 18.6433 13.2227 19.7158 12.2684 20.5218C11.3141 21.3278 10.1409 21.8306 8.89909 21.9658C8.68204 21.9884 8.46397 21.9998 8.24576 22ZM8.24576 11.1667C7.39255 11.1658 6.55605 11.4032 5.83042 11.852C5.10478 12.3008 4.51883 12.9432 4.13851 13.707C3.7582 14.4708 3.59862 15.3255 3.67774 16.175C3.75686 17.0246 4.07154 17.8352 4.58636 18.5155C5.10118 19.1959 5.79569 19.7191 6.59172 20.0262C7.38775 20.3333 8.2537 20.4121 9.09208 20.2537C9.93046 20.0953 10.708 19.7061 11.3371 19.1298C11.9663 18.5535 12.4221 17.813 12.6532 16.9917C12.9132 16.0888 12.8841 15.1272 12.5699 14.2417C12.5186 14.0938 12.51 13.9345 12.5451 13.7819C12.5802 13.6294 12.6575 13.4898 12.7682 13.3792L13.6582 12.4883V11.1667C13.6582 10.7246 13.8338 10.3007 14.1464 9.98817C14.459 9.67561 14.8829 9.50001 15.3249 9.50001H16.1582V8.66668C16.1582 8.22465 16.3338 7.80073 16.6464 7.48817C16.959 7.17561 17.3829 7.00001 17.8249 7.00001H19.1466L19.7066 6.44001C19.9032 6.24431 20.0591 6.01157 20.1652 5.75524C20.2714 5.49892 20.3256 5.22411 20.3249 4.94668C20.3247 4.60742 20.1899 4.2821 19.95 4.04212C19.7102 3.80215 19.385 3.66712 19.0457 3.66668C18.7681 3.666 18.4931 3.72037 18.2367 3.82665C17.9802 3.93293 17.7473 4.089 17.5516 4.28585L10.6091 11.2275C10.4983 11.3382 10.3585 11.4155 10.2058 11.4504C10.0531 11.4854 9.89367 11.4766 9.74575 11.425C9.26248 11.2549 8.75394 11.1675 8.24159 11.1667H8.24576ZM6.15826 17C6.15826 17.1648 6.20713 17.3259 6.2987 17.463C6.39027 17.6 6.52042 17.7068 6.67269 17.7699C6.82496 17.833 6.99252 17.8495 7.15417 17.8173C7.31582 17.7852 7.4643 17.7058 7.58084 17.5893C7.69739 17.4727 7.77676 17.3242 7.80891 17.1626C7.84106 17.0009 7.82456 16.8334 7.76149 16.6811C7.69842 16.5288 7.59161 16.3987 7.45456 16.3071C7.31752 16.2155 7.15641 16.1667 6.99159 16.1667C6.77058 16.1667 6.55862 16.2545 6.40234 16.4108C6.24606 16.567 6.15826 16.779 6.15826 17Z" fill="white"/>
</svg>
    