<svg width="20" height="15" viewBox="0 0 20 15" fill="none" xmlns="http://www.w3.org/2000/svg">
<path d="M19.4036 3.40247C19.1633 3.16216 18.8625 2.96888 18.5225 2.83637C18.1824 2.70386 17.8116 2.63536 17.4362 2.63574H3.62393L3.58805 2.38586C3.51462 1.86646 3.21505 1.38757 2.74613 1.03997C2.27721 0.692376 1.67154 0.500243 1.04395 0.5L0.854297 0.5C0.627723 0.5 0.410429 0.575005 0.250218 0.708515C0.090006 0.842024 0 1.0231 0 1.21191C0 1.40072 0.090006 1.5818 0.250218 1.71531C0.410429 1.84882 0.627723 1.92383 0.854297 1.92383H1.04395C1.2532 1.92385 1.45516 1.98787 1.61152 2.10374C1.76789 2.21961 1.86779 2.37927 1.89227 2.55245L3.06778 10.8818C3.18982 11.7481 3.68926 12.5468 4.47131 13.1265C5.25336 13.7062 6.26358 14.0264 7.31022 14.0264H16.2316C16.4582 14.0264 16.6755 13.9513 16.8357 13.8178C16.9959 13.6843 17.0859 13.5033 17.0859 13.3144C17.0859 13.1256 16.9959 12.9446 16.8357 12.811C16.6755 12.6775 16.4582 12.6025 16.2316 12.6025H7.31022C6.78146 12.6013 6.2661 12.4638 5.83479 12.2089C5.40349 11.954 5.07735 11.5941 4.9011 11.1787H15.0843C16.0858 11.1788 17.0555 10.8856 17.8239 10.3503C18.5923 9.81513 19.1106 9.07193 19.2883 8.2506L19.9589 5.15093C20.0259 4.84339 20.0108 4.52734 19.9149 4.22518C19.8189 3.92303 19.6444 3.64216 19.4036 3.40247ZM18.282 4.8982L17.6105 7.99787C17.5038 8.49123 17.1923 8.93759 16.7304 9.25881C16.2686 9.58003 15.6859 9.75563 15.0843 9.75487H4.62943L3.82554 4.05957H17.4362C17.5617 4.05894 17.6858 4.08137 17.7997 4.12524C17.9136 4.16912 18.0146 4.23338 18.0953 4.31344C18.1761 4.3935 18.2346 4.48741 18.2669 4.58847C18.2992 4.68954 18.3043 4.79529 18.282 4.8982Z" fill="#442B79"/>
</svg>
