<svg width="16" height="17" viewBox="0 0 16 17" fill="none" xmlns="http://www.w3.org/2000/svg">
    <path d="M5.99967 9.83333L9.99967 5.83333L5.99967 9.83333ZM6.33303 6.16667H6.33969H6.33303ZM9.66634 9.5H9.67301H9.66634ZM12.6663 14.5V3.83333C12.6663 3.09695 12.0694 2.5 11.333 2.5H4.66634C3.92996 2.5 3.33301 3.09695 3.33301 3.83333V14.5L5.66634 13.1667L7.99967 14.5L10.333 13.1667L12.6663 14.5ZM6.66634 6.16667C6.66634 6.35076 6.5171 6.5 6.33301 6.5C6.14891 6.5 5.99967 6.35076 5.99967 6.16667C5.99967 5.98257 6.14891 5.83333 6.33301 5.83333C6.5171 5.83333 6.66634 5.98257 6.66634 6.16667ZM9.99967 9.5C9.99967 9.68407 9.85041 9.83333 9.66634 9.83333C9.48227 9.83333 9.33301 9.68407 9.33301 9.5C9.33301 9.31593 9.48227 9.16667 9.66634 9.16667C9.85041 9.16667 9.99967 9.31593 9.99967 9.5Z" stroke="#666666" stroke-width="1.5" stroke-linecap="round" stroke-linejoin="round"/>
    </svg>
    