<svg width="16" height="16" viewBox="0 0 16 16" fill="none" xmlns="http://www.w3.org/2000/svg">
    <path d="M14.5105 13.7256L11.1971 10.4122C12.1001 9.3079 12.544 7.89878 12.4371 6.47632C12.3303 5.05386 11.6807 3.7269 10.6229 2.7699C9.56511 1.8129 8.17994 1.29909 6.75391 1.33475C5.32789 1.3704 3.97013 1.95279 2.96146 2.96146C1.95279 3.97013 1.3704 5.32789 1.33475 6.75391C1.29909 8.17994 1.8129 9.56511 2.7699 10.6229C3.7269 11.6807 5.05386 12.3303 6.47632 12.4371C7.89878 12.544 9.3079 12.1001 10.4122 11.1971L13.7256 14.5105C13.8303 14.6116 13.9705 14.6676 14.1161 14.6663C14.2616 14.6651 14.4008 14.6067 14.5038 14.5038C14.6067 14.4008 14.6651 14.2616 14.6663 14.1161C14.6676 13.9705 14.6116 13.8303 14.5105 13.7256ZM6.90177 11.3426C6.02346 11.3426 5.16488 11.0821 4.4346 10.5942C3.70431 10.1062 3.13512 9.41264 2.79901 8.60119C2.4629 7.78974 2.37495 6.89684 2.5463 6.03541C2.71765 5.17398 3.1406 4.38271 3.76165 3.76165C4.38271 3.1406 5.17398 2.71765 6.03541 2.5463C6.89684 2.37495 7.78974 2.4629 8.60119 2.79901C9.41264 3.13512 10.1062 3.70431 10.5942 4.4346C11.0821 5.16488 11.3426 6.02346 11.3426 6.90177C11.3412 8.07914 10.873 9.2079 10.0404 10.0404C9.2079 10.873 8.07914 11.3412 6.90177 11.3426Z" fill="#818181"/>
    </svg>    