<svg width="21" height="21" viewBox="0 0 21 21" fill="none" xmlns="http://www.w3.org/2000/svg">
    <path d="M1.4723 7.89362L4.7052 4.66071C4.86239 4.5089 5.07292 4.42489 5.29144 4.42679C5.50996 4.42869 5.719 4.51634 5.87353 4.67087C6.02805 4.82539 6.11571 5.03443 6.11761 5.25295C6.1195 5.47148 6.0355 5.68201 5.88368 5.83919L2.65078 9.0721C2.55473 9.17005 2.47078 9.27918 2.40074 9.39714C2.41325 9.39714 2.42325 9.39047 2.43575 9.39047L15.5074 9.41714C15.7284 9.41714 15.9404 9.50495 16.0967 9.66125C16.253 9.81755 16.3408 10.0295 16.3408 10.2506C16.3408 10.4716 16.253 10.6836 16.0967 10.8399C15.9404 10.9962 15.7284 11.084 15.5074 11.084L2.44075 11.0573C2.41741 11.0573 2.39824 11.0457 2.37574 11.044C2.44967 11.185 2.54341 11.3147 2.65411 11.4291L5.88702 14.662C5.96662 14.7388 6.03011 14.8308 6.07379 14.9325C6.11747 15.0342 6.14046 15.1435 6.14142 15.2542C6.14238 15.3649 6.1213 15.4746 6.07939 15.577C6.03749 15.6795 5.9756 15.7725 5.89734 15.8508C5.81909 15.929 5.72604 15.9909 5.62361 16.0328C5.52118 16.0747 5.41144 16.0958 5.30077 16.0949C5.19011 16.0939 5.08075 16.0709 4.97906 16.0272C4.87738 15.9835 4.78542 15.92 4.70853 15.8404L1.47563 12.6075C0.850648 11.9824 0.499553 11.1346 0.499553 10.2506C0.499553 9.36659 0.850648 8.51879 1.47563 7.89362H1.4723Z" fill="#919191"/>
    <path d="M14.665 18.5856H16.3318C16.995 18.5856 17.6309 18.3222 18.0998 17.8533C18.5687 17.3844 18.8321 16.7484 18.8321 16.0853L18.8321 4.41719C18.8321 3.75406 18.5687 3.1181 18.0998 2.6492C17.6309 2.1803 16.995 1.91688 16.3318 1.91688L14.665 1.91688C14.4439 1.91688 14.2319 1.82907 14.0756 1.67277C13.9193 1.51647 13.8315 1.30448 13.8315 1.08344C13.8315 0.862396 13.9193 0.650408 14.0756 0.494108C14.2319 0.337808 14.4439 0.25 14.665 0.25L16.3318 0.25C17.4366 0.251323 18.4958 0.69079 19.277 1.472C20.0582 2.25322 20.4977 3.31239 20.499 4.41719V16.0853C20.4977 17.1901 20.0582 18.2493 19.277 19.0305C18.4958 19.8117 17.4366 20.2512 16.3318 20.2525H14.665C14.4439 20.2525 14.2319 20.1647 14.0756 20.0084C13.9193 19.8521 13.8315 19.6401 13.8315 19.4191C13.8315 19.198 13.9193 18.986 14.0756 18.8297C14.2319 18.6734 14.4439 18.5856 14.665 18.5856Z" fill="#919191"/>
    </svg>
    