<svg width="24" height="24" viewBox="0 0 24 24" fill="none" xmlns="http://www.w3.org/2000/svg">
    <path d="M20.7502 5.31348H18.1785C18.0137 5.31351 17.8526 5.36241 17.7156 5.45398C17.5786 5.54555 17.4718 5.67568 17.4088 5.82793C17.3457 5.98018 17.3292 6.14771 17.3614 6.30934C17.3935 6.47096 17.4728 6.61943 17.5893 6.73598L18.4943 7.64098L15.506 10.6285C15.3472 10.7802 15.1361 10.8649 14.9164 10.8649C14.6968 10.8649 14.4856 10.7802 14.3268 10.6285L14.1852 10.486C13.709 10.031 13.0758 9.77716 12.4173 9.77716C11.7587 9.77716 11.1255 10.031 10.6493 10.486L6.39934 14.736C6.24276 14.893 6.15496 15.1058 6.15527 15.3276C6.15559 15.5493 6.24398 15.7619 6.40101 15.9185C6.55804 16.0751 6.77084 16.1629 6.99261 16.1625C7.21437 16.1622 7.42692 16.0738 7.58351 15.9168L11.8335 11.6668C11.9922 11.5149 12.2034 11.4301 12.4231 11.4301C12.6428 11.4301 12.854 11.5149 13.0127 11.6668L13.1543 11.8093C13.6307 12.2639 14.2638 12.5175 14.9223 12.5175C15.5807 12.5175 16.2138 12.2639 16.6902 11.8093L19.6785 8.82098L20.5835 9.72598C20.7004 9.8406 20.8486 9.91823 21.0094 9.94918C21.1701 9.98013 21.3365 9.96302 21.4876 9.89999C21.6388 9.83696 21.768 9.73081 21.8591 9.59478C21.9503 9.45875 21.9993 9.29889 22.0002 9.13514V6.56348C22.0002 6.23196 21.8685 5.91401 21.6341 5.67959C21.3996 5.44517 21.0817 5.31348 20.7502 5.31348Z" fill="#919191"/>
    <path d="M21.1667 20.3133H6.16667C5.50363 20.3133 4.86774 20.0499 4.3989 19.5811C3.93006 19.1123 3.66667 18.4764 3.66667 17.8133V2.83333C3.66667 2.61232 3.57887 2.40036 3.42259 2.24408C3.26631 2.0878 3.05435 2 2.83333 2C2.61232 2 2.40036 2.0878 2.24408 2.24408C2.0878 2.40036 2 2.61232 2 2.83333V17.8133C2.00132 18.918 2.44073 19.977 3.22185 20.7582C4.00296 21.5393 5.062 21.9787 6.16667 21.98H21.1667C21.3877 21.98 21.5996 21.8922 21.7559 21.7359C21.9122 21.5796 22 21.3677 22 21.1467C22 20.9257 21.9122 20.7137 21.7559 20.5574C21.5996 20.4011 21.3877 20.3133 21.1667 20.3133Z" fill="#919191"/>
    </svg>    