<svg width="30" height="30" viewBox="0 0 30 30" fill="none" xmlns="http://www.w3.org/2000/svg">
<path d="M18.2083 0.25293H4.79167C3.5213 0.254451 2.30341 0.759775 1.40513 1.65806C0.506845 2.55634 0.0015217 3.77423 0 5.0446L0 18.4613C0.0015217 19.7316 0.506845 20.9495 1.40513 21.8478C2.30341 22.7461 3.5213 23.2514 4.79167 23.2529H18.2083C19.4787 23.2514 20.6966 22.7461 21.5949 21.8478C22.4932 20.9495 22.9985 19.7316 23 18.4613V5.0446C22.9985 3.77423 22.4932 2.55634 21.5949 1.65806C20.6966 0.759775 19.4787 0.254451 18.2083 0.25293V0.25293ZM4.79167 2.1696H18.2083C18.9708 2.1696 19.7021 2.4725 20.2413 3.01166C20.7804 3.55083 21.0833 4.2821 21.0833 5.0446V18.4613C21.0817 18.8882 20.9834 19.3092 20.7958 19.6927L12.0146 10.9115C11.5697 10.4664 11.0414 10.1134 10.4599 9.87248C9.87851 9.6316 9.25532 9.50762 8.62596 9.50762C7.9966 9.50762 7.37341 9.6316 6.79198 9.87248C6.21054 10.1134 5.68226 10.4664 5.23729 10.9115L1.91667 14.2312V5.0446C1.91667 4.2821 2.21957 3.55083 2.75873 3.01166C3.2979 2.4725 4.02917 2.1696 4.79167 2.1696ZM4.79167 21.3363C4.02917 21.3363 3.2979 21.0334 2.75873 20.4942C2.21957 19.955 1.91667 19.2238 1.91667 18.4613V16.9413L6.59142 12.2666C6.85841 11.9994 7.17543 11.7875 7.52436 11.6429C7.87329 11.4983 8.24729 11.4239 8.625 11.4239C9.00271 11.4239 9.37671 11.4983 9.72564 11.6429C10.0746 11.7875 10.3916 11.9994 10.6586 12.2666L19.4398 21.0488C19.0563 21.2363 18.6353 21.3346 18.2083 21.3363H4.79167Z" fill="#A1A7AD"/>
<path d="M15.3337 10.3148C15.9971 10.3148 16.6455 10.1181 17.1971 9.7495C17.7487 9.38094 18.1786 8.85709 18.4325 8.2442C18.6864 7.6313 18.7528 6.95689 18.6234 6.30625C18.494 5.6556 18.1745 5.05795 17.7054 4.58886C17.2363 4.11977 16.6387 3.80032 15.988 3.6709C15.3374 3.54147 14.663 3.6079 14.0501 3.86177C13.4372 4.11564 12.9133 4.54555 12.5448 5.09714C12.1762 5.64873 11.9795 6.29722 11.9795 6.96061C11.9795 7.85019 12.3329 8.70334 12.9619 9.33237C13.5909 9.9614 14.4441 10.3148 15.3337 10.3148ZM15.3337 5.52311C15.618 5.52311 15.8959 5.60742 16.1323 5.76538C16.3687 5.92333 16.5529 6.14784 16.6617 6.41051C16.7705 6.67317 16.799 6.96221 16.7435 7.24106C16.6881 7.5199 16.5512 7.77604 16.3501 7.97708C16.1491 8.17812 15.8929 8.31503 15.6141 8.37049C15.3353 8.42596 15.0462 8.39749 14.7836 8.28869C14.5209 8.17989 14.2964 7.99564 14.1384 7.75925C13.9805 7.52285 13.8962 7.24492 13.8962 6.96061C13.8962 6.57936 14.0476 6.21373 14.3172 5.94415C14.5868 5.67456 14.9524 5.52311 15.3337 5.52311Z" fill="#A1A7AD"/>
<path d="M26.333 19.2529H23.333V16.2529C23.333 15.7225 23.1223 15.2138 22.7472 14.8387C22.3721 14.4636 21.8634 14.2529 21.333 14.2529C20.8026 14.2529 20.2939 14.4636 19.9188 14.8387C19.5437 15.2138 19.333 15.7225 19.333 16.2529V19.2529H16.333C15.8026 19.2529 15.2939 19.4636 14.9188 19.8387C14.5437 20.2138 14.333 20.7225 14.333 21.2529C14.333 21.7834 14.5437 22.2921 14.9188 22.6671C15.2939 23.0422 15.8026 23.2529 16.333 23.2529H19.333V26.2529C19.333 26.7834 19.5437 27.2921 19.9188 27.6671C20.2939 28.0422 20.8026 28.2529 21.333 28.2529C21.8634 28.2529 22.3721 28.0422 22.7472 27.6671C23.1223 27.2921 23.333 26.7834 23.333 26.2529V23.2529H26.333C26.8634 23.2529 27.3721 23.0422 27.7472 22.6671C28.1223 22.2921 28.333 21.7834 28.333 21.2529C28.333 20.7225 28.1223 20.2138 27.7472 19.8387C27.3721 19.4636 26.8634 19.2529 26.333 19.2529Z" fill="#A1A7AD" stroke="white" stroke-width="2"/>
</svg>
