<svg width="38" height="30" viewBox="0 0 38 30" fill="none" xmlns="http://www.w3.org/2000/svg">
<path d="M27.333 28.3334H35.6663V25.0001C35.6663 22.2386 33.4278 20.0001 30.6663 20.0001C29.0737 20.0001 27.6548 20.7447 26.7393 21.9049M27.333 28.3334L26.7393 21.9049M27.333 28.3334H10.6663M27.333 28.3334V25.0001C27.333 23.9064 27.1223 22.8617 26.7393 21.9049M26.7393 21.9049C25.5105 18.8351 22.5083 16.6667 18.9997 16.6667C15.491 16.6667 12.4888 18.8351 11.2601 21.9049M10.6663 28.3334H2.33301V25.0001C2.33301 22.2386 4.57159 20.0001 7.33301 20.0001C8.92569 20.0001 10.3444 20.7447 11.2601 21.9049M10.6663 28.3334L11.2601 21.9049M10.6663 28.3334V25.0001C10.6663 23.9064 10.877 22.8617 11.2601 21.9049M23.9997 6.66675C23.9997 9.42816 21.7612 11.6667 18.9997 11.6667C16.2382 11.6667 13.9997 9.42816 13.9997 6.66675C13.9997 3.90533 16.2382 1.66675 18.9997 1.66675C21.7612 1.66675 23.9997 3.90533 23.9997 6.66675ZM33.9997 11.6667C33.9997 13.5077 32.5073 15.0001 30.6663 15.0001C28.8253 15.0001 27.333 13.5077 27.333 11.6667C27.333 9.8258 28.8253 8.33341 30.6663 8.33341C32.5073 8.33341 33.9997 9.8258 33.9997 11.6667ZM10.6663 11.6667C10.6663 13.5077 9.17396 15.0001 7.33301 15.0001C5.49206 15.0001 3.99967 13.5077 3.99967 11.6667C3.99967 9.8258 5.49206 8.33341 7.33301 8.33341C9.17396 8.33341 10.6663 9.8258 10.6663 11.6667Z" stroke="#5985AA" stroke-width="3" stroke-linecap="round" stroke-linejoin="round"/>
</svg>
