<svg width="48" height="47" viewBox="0 0 48 47" fill="none" xmlns="http://www.w3.org/2000/svg">
    <path d="M35.4239 3.91699H12.5767C10.4134 3.91958 8.33947 4.7801 6.80978 6.30978C5.2801 7.83947 4.41958 9.91342 4.41699 12.0767L4.41699 34.9239C4.41958 37.0872 5.2801 39.1612 6.80978 40.6909C8.33947 42.2206 10.4134 43.0811 12.5767 43.0837H35.4239C37.5872 43.0811 39.6612 42.2206 41.1909 40.6909C42.7206 39.1612 43.5811 37.0872 43.5837 34.9239V12.0767C43.5811 9.91342 42.7206 7.83947 41.1909 6.30978C39.6612 4.7801 37.5872 3.91958 35.4239 3.91699V3.91699ZM12.5767 7.18088H35.4239C36.7224 7.18088 37.9677 7.69669 38.8858 8.61484C39.804 9.53298 40.3198 10.7783 40.3198 12.0767V34.9239C40.317 35.6509 40.1496 36.3679 39.8302 37.021L24.8767 22.0675C24.119 21.3096 23.2193 20.7083 22.2292 20.2981C21.2391 19.8879 20.1779 19.6768 19.1061 19.6768C18.0344 19.6768 16.9732 19.8879 15.983 20.2981C14.9929 20.7083 14.0933 21.3096 13.3356 22.0675L7.68088 27.7205V12.0767C7.68088 10.7783 8.19669 9.53298 9.11484 8.61484C10.033 7.69669 11.2783 7.18088 12.5767 7.18088ZM12.5767 39.8198C11.2783 39.8198 10.033 39.304 9.11484 38.3858C8.19669 37.4677 7.68088 36.2224 7.68088 34.9239V32.3357L15.6415 24.375C16.0962 23.9201 16.636 23.5592 17.2302 23.313C17.8244 23.0667 18.4613 22.94 19.1045 22.94C19.7477 22.94 20.3846 23.0667 20.9788 23.313C21.573 23.5592 22.1128 23.9201 22.5675 24.375L37.521 39.3302C36.8679 39.6496 36.1509 39.817 35.4239 39.8198H12.5767Z" fill="#A1A7AD"/>
    <path d="M30.5292 21.0525C31.6589 21.0525 32.7632 20.7175 33.7025 20.0899C34.6418 19.4623 35.3739 18.5702 35.8062 17.5265C36.2385 16.4828 36.3516 15.3344 36.1312 14.2264C35.9109 13.1184 35.3669 12.1007 34.568 11.3019C33.7692 10.503 32.7515 9.95905 31.6435 9.73866C30.5355 9.51827 29.3871 9.63138 28.3434 10.0637C27.2997 10.496 26.4076 11.2281 25.78 12.1674C25.1524 13.1067 24.8174 14.211 24.8174 15.3407C24.8174 16.8556 25.4192 18.3084 26.4903 19.3796C27.5615 20.4507 29.0143 21.0525 30.5292 21.0525ZM30.5292 12.8928C31.0133 12.8928 31.4866 13.0364 31.8892 13.3053C32.2917 13.5743 32.6055 13.9566 32.7908 14.4039C32.976 14.8512 33.0245 15.3434 32.9301 15.8183C32.8356 16.2931 32.6025 16.7293 32.2601 17.0717C31.9178 17.414 31.4816 17.6471 31.0068 17.7416C30.5319 17.836 30.0397 17.7876 29.5924 17.6023C29.1451 17.417 28.7628 17.1033 28.4938 16.7007C28.2248 16.2981 28.0813 15.8249 28.0813 15.3407C28.0813 14.6915 28.3392 14.0688 28.7983 13.6098C29.2573 13.1507 29.88 12.8928 30.5292 12.8928Z" fill="#A1A7AD"/>
</svg>    