<svg width="16" height="17" viewBox="0 0 16 17" fill="none" xmlns="http://www.w3.org/2000/svg">
<path d="M7.99976 1.49994C6.61529 1.49994 5.26191 1.91048 4.11077 2.67965C2.95962 3.44882 2.06242 4.54207 1.5326 5.82115C1.00279 7.10024 0.864166 8.5077 1.13426 9.86557C1.40436 11.2234 2.07104 12.4707 3.05001 13.4497C4.02898 14.4287 5.27626 15.0953 6.63413 15.3654C7.99199 15.6355 9.39946 15.4969 10.6785 14.9671C11.9576 14.4373 13.0509 13.5401 13.82 12.3889C14.5892 11.2378 14.9998 9.88441 14.9998 8.49994C14.9977 6.64404 14.2596 4.86473 12.9473 3.55241C11.635 2.24009 9.85566 1.50195 7.99976 1.49994V1.49994ZM7.99976 14.3333C6.84603 14.3333 5.71822 13.9912 4.75893 13.3502C3.79965 12.7092 3.05197 11.7982 2.61046 10.7323C2.16895 9.66636 2.05343 8.49347 2.27851 7.36191C2.50359 6.23036 3.05916 5.19096 3.87497 4.37515C4.69077 3.55934 5.73018 3.00377 6.86173 2.77869C7.99329 2.55361 9.16617 2.66913 10.2321 3.11064C11.298 3.55215 12.209 4.29983 12.85 5.25911C13.491 6.2184 13.8331 7.34621 13.8331 8.49994C13.8314 10.0465 13.2163 11.5293 12.1227 12.6229C11.0291 13.7164 9.54633 14.3316 7.99976 14.3333Z" fill="#F5993F"/>
<path d="M8.00008 4.41669C7.84537 4.41669 7.697 4.47815 7.5876 4.58754C7.47821 4.69694 7.41675 4.84531 7.41675 5.00002V9.66669C7.41675 9.82139 7.47821 9.96977 7.5876 10.0792C7.697 10.1886 7.84537 10.25 8.00008 10.25C8.15479 10.25 8.30317 10.1886 8.41256 10.0792C8.52196 9.96977 8.58342 9.82139 8.58342 9.66669V5.00002C8.58342 4.84531 8.52196 4.69694 8.41256 4.58754C8.30317 4.47815 8.15479 4.41669 8.00008 4.41669Z" fill="#F5993F"/>
<path d="M8.58342 12.0001C8.58342 11.6779 8.32225 11.4167 8.00008 11.4167C7.67792 11.4167 7.41675 11.6779 7.41675 12.0001C7.41675 12.3222 7.67792 12.5834 8.00008 12.5834C8.32225 12.5834 8.58342 12.3222 8.58342 12.0001Z" fill="#F5993F"/>
</svg>
