<svg width="337" height="234" viewBox="0 0 337 234" fill="none" xmlns="http://www.w3.org/2000/svg">
    <mask id="mask0_1665_14422" style="mask-type:luminance" maskUnits="userSpaceOnUse" x="0" y="0" width="337" height="234">
    <path d="M70.8832 19.3923C53.7601 28.0692 38.4462 40.002 26.0784 55.862C-4.12961 94.5983 -10.3469 151.226 19.4123 192.027C47.1954 230.123 95.0797 239.967 139.183 229.614C177.715 220.569 210.316 196.335 250.72 193.99C260.71 193.41 270.91 193.224 280.676 190.832C319.179 181.401 339.823 139.388 336.688 102.105C332.382 50.9093 290.977 24.4909 245.57 11.7617C192 -3.25473 123.049 -7.04011 70.886 19.3923H70.8832Z" fill="white"/>
    </mask>
    <g mask="url(#mask0_1665_14422)">
    <path d="M70.8832 19.3923C53.7601 28.0692 38.4462 40.002 26.0784 55.862C-4.12961 94.5983 -10.3469 151.226 19.4123 192.027C47.1954 230.123 95.0797 239.967 139.183 229.614C177.715 220.569 210.316 196.335 250.72 193.99C260.71 193.41 270.91 193.224 280.676 190.832C319.179 181.401 339.823 139.388 336.688 102.105C332.382 50.9093 290.977 24.4909 245.57 11.7617C192 -3.25473 123.049 -7.04011 70.886 19.3923H70.8832Z" fill="black" fill-opacity="0.3"/>
    <mask id="mask1_1665_14422" style="mask-type:luminance" maskUnits="userSpaceOnUse" x="0" y="0" width="337" height="234">
    <path d="M70.8832 19.3923C53.7601 28.0692 38.4462 40.002 26.0784 55.862C-4.12961 94.5983 -10.3469 151.226 19.4123 192.027C47.1954 230.123 95.0797 239.967 139.183 229.614C177.715 220.569 210.316 196.335 250.72 193.99C260.71 193.41 270.91 193.224 280.676 190.832C319.179 181.401 339.823 139.388 336.688 102.105C332.382 50.9093 290.977 24.4909 245.57 11.7617C192 -3.25473 123.049 -7.04011 70.886 19.3923H70.8832Z" fill="white"/>
    </mask>
    <g mask="url(#mask1_1665_14422)">
    <path opacity="0.48" d="M-12.3645 172.393C-6.52106 154 7.18081 138.25 24.5875 129.913C41.9941 121.578 62.854 120.778 80.8485 127.755C106.788 137.813 124.736 162.102 149.682 174.419C176.389 187.607 209.353 185.331 235.707 171.451C256.138 160.691 273.035 143.551 294.557 135.19C315.049 127.229 337.749 127.983 359.709 128.992C355.098 145.787 343.602 159.593 331.384 172.007C311.505 192.205 287.955 210.379 260.229 216.246C241.531 220.203 222.053 218.321 203.172 221.289C181.725 224.661 161.809 234.143 141.263 241.158C120.717 248.173 98.1106 252.72 77.4633 246.01C67.0452 242.623 57.7387 236.554 48.6144 230.491C24.8181 214.679 3.20226 196.352 -12.3645 172.395V172.393Z" fill="#041723"/>
    </g>
    <path d="M258.42 43.2302C258.42 43.2302 251.662 33.4346 254.704 30.2259C257.746 27.0172 261.716 27.5064 262.44 29.8576C263.164 32.2089 268.269 40.0215 268.269 40.0215L258.418 43.2302H258.42Z" fill="#FFB2A0"/>
    <path d="M261.35 38.828C261.35 38.828 243.55 46.4627 247.846 54.2961C247.846 54.2961 244.684 62.2476 253.229 63.6831C253.229 63.6831 252.237 69.2028 258.011 69.257C258.011 69.257 258.383 75.7758 264.859 74.6363C271.335 73.4968 275.408 63.9527 286.292 60.562C287.804 60.0909 322.8 52.4701 322.8 52.4701L315.139 31.5171L273.585 41.5142C273.585 41.5142 269.485 35.7472 261.352 38.828H261.35Z" fill="#FFD1C1"/>
    <mask id="mask2_1665_14422" style="mask-type:luminance" maskUnits="userSpaceOnUse" x="247" y="31" width="76" height="44">
    <path d="M261.35 38.828C261.35 38.828 243.55 46.4627 247.846 54.2961C247.846 54.2961 244.684 62.2476 253.229 63.6831C253.229 63.6831 252.237 69.2028 258.011 69.257C258.011 69.257 258.383 75.7758 264.859 74.6363C271.335 73.4968 275.408 63.9527 286.292 60.562C287.804 60.0909 322.8 52.4701 322.8 52.4701L315.139 31.5171L273.585 41.5142C273.585 41.5142 269.485 35.7472 261.352 38.828H261.35Z" fill="white"/>
    </mask>
    <g mask="url(#mask2_1665_14422)">
    <path d="M247.821 49.1806C247.821 49.1806 247.48 52.9951 250.515 51.5194L254.708 49.2904C254.708 49.2904 248.545 54.8545 250.335 57.9756C252.125 61.0968 255.599 60.6924 259.29 58.6635C259.29 58.6635 254.379 63.3327 255.872 65.4769C255.872 65.4769 257.529 68.0561 261.645 65.0781C261.645 65.0781 259.705 68.926 261.295 71.5441C262.885 74.1622 264.672 74.8292 267.869 73.4729C267.869 73.4729 264.295 77.2347 260.286 75.4754C256.277 73.7161 256.252 70.2878 256.252 70.2878C256.252 70.2878 251.213 68.2423 249.644 64.4597C249.644 64.4597 245.372 58.7038 245.86 55.2464C245.86 55.2464 244.536 52.1211 247.821 49.1792" fill="#FFB2A0"/>
    <path d="M281.007 62.9171C281.007 62.9171 285.829 60.8549 284.96 54.311C284.96 54.311 288.296 58.5161 295.076 57.0528C301.854 55.5895 308.458 55.6062 308.458 55.6062L307.857 57.8032C307.857 57.8032 284.538 61.2287 281.007 62.9185" fill="#FFB2A0"/>
    <path d="M273.585 41.5143C273.585 41.5143 278.626 47.6898 279.749 49.816C279.749 49.816 281.035 43.7335 276.385 39.6216L273.583 41.5143" fill="#FFB2A0"/>
    </g>
    <path d="M41.0281 73.045C41.0281 73.045 43.799 57.8492 45.6083 57.6477C47.4177 57.4462 52.9554 60.0296 53.4918 63.7038C54.0282 67.378 52.1897 77.6169 52.1897 77.6169L41.0295 73.045H41.0281Z" fill="#FFB2A0"/>
    <path d="M31.7859 77.7879C31.7859 77.7879 36.9831 68.2175 42.5973 70.0907C48.2114 71.9653 62.9444 78.3257 62.8193 81.1856C62.6262 85.606 59.4119 85.2864 59.4119 85.2864C59.4119 85.2864 63.8115 88.345 62.0564 91.865C60.3013 95.3849 57.3288 95.7379 57.3288 95.7379C57.3288 95.7379 57.7666 101.57 54.1952 102.619C54.1952 102.619 51.1283 111.256 45.6336 110.104C40.139 108.952 25.3046 101.463 24.3652 97.6237L-5.78589 98.7771L-0.248167 75.2921C-0.248167 75.2921 30.0766 78.7051 31.7872 77.7865L31.7859 77.7879Z" fill="#FFD1C1"/>
    <mask id="mask3_1665_14422" style="mask-type:luminance" maskUnits="userSpaceOnUse" x="-6" y="69" width="69" height="42">
    <path d="M31.7859 77.7879C31.7859 77.7879 36.9831 68.2175 42.5973 70.0907C48.2114 71.9653 62.9444 78.3257 62.8193 81.1856C62.6262 85.606 59.4119 85.2864 59.4119 85.2864C59.4119 85.2864 63.8115 88.345 62.0564 91.865C60.3013 95.3849 57.3288 95.7379 57.3288 95.7379C57.3288 95.7379 57.7666 101.57 54.1952 102.619C54.1952 102.619 51.1283 111.256 45.6336 110.104C40.139 108.952 25.3046 101.463 24.3652 97.6237L-5.78589 98.7771L-0.248167 75.2921C-0.248167 75.2921 30.0766 78.7051 31.7872 77.7865L31.7859 77.7879Z" fill="white"/>
    </mask>
    <g mask="url(#mask3_1665_14422)">
    <path d="M60.6247 77.3252C60.6247 77.3252 60.3718 81.6067 58.6487 83.1117C56.9269 84.6166 52.6023 82.4516 52.6023 82.4516C52.6023 82.4516 60.0647 87.5613 60.0133 90.3837C59.9633 93.206 50.076 92.4723 50.076 92.4723C50.076 92.4723 56.2751 96.0381 55.9514 97.4069C55.6276 98.7743 53.7335 101.473 52.8108 101.412C51.8881 101.349 45.24 99.6526 45.24 99.6526C45.24 99.6526 51.6977 103.167 51.1154 104.587C50.5331 106.007 44.4326 110.299 44.4326 110.299C44.4326 110.299 48.9726 112.711 51.7032 110.671C54.4339 108.631 60.5691 98.6673 60.5691 98.6673C60.5691 98.6673 66.4751 85.2142 66.7767 83.1269C67.0782 81.0397 60.6233 77.3266 60.6233 77.3266L60.6247 77.3252Z" fill="#FFB2A0"/>
    <path d="M30.9657 103.524C30.9657 103.524 25.9102 98.7342 30.5349 90.8772C35.1596 83.0202 44.5953 70.2869 44.5953 70.2869C44.5953 70.2869 40.607 67.434 37.1232 69.7574C33.6393 72.0809 27.6583 82.103 27.6583 82.103L9.21777 100.337L23.3824 98.2618C23.3824 98.2618 28.2142 103.334 30.9643 103.523" fill="#FFB2A0"/>
    </g>
    <path d="M49.2964 158.113C49.2964 158.113 48.3306 142.701 52.2508 142.701C56.171 142.701 57.7065 144.575 58.5584 147.134C59.4102 149.691 59.5811 157.021 59.5811 157.021L49.2964 158.113Z" fill="#FFB2A0"/>
    <path d="M47.9 194.392C47.9 194.392 57.1147 200.118 61.8672 186.78C61.8672 186.78 67.5398 187.853 67.3855 181.415C67.3855 181.415 72.4438 181.262 72.7509 173.29C72.7509 173.29 77.5035 169.457 75.0508 163.172C75.0508 163.172 76.8907 158.419 73.2109 156.274C69.5311 154.128 53.4349 153.208 49.2965 158.114C45.1568 163.019 35.9588 183.408 35.9588 183.408L3.91919 221.12L28.6006 241.049L47.9 194.39V194.392Z" fill="#FFD1C1"/>
    <mask id="mask4_1665_14422" style="mask-type:luminance" maskUnits="userSpaceOnUse" x="3" y="154" width="73" height="88">
    <path d="M47.9 194.392C47.9 194.392 57.1147 200.118 61.8672 186.78C61.8672 186.78 67.5398 187.853 67.3855 181.415C67.3855 181.415 72.4438 181.262 72.7509 173.29C72.7509 173.29 77.5035 169.457 75.0508 163.172C75.0508 163.172 76.8907 158.419 73.2109 156.274C69.5311 154.128 53.4349 153.208 49.2965 158.114C45.1568 163.019 35.9588 183.408 35.9588 183.408L3.91919 221.12L28.6006 241.049L47.9 194.39V194.392Z" fill="white"/>
    </mask>
    <g mask="url(#mask4_1665_14422)">
    <path d="M41.4631 168.632C41.4631 168.632 47.0508 184.578 61.8672 186.78C61.8672 186.78 62.5717 192.471 54.7425 196.633C49.1909 199.585 48.1806 204.398 48.1806 204.398C48.1806 204.398 13.5632 221.18 8.58276 214.25L33.1614 182.058L41.4645 168.63L41.4631 168.632Z" fill="#FFB2A0"/>
    <path d="M69.9299 154.538C69.9299 154.538 74.0433 159.144 72.4299 161.805C70.8165 164.467 61.3823 162.128 63.5598 163.258C65.7374 164.386 72.6717 164.144 72.9955 165.435C73.3179 166.725 74.9313 170.919 71.0597 171.563C67.1896 172.208 60.4151 171.805 60.9793 172.208C61.5434 172.611 70.0911 172.934 70.3329 173.741C70.5747 174.547 69.4463 179.386 68.0748 180.031C66.7032 180.675 60.4137 181.32 60.0107 181.483C59.6077 181.644 67.833 183.338 67.833 183.338C67.833 183.338 71.5419 181.563 73.1553 178.66C74.7687 175.757 75.1717 173.58 75.1717 173.58C75.1717 173.58 77.9134 166.564 76.4613 162.371C76.4613 162.371 78.7194 155.819 69.9299 154.539V154.538Z" fill="#FFB2A0"/>
    </g>
    <path d="M291.915 133.244C291.915 133.244 294.987 121.446 299.435 121.189C303.884 120.932 304.033 125.949 303.561 126.967C303.088 127.986 299.772 136.809 299.772 136.809L291.914 133.244H291.915Z" fill="#FFB2A0"/>
    <path d="M338.388 155.9C338.388 155.9 308.698 144.842 306.782 141.853C304.866 138.864 305.39 131.905 300.811 129.483C296.23 127.06 285.204 124.951 282.558 126.127C279.912 127.302 281.6 130.785 281.6 130.785C281.6 130.785 274.876 132.02 277.574 138.824C277.574 138.824 274.983 141.825 277.562 146.621C277.562 146.621 274.38 150.248 277.779 153.925C281.178 157.601 302.516 158.186 302.516 158.186C302.516 158.186 324.408 181.536 328.481 179.222C332.554 176.908 338.388 155.901 338.388 155.901V155.9Z" fill="#FFD1C1"/>
    <mask id="mask5_1665_14422" style="mask-type:luminance" maskUnits="userSpaceOnUse" x="276" y="125" width="63" height="55">
    <path d="M338.388 155.9C338.388 155.9 308.698 144.842 306.782 141.853C304.866 138.864 305.39 131.905 300.811 129.483C296.23 127.06 285.204 124.951 282.558 126.127C279.912 127.302 281.6 130.785 281.6 130.785C281.6 130.785 274.876 132.02 277.574 138.824C277.574 138.824 274.983 141.825 277.562 146.621C277.562 146.621 274.38 150.248 277.779 153.925C281.178 157.601 302.516 158.186 302.516 158.186C302.516 158.186 324.408 181.536 328.481 179.222C332.554 176.908 338.388 155.901 338.388 155.901V155.9Z" fill="white"/>
    </mask>
    <g mask="url(#mask5_1665_14422)">
    <path d="M284.297 125.791C284.297 125.791 282.941 128.346 284.402 129.493C285.862 130.641 288.993 131.371 288.993 131.371C288.993 131.371 281.064 131.684 280.646 134.188C280.229 136.692 280.541 137.213 282.733 138.048C284.924 138.883 287.637 139.613 287.637 139.613C287.637 139.613 279.185 141.178 279.708 145.665C280.229 150.152 285.028 149.838 285.028 149.838C285.028 149.838 277.308 151.298 280.333 156.202C280.333 156.202 274.385 156.515 273.968 152.133C273.551 147.752 271.256 136.483 273.551 131.684C275.847 126.884 284.716 124.067 284.716 124.067L284.299 125.79" fill="#FFB2A0"/>
    <path d="M302.702 131.025C302.702 131.025 304.429 138.166 302.949 141.706C301.469 145.245 296.836 153.804 293.811 154.77C290.786 155.736 284.737 157.215 284.737 157.215L301.983 159.146L308.483 164.293C308.483 164.293 306.489 155.863 306.423 153.74C306.359 151.617 308.29 141.513 308.29 141.513C308.29 141.513 306.423 138.166 305.973 137.266C305.523 136.365 304.593 132.567 302.7 131.025" fill="#FFB2A0"/>
    </g>
    <path d="M179.385 62.0573C178.982 62.0573 178.592 62.1282 178.219 62.2588C176.914 47.6342 168.91 40.4233 159.177 40.4233C149.444 40.4233 140.793 48.1456 139.924 63.8152C139.658 63.7513 139.386 63.7151 139.106 63.7151C136.574 63.7151 134.522 66.4763 134.522 69.8823C134.522 73.2884 136.574 76.0496 139.106 76.0496C139.65 76.0496 140.169 75.9217 140.653 75.6883C141.95 82.8227 144.729 88.9038 148.402 92.9601L145.891 117.258H172.361L169.984 92.81C173.868 88.4424 176.732 81.7985 177.868 74.0443C178.343 74.2681 178.853 74.3917 179.385 74.3917C181.917 74.3917 183.97 71.6305 183.97 68.2245C183.97 64.8185 181.917 62.0573 179.385 62.0573Z" fill="#FFD1C1"/>
    <mask id="mask6_1665_14422" style="mask-type:luminance" maskUnits="userSpaceOnUse" x="134" y="40" width="50" height="78">
    <path d="M179.385 62.0573C178.982 62.0573 178.592 62.1282 178.219 62.2588C176.914 47.6342 168.91 40.4233 159.177 40.4233C149.444 40.4233 140.793 48.1456 139.924 63.8152C139.658 63.7513 139.386 63.7151 139.106 63.7151C136.574 63.7151 134.522 66.4763 134.522 69.8823C134.522 73.2884 136.574 76.0496 139.106 76.0496C139.65 76.0496 140.169 75.9217 140.653 75.6883C141.95 82.8227 144.729 88.9038 148.402 92.9601L145.891 117.258H172.361L169.984 92.81C173.868 88.4424 176.732 81.7985 177.868 74.0443C178.343 74.2681 178.853 74.3917 179.385 74.3917C181.917 74.3917 183.97 71.6305 183.97 68.2245C183.97 64.8185 181.917 62.0573 179.385 62.0573Z" fill="white"/>
    </mask>
    <g mask="url(#mask6_1665_14422)">
    <path d="M140.948 64.2343L140.183 68.8285C140.183 68.8285 138.766 64.1857 136.415 63.7146C136.415 63.7146 138.985 62.482 140.948 64.2343Z" fill="#FFB2A0"/>
    <path d="M177.409 62.8533L177.232 68.184C177.232 68.184 179.573 63.9331 182.413 63.1994C182.413 63.1994 180.776 61.2191 177.409 62.8533Z" fill="#FFB2A0"/>
    <path d="M138.476 58.58C138.476 58.58 137.903 74.1899 177.233 68.1838L177.409 50.2894L156.927 46.29L138.476 58.58Z" fill="#FFB2A0"/>
    </g>
    <path d="M226.444 167.485C226.444 167.485 218.813 111.395 168.168 107.333L168.187 107.389C167.641 107.352 167.09 107.333 166.535 107.333H153.837C153.324 107.333 152.814 107.35 152.308 107.382L152.325 107.333C101.679 111.396 92.2754 167.524 92.2754 167.524L124.354 172.917L117.61 233.468H204.882L196.89 172.791L226.444 167.485Z" fill="#FFC967"/>
    <mask id="mask7_1665_14422" style="mask-type:luminance" maskUnits="userSpaceOnUse" x="92" y="107" width="135" height="127">
    <path d="M226.444 167.485C226.444 167.485 218.813 111.395 168.168 107.333L168.187 107.389C167.641 107.352 167.09 107.333 166.535 107.333H153.837C153.324 107.333 152.814 107.35 152.308 107.382L152.325 107.333C101.679 111.396 92.2754 167.524 92.2754 167.524L124.354 172.917L117.61 233.468H204.882L196.89 172.791L226.444 167.485Z" fill="white"/>
    </mask>
    <g mask="url(#mask7_1665_14422)">
    <path d="M106.812 122.109C106.812 122.109 130.265 183.477 205.466 182.759L214.029 217.034C214.029 217.034 136.595 248.312 103.834 241.05L116.491 164.916L106.812 122.111" fill="#FFA648"/>
    <path d="M131.26 111.448C131.26 111.448 147.149 122.675 149.741 122.243C152.331 121.81 155.023 113.952 155.023 113.952L152.505 110.671C152.505 110.671 152.677 116.37 148.532 115.161C144.387 113.952 135.492 108.77 135.492 108.77L131.26 111.446V111.448Z" fill="#FFA648"/>
    <path d="M161.409 113.146C161.409 113.146 162.662 122.959 166.107 122.897C169.552 122.834 190.916 112.873 190.916 112.873L188.327 111.057C188.327 111.057 168.487 118.011 167.861 117.573C167.234 117.134 164.352 111.559 164.352 111.559L161.407 113.147L161.409 113.146Z" fill="#FFA648"/>
    </g>
    <path d="M116.393 79.8333C116.393 79.8333 113.996 67.5697 114.817 66.7471C115.638 65.9244 118.683 66.5011 119.857 68.2701C120.385 69.065 123.36 76.4773 123.36 76.4773L116.391 79.8319L116.393 79.8333Z" fill="#FFB2A0"/>
    <path d="M111.804 106.514L91.6291 169.54C91.3067 170.696 91.076 171.879 90.9871 173.077C90.6439 177.753 92.1169 182.422 95.1602 186.078C100.187 192.115 108.513 194.255 115.828 191.39C120.203 189.676 123.2 185.598 123.531 180.912L129.522 96.1352C131.684 93.9702 133.191 91.0867 133.605 87.739C134.087 83.8397 134.495 80.442 134.569 79.536C134.768 77.1111 129.102 73.1089 124.983 73.1089C123.189 73.1089 115.951 75.7992 115.354 77.9282C114.854 79.718 112.767 90.2737 114.241 96.3409C114.466 97.2706 114.451 98.2419 114.159 99.1522L111.803 106.517" fill="#FFD1C1"/>
    <mask id="mask8_1665_14422" style="mask-type:luminance" maskUnits="userSpaceOnUse" x="90" y="73" width="45" height="120">
    <path d="M111.804 106.514L91.6291 169.54C91.3067 170.696 91.076 171.879 90.9871 173.077C90.6439 177.753 92.1169 182.422 95.1602 186.078C100.187 192.115 108.513 194.255 115.828 191.39C120.203 189.676 123.2 185.598 123.531 180.912L129.522 96.1352C131.684 93.9702 133.191 91.0867 133.605 87.739C134.087 83.8397 134.495 80.442 134.569 79.536C134.768 77.1111 129.102 73.1089 124.983 73.1089C123.189 73.1089 115.951 75.7992 115.354 77.9282C114.854 79.718 112.767 90.2737 114.241 96.3409C114.466 97.2706 114.451 98.2419 114.159 99.1522L111.803 106.517" fill="white"/>
    </mask>
    <g mask="url(#mask8_1665_14422)">
    <path d="M127.062 152.622C127.062 152.622 112.782 185.853 90.9399 186.676C90.9399 186.676 94.0986 196.467 107.991 195.78C121.883 195.093 129.523 188.252 129.523 188.252L127.062 152.62V152.622Z" fill="#FFB2A0"/>
    <path d="M129.587 74.3525C129.587 74.3525 133.537 78.156 133.132 79.9709C132.729 81.7871 128.644 83.2991 128.644 83.2991C128.644 83.2991 132.476 84.6109 132.881 85.4683C133.284 86.3257 130.863 90.3098 129.553 90.7642C128.241 91.2186 124.358 91.8231 124.358 91.8231C124.358 91.8231 129.503 93.0335 129.603 93.9409C129.703 94.8484 126.779 96.8661 126.779 96.8661L130.511 97.0676C130.511 97.0676 135.151 92.1761 135.554 87.7376C135.957 83.2991 136.412 77.0957 135.252 76.0882C134.091 75.0793 129.589 74.3525 129.589 74.3525" fill="#FFB2A0"/>
    </g>
    <path d="M129.523 96.134C129.523 96.134 119.165 97.8224 116.512 93.9897C116.512 93.9897 116.015 97.9155 120.026 99.1689C124.04 100.422 129.222 100.388 129.222 100.388L129.522 96.134H129.523Z" fill="#FFB2A0"/>
    <path d="M201.682 77.7781C201.682 77.7781 204.079 65.5146 203.258 64.6919C202.437 63.8692 199.392 64.4459 198.218 66.2149C197.69 67.0098 194.714 74.4222 194.714 74.4222L201.683 77.7768L201.682 77.7781Z" fill="#FFB2A0"/>
    <path d="M193.088 71.0522C194.882 71.0522 202.121 73.7426 202.716 75.8715C203.216 77.6614 205.303 88.2171 203.829 94.2843C203.604 95.2139 203.619 96.1853 203.911 97.0955L226.443 167.486C226.765 168.643 226.996 169.825 227.085 171.023C227.428 175.699 225.955 180.368 222.911 184.025C217.885 190.061 209.558 192.201 202.243 189.336C197.869 187.622 194.871 183.544 194.541 178.858L188.55 94.0814C186.388 91.9163 184.881 89.0328 184.467 85.6852C183.985 81.7858 183.576 78.3882 183.503 77.4821C183.304 75.0572 188.969 71.055 193.088 71.055V71.0522Z" fill="#FFD1C1"/>
    <mask id="mask9_1665_14422" style="mask-type:luminance" maskUnits="userSpaceOnUse" x="183" y="71" width="45" height="120">
    <path d="M193.088 71.0522C194.882 71.0522 202.121 73.7426 202.716 75.8715C203.216 77.6614 205.303 88.2171 203.829 94.2843C203.604 95.2139 203.619 96.1853 203.911 97.0955L226.443 167.486C226.765 168.643 226.996 169.825 227.085 171.023C227.428 175.699 225.955 180.368 222.911 184.025C217.885 190.061 209.558 192.201 202.243 189.336C197.869 187.622 194.871 183.544 194.541 178.858L188.55 94.0814C186.388 91.9163 184.881 89.0328 184.467 85.6852C183.985 81.7858 183.576 78.3882 183.503 77.4821C183.304 75.0572 188.969 71.055 193.088 71.055V71.0522Z" fill="white"/>
    </mask>
    <g mask="url(#mask9_1665_14422)">
    <path d="M191.89 141.343C191.89 141.343 200.863 187.208 214.547 192.647C214.547 192.647 194.914 195.894 188.551 183.08C182.188 170.266 191.89 141.343 191.89 141.343Z" fill="#FFB2A0"/>
    <path d="M188.842 71.7275C188.842 71.7275 184.806 73.8217 186.288 76.5301C187.769 79.2372 190.017 79.1357 190.017 79.1357C190.017 79.1357 186.033 79.9528 185.982 82.047C185.93 84.1412 186.39 85.9297 189.2 85.7254C192.01 85.5211 187.82 86.3382 187.82 88.2796C187.82 90.2209 191.243 91.2423 191.243 91.2423C191.243 91.2423 188.74 93.3879 188.332 94.5121C188.332 94.5121 184.653 93.7464 183.683 90.0166C182.713 86.2868 181.998 77.4501 182.406 76.3773C182.815 75.3045 186.136 72.4946 188.843 71.7289L188.842 71.7275Z" fill="#FFB2A0"/>
    </g>
    <path d="M188.55 94.0788C188.55 94.0788 198.908 95.7672 201.561 91.9346C201.561 91.9346 202.059 95.8603 198.047 97.1138C194.033 98.3672 188.851 98.3325 188.851 98.3325L188.551 94.0788H188.55Z" fill="#FFB2A0"/>
    <path d="M142.905 51.1037C142.905 51.1037 144.466 57.6267 157.302 58.58L150.995 52.4559C150.995 52.4559 161.302 56.7499 169.459 57.3655L162.131 50.2894C162.131 50.2894 170.554 56.8805 177.003 56.572C177.003 56.572 189.918 34.1001 160.175 32.6743C135.401 31.4876 142.905 51.1037 142.905 51.1037Z" fill="#373660"/>
    <path d="M140.948 64.2348L156.225 35.5401C156.225 35.5401 141.412 34.0559 136.626 46.0208C131.84 57.9856 136.213 65.0978 136.213 65.0978C136.213 65.0978 137.29 63.3065 140.946 64.2362L140.948 64.2348Z" fill="#373660"/>
    <path d="M177.409 62.8534L162.131 34.1587C162.131 34.1587 176.945 32.6746 181.731 44.6394C186.517 56.6042 182.278 63.4704 182.278 63.4704C182.278 63.4704 181.065 61.9238 177.41 62.8534H177.409Z" fill="#373660"/>
    <path d="M148.402 92.9616C148.402 92.9616 157.9 103.908 169.984 92.8115L170.161 94.6208C170.161 94.6208 159.908 108.623 147.59 100.823L148.403 92.963L148.402 92.9616Z" fill="#FFB2A0"/>
    <path d="M153.253 83.9802C153.253 83.9802 158.422 85.3282 164.71 83.0825C164.71 83.0825 164.077 88.7425 158.185 88.7245C153.859 88.7106 153.251 83.9816 153.251 83.9816L153.253 83.9802Z" fill="white"/>
    <path opacity="0.43" d="M156.734 67.9826C157.549 64.5309 155.411 61.0724 151.96 60.2577C148.508 59.443 145.049 61.5807 144.235 65.0324C143.42 68.4841 145.558 71.9426 149.009 72.7573C152.461 73.572 155.92 71.4343 156.734 67.9826Z" fill="white"/>
    <path opacity="0.43" d="M166.635 73.241C170.182 73.241 173.057 70.366 173.057 66.8195C173.057 63.273 170.182 60.3979 166.635 60.3979C163.089 60.3979 160.214 63.273 160.214 66.8195C160.214 70.366 163.089 73.241 166.635 73.241Z" fill="white"/>
    <path d="M144.058 66.9695C143.966 66.9695 143.874 66.9417 143.795 66.8833L140.685 64.5918C140.488 64.4473 140.446 64.1693 140.591 63.972C140.735 63.7747 141.013 63.733 141.21 63.8775L144.32 66.169C144.518 66.3136 144.559 66.5915 144.415 66.7888C144.329 66.9069 144.194 66.9695 144.058 66.9695Z" fill="#373660"/>
    <path d="M172.993 66.2646C172.85 66.2646 172.711 66.1965 172.624 66.0686C172.488 65.8658 172.542 65.5906 172.745 65.4544L177.162 62.4848C177.364 62.3486 177.64 62.4028 177.776 62.6057C177.912 62.8085 177.858 63.0837 177.655 63.2199L173.239 66.1895C173.162 66.241 173.077 66.2646 172.991 66.2646H172.993Z" fill="#373660"/>
    <path d="M160.201 66.9696H156.926C156.681 66.9696 156.482 66.7709 156.482 66.5263C156.482 66.2817 156.681 66.083 156.926 66.083H160.201C160.446 66.083 160.644 66.2817 160.644 66.5263C160.644 66.7709 160.446 66.9696 160.201 66.9696Z" fill="#373660"/>
    <path d="M161.243 116.751C162.442 115.426 163.608 113.857 163.796 113.131C164.156 111.74 161.639 107.333 161.639 107.333H156.336C156.336 107.333 152.381 111.649 153.64 113.717C154.152 114.558 154.916 115.561 155.703 116.463C154.761 123.834 147.596 180.114 147.987 183.449C148.407 187.018 158.695 199.826 158.695 199.826C158.695 199.826 167.933 186.6 168.353 181.561C168.739 176.921 162.267 124.943 161.242 116.752L161.243 116.751Z" fill="#4F5285"/>
    <path d="M155.704 116.461C155.704 116.461 157.302 117.114 161.243 116.749C161.243 116.749 157.802 117.135 157.666 119.528C157.53 121.92 152.412 178.874 154.038 182.001C155.664 185.128 162.131 194.595 162.131 194.595L158.696 199.823C158.696 199.823 148.841 188.281 147.989 183.446C147.137 178.613 153.857 128.011 155.704 116.46V116.461Z" fill="#373660"/>
    <path d="M156.337 107.333C156.337 107.333 152.094 118.518 150.324 118.943C148.555 119.369 133.727 111.537 133.727 111.537C133.727 111.537 139.897 108.04 146.916 107.334H156.337V107.333Z" fill="white"/>
    <path d="M161.639 107.333C161.639 107.333 164.587 119.899 167.028 119.734C169.47 119.569 188.327 112.167 188.327 112.167C188.327 112.167 182.78 108.941 173.075 107.901C173.075 107.901 167.843 106.93 161.639 107.333Z" fill="white"/>
    </g>
    <path d="M128.451 20.6613C128.451 9.52054 119.419 0.489258 108.278 0.489258H70.9013C59.7605 0.489258 50.7292 9.52054 50.7292 20.6613C50.7292 31.8021 59.7605 40.8333 70.9013 40.8333H108.278C108.36 40.8333 108.441 40.8278 108.523 40.8278L122.517 48.4235C124.509 49.5047 126.759 47.4911 125.903 45.3914L121.893 35.5444C125.921 31.8562 128.449 26.5548 128.449 20.6627L128.451 20.6613Z" fill="#FFC967"/>
    <path d="M69.3865 25.8306C72.2415 25.8306 74.556 23.5162 74.556 20.6612C74.556 17.8061 72.2415 15.4917 69.3865 15.4917C66.5315 15.4917 64.217 17.8061 64.217 20.6612C64.217 23.5162 66.5315 25.8306 69.3865 25.8306Z" fill="white"/>
    <path d="M89.5891 25.8306C92.4442 25.8306 94.7586 23.5162 94.7586 20.6612C94.7586 17.8061 92.4442 15.4917 89.5891 15.4917C86.7341 15.4917 84.4197 17.8061 84.4197 20.6612C84.4197 23.5162 86.7341 25.8306 89.5891 25.8306Z" fill="white"/>
    <path d="M109.792 25.8306C112.647 25.8306 114.961 23.5162 114.961 20.6612C114.961 17.8061 112.647 15.4917 109.792 15.4917C106.937 15.4917 104.622 17.8061 104.622 20.6612C104.622 23.5162 106.937 25.8306 109.792 25.8306Z" fill="white"/>
</svg>    