<svg width="254" height="258" viewBox="0 0 254 258" fill="none" xmlns="http://www.w3.org/2000/svg">
    <path
        d="M151.394 12.3383L58.397 32.4994C26.9648 39.3138 7.02109 70.259 13.8514 101.618L34.06 194.396C40.8903 225.755 71.9082 245.652 103.34 238.837L196.337 218.676C227.769 211.862 247.713 180.917 240.883 149.558L220.674 56.7795C213.844 25.4209 182.826 5.52394 151.394 12.3383Z"
        fill="#E4EFF7" />
    <path
        d="M187.203 44.8668C187.203 44.8668 186.674 44.694 185.714 42.9594C186.304 38.3598 182.312 37.9385 180.288 40.3795C180.653 35.8633 176.379 36.0601 175.536 36.7047C176.211 30.0842 162.911 27.4489 163.755 37.8275C161.281 36.9015 161.056 40.0705 161.618 40.6873C159.65 40.5196 158.216 42.5115 158.947 44.8668H187.203Z"
        fill="#DAE6EA" />
    <path
        d="M187.203 44.8669H190.905C189.218 44.5251 185.914 43.5083 185.714 42.9595C185.587 42.6252 186.308 44.3283 186.308 44.3283L187.203 44.8669Z"
        fill="#DAE6EA" />
    <path
        d="M158.947 44.8655H154.166C155.927 44.8655 158.797 42.4421 159.224 41.9123C159.651 41.3824 160.489 42.9909 160.432 43.1587C160.375 43.3265 158.947 44.8655 158.947 44.8655Z"
        fill="#DAE6EA" />
    <path
        d="M12.2622 54.0359C12.2622 54.0359 13.3219 53.689 15.2376 50.2274C14.0591 41.0434 22.0291 40.2045 26.0705 45.0765C25.3409 36.0604 33.8724 36.4515 35.5542 37.7395C34.2075 24.5237 60.7568 19.2631 59.0737 39.9825C64.0141 38.1318 64.463 44.4597 63.3401 45.6922C67.2689 45.3566 70.1317 49.3317 68.6725 54.0359H12.2622Z"
        fill="#DAE6EA" />
    <path
        d="M12.2621 54.036H4.87622C8.24356 53.3522 14.8392 51.3224 15.2451 50.2274C15.4878 49.56 14.059 52.9611 14.059 52.9611L12.2621 54.036Z"
        fill="#DAE6EA" />
    <path
        d="M68.6738 54.0369H78.2169C74.6991 54.0369 68.9722 49.1976 68.1288 48.1405C67.2854 47.0833 65.5998 50.2926 65.7174 50.6282C65.835 50.9638 68.6738 54.0369 68.6738 54.0369Z"
        fill="#DAE6EA" />
    <path
        d="M53.8842 134.363L144.498 73.3255C145.484 72.6616 146.687 72.3977 147.861 72.5873C149.036 72.7769 150.094 73.4058 150.82 74.346L196.097 133.021C196.097 133.021 140.506 171.944 139.593 171.447C138.68 170.95 109.309 167.473 107.567 167.473C105.824 167.473 53.8842 134.363 53.8842 134.363Z"
        fill="#5985AA" />
    <path
        d="M114.226 94.6496C114.226 94.6496 140.693 96.3805 141.679 96.6946C142.666 97.0087 142.104 94.4011 142.104 94.4011C142.104 94.4011 140.144 90.6758 139.828 90.6456C139.512 90.6153 139.086 90.1801 137.931 90.1801C136.777 90.1801 118.679 88.8454 117.601 89.4963C116.522 90.1472 114.094 91.9184 114.22 92.3221C114.345 92.7258 114.226 94.6496 114.226 94.6496Z"
        fill="#142232" />
    <path
        d="M182.74 118.965C183.673 117.062 181.185 113.957 181.185 113.957L179.847 118.428L182.74 118.965Z"
        fill="#142232" />
    <path
        d="M69.98 106.632C69.6007 105.39 72.6152 103.507 72.6152 103.507L74.1326 106.632L70.2329 106.818L69.98 106.632Z"
        fill="#142232" />
    <path
        d="M81.1251 97.817C81.1251 97.817 72.7795 109.18 72.2256 107.315C71.6697 105.463 70.9293 103.672 70.0153 101.967C69.3148 100.691 68.4549 99.433 67.4344 98.4352V97.9987C67.4344 97.9987 67.4711 97.9192 67.5255 97.788C67.7443 97.2834 68.2943 96.0357 68.4916 95.6434C68.7445 95.1476 71.5415 92.7886 72.1586 92.1389C72.7757 91.4892 77.6364 91.5472 77.9475 91.5472C78.2585 91.5472 80.8558 93.3891 80.8558 93.3891L81.1251 97.817Z"
        fill="#FDBA9D" />
    <g style="mix-blend-mode:multiply" opacity="0.2">
        <g style="mix-blend-mode:multiply" opacity="0.6">
            <path
                d="M75.2072 94.6709C73.7139 96.8054 71.4631 99.6602 70.0102 101.966C69.3096 100.69 68.4498 99.4319 67.4293 98.434V97.9976C67.4293 97.9976 67.466 97.9181 67.5204 97.7869L75.2072 94.6709Z"
                fill="#599FD3" />
        </g>
    </g>
    <path
        d="M185.726 109.695C185.691 109.724 185.657 109.755 185.625 109.787C185.221 110.2 184.607 111.215 183.962 112.408C182.561 114.995 180.996 118.429 180.996 118.429C180.996 118.429 179.089 117.435 178.8 117.31C178.51 117.185 174.939 111.225 174.485 108.537C174.031 105.849 175.935 102.246 175.935 102.246L177.139 102.12C178.343 102 186.93 108.701 185.726 109.695Z"
        fill="#FDBA9D" />
    <g style="mix-blend-mode:multiply" opacity="0.2">
        <g style="mix-blend-mode:multiply" opacity="0.6">
            <path
                d="M185.625 109.787C185.221 110.199 184.607 111.215 183.963 112.407C182.445 111.019 180.493 108.66 180.624 106.352L185.625 109.787Z"
                fill="#599FD3" />
        </g>
    </g>
    <path
        d="M154.423 116.887C154.357 120.642 154.271 124.942 154.186 129.305C143.108 130.642 115.858 130.693 97.9165 122.47C98.5601 118.464 99.2101 114.499 99.8474 110.921C117.89 118.36 143.883 118.206 154.423 116.887Z"
        fill="#6475A0" />
    <path
        d="M153.973 140.115C153.878 144.946 153.788 149.324 153.72 152.495C141.788 153.655 112.118 152.873 94.2343 144.339C94.8855 141.085 95.5809 136.954 96.3068 132.48C114.08 141.43 142.418 141.466 153.973 140.115Z"
        fill="#6475A0" />
    <path
        d="M153.722 152.495V152.534C153.657 155.68 153.617 157.627 153.617 157.627L133.288 168.55C133.288 168.55 89.7238 156.548 92.5487 150.755C93.0545 149.719 93.6235 147.426 94.2368 144.339C112.114 152.868 141.791 153.655 153.722 152.495Z"
        fill="#40507E" />
    <path
        d="M154.186 129.303C154.117 132.961 154.045 136.652 153.972 140.115C142.418 141.466 114.08 141.43 96.3116 132.484C96.8377 129.254 97.3726 125.846 97.915 122.468C115.858 130.695 143.108 130.636 154.186 129.303Z"
        fill="#40507E" />
    <path
        d="M154.612 104.979C154.612 106.24 154.538 110.866 154.423 116.885C143.883 118.206 117.89 118.36 99.8435 110.919C101.178 103.476 102.471 97.7011 103.584 96.6981C105.761 94.7415 109.527 94.1297 115.92 93.4737C116.266 93.4384 116.617 93.4056 116.975 93.3753C117.03 93.3753 117.09 93.3665 117.146 93.3627C117.832 93.3097 118.548 93.2605 119.295 93.2277C119.939 93.2024 120.686 92.1604 121.377 92.1503C123.465 92.1175 125.758 92.1667 128.264 92.3143C128.264 92.3143 131.358 93.1974 135.033 93.9543C135.979 94.1473 136.961 94.3328 137.941 94.4955C138.509 94.5863 139.038 94.6848 139.55 94.7831C140.214 94.9093 140.854 95.0355 141.517 95.1477C142.72 95.3471 144.198 95.4909 144.969 95.8945C150.527 98.7885 154.612 100.427 154.612 104.979Z"
        fill="#40507E" />
    <path
        d="M121.88 99.151C122.259 104.428 131.898 107.603 134.487 99.9433C136.745 93.2584 121.88 99.151 121.88 99.151Z"
        fill="#FDBA9D" />
    <g style="mix-blend-mode:multiply" opacity="0.2">
        <g style="mix-blend-mode:multiply" opacity="0.6">
            <path
                d="M121.88 99.151C122.259 104.428 131.898 107.603 134.487 99.9433C136.745 93.2584 121.88 99.151 121.88 99.151Z"
                fill="#599FD3" />
        </g>
    </g>
    <path
        d="M139.545 94.7815C138.912 102.17 134.966 108.154 127.648 107.563C120.931 107.02 118.038 103.713 117.142 93.3598C117.828 93.3068 118.544 93.2576 119.291 93.2248C119.935 93.1996 120.682 92.1576 121.374 92.1475C121.298 94.5885 120.969 104.156 128.26 104.156C135.276 104.156 135.23 96.453 135.029 93.9527C135.975 94.1457 136.958 94.3312 137.938 94.4939C138.505 94.5847 139.039 94.6819 139.545 94.7815Z"
        fill="#6475A0" />
    <path
        d="M117.607 82.0059C113.499 82.0059 113.955 88.2555 117.733 88.2555C121.512 88.2555 117.607 82.0059 117.607 82.0059Z"
        fill="#FDBA9D" />
    <path
        d="M139.678 82.0059C143.785 82.0059 143.328 88.2555 139.551 88.2555C135.774 88.2555 139.678 82.0059 139.678 82.0059Z"
        fill="#FDBA9D" />
    <path
        d="M117.607 83.867C117.607 95.4567 119.681 101.83 128.642 101.83C137.604 101.83 139.594 89.6625 139.594 84.7779C139.594 79.8932 133.777 76.501 128.558 76.501C124.319 76.501 119.845 76.501 118.27 79.5627C117.903 80.2767 117.607 83.0521 117.607 83.867Z"
        fill="#FDBA9D" />
    <path
        d="M128.021 91.4284C127.604 91.4284 127.064 91.2518 126.378 90.7345C126.335 90.7021 126.299 90.6615 126.271 90.6151C126.244 90.5687 126.226 90.5174 126.219 90.4642C126.212 90.4109 126.215 90.3568 126.229 90.3048C126.242 90.2528 126.266 90.204 126.299 90.1612C126.331 90.1183 126.372 90.0823 126.418 90.0552C126.465 90.0281 126.516 90.0103 126.57 90.003C126.623 89.9957 126.677 89.9989 126.729 90.0125C126.781 90.0261 126.83 90.0499 126.873 90.0823C127.253 90.3674 127.942 90.8039 128.316 90.5125C129.099 89.9044 128.923 86.8415 127.273 82.9522C127.252 82.9025 127.241 82.8491 127.24 82.7952C127.24 82.7412 127.25 82.6878 127.271 82.6378C127.291 82.5878 127.321 82.5424 127.359 82.504C127.397 82.4656 127.442 82.4351 127.492 82.4141C127.542 82.3931 127.596 82.3822 127.65 82.3818C127.704 82.3815 127.757 82.3918 127.807 82.4121C127.857 82.4324 127.903 82.4624 127.941 82.5003C127.98 82.5382 128.011 82.5833 128.032 82.633C129.749 86.6812 130.074 90.187 128.823 91.1584C128.594 91.3369 128.312 91.4321 128.021 91.4284V91.4284Z"
        fill="#142232" />
    <path
        d="M116.839 81.1162C116.839 81.1162 116.196 85.0269 117.607 86.6821C117.938 84.241 119.515 82.9997 119.432 81.4265C119.348 79.8534 116.839 81.1162 116.839 81.1162Z"
        fill="#0D1926" />
    <path
        d="M138.184 81.7212L139.511 86.6815C139.511 86.6815 139.384 84.9027 139.927 83.9503C140.469 82.9978 139.547 80.635 139.428 80.6703C139.309 80.7056 138.184 81.7212 138.184 81.7212Z"
        fill="#0D1926" />
    <path
        d="M154.166 130.342C154.032 138.999 153.603 158.325 153.603 158.325L133.537 170.454C133.537 170.454 138.533 149.657 139.179 133.022C139.294 130.017 138.894 119.271 138.894 119.271C138.819 118.433 138.953 117.589 139.282 116.814L139.824 114.563L142.977 95.582C142.977 95.582 147.45 95.8987 152.768 99.1395C156.399 105.319 154.166 130.342 154.166 130.342Z"
        fill="#9D82C4" />
    <path
        d="M182.74 118.966C173.862 134.861 169.297 146.119 162.078 146.283C158.685 146.361 156.734 142.845 155.618 139.092C157.008 128.84 166.144 115.9 166.144 115.9L175.934 102.243C176.185 110.771 180.749 118.552 182.74 118.966Z"
        fill="#9D82C4" />
    <path
        d="M166.143 115.902C166.143 115.902 165.588 116.688 164.73 118.028C162.108 122.119 156.665 131.368 155.619 139.095C155.25 137.831 154.955 136.547 154.734 135.25C154.456 133.654 154.267 132.044 154.167 130.427V130.345C154.167 130.345 154.926 121.846 154.841 113.529C154.841 113.475 154.841 113.447 154.841 113.447C154.775 107.527 154.281 101.715 152.771 99.1475C155.804 101.011 158.479 103.398 160.672 106.198L160.686 106.212C161.027 106.648 161.37 107.104 161.706 107.58C163.519 110.163 165.009 112.958 166.143 115.902V115.902Z"
        fill="#9D82C4" />
    <path
        d="M115.451 112.471C116.498 114.84 113.348 121.573 112.55 124.581C107.936 141.974 111.017 158.983 110.389 161.935C109.227 167.398 91.1362 152.001 91.1362 152.001L96.944 129.494C99.3112 126.001 104.025 106.891 103.814 96.245C107.965 93.9389 112.176 92.4869 115.661 92.4932C115.661 92.4932 115.624 104.294 115.188 109.272C114.896 112.606 115.057 111.58 115.451 112.471Z"
        fill="#9D82C4" />
    <path
        d="M96.9438 129.487L96.9059 129.579C96.8565 129.705 96.7604 129.928 96.6213 130.237L96.5771 130.332C96.2307 131.07 95.8397 131.786 95.4062 132.477C95.6692 131.747 95.74 130.837 95.6591 129.791C95.6591 129.706 95.6489 129.622 95.6401 129.538C95.6401 129.492 95.6325 129.443 95.6275 129.396C95.6224 129.349 95.6186 129.309 95.6135 129.27C95.6047 129.199 95.5971 129.126 95.5857 129.051C95.5693 128.908 95.5478 128.763 95.5225 128.612C95.5225 128.571 95.5124 128.533 95.5035 128.493C95.4871 128.38 95.4681 128.268 95.4466 128.153C95.3746 127.756 95.2873 127.346 95.1937 126.928C95.1444 126.724 95.0926 126.516 95.0382 126.309C94.7853 125.338 94.4666 124.325 94.1075 123.301C94.0645 123.175 94.0178 123.039 93.9684 122.905C93.8154 122.479 93.6561 122.049 93.4892 121.62C93.4399 121.494 93.3918 121.357 93.3387 121.229L93.2818 121.085C93.1946 120.858 93.1035 120.635 93.0137 120.414C92.7811 119.842 92.545 119.279 92.3056 118.726C92.2475 118.592 92.1906 118.462 92.1299 118.328C91.7037 117.356 91.2738 116.422 90.8654 115.561C90.7705 115.361 90.677 115.165 90.5847 114.974L90.5379 114.878C90.4835 114.766 90.4304 114.657 90.376 114.548C89.1621 112.059 88.2175 110.363 88.2175 110.363L88.2504 110.314C88.5728 109.795 88.9256 109.274 89.3063 108.756C89.3092 108.749 89.313 108.743 89.3176 108.737C90.5022 107.128 91.813 105.616 93.2376 104.214C96.3919 101.097 99.9512 98.4168 103.82 96.2441C104.027 106.886 99.3109 125.995 96.9438 129.487Z"
        fill="#9D82C4" />
    <g style="mix-blend-mode:multiply" opacity="0.2">
        <g style="mix-blend-mode:multiply" opacity="0.6">
            <path
                d="M93.2314 104.209C92.3045 107.129 91.9922 113.688 91.8885 117.777C91.8329 119.857 91.8329 121.298 91.8329 121.298L88.2139 110.358L88.2467 110.308C88.3593 110.139 88.7639 109.541 89.3026 108.75C89.3055 108.744 89.3094 108.737 89.314 108.732C90.4978 107.123 91.8077 105.611 93.2314 104.209V104.209Z"
                fill="#599FD3" />
        </g>
    </g>
    <path
        d="M117.847 89.6605C115.181 90.2913 116.129 100.921 117.043 102.97C117.902 104.895 116.537 113.845 115.286 112.598C114.034 111.35 111.871 95.3387 112.757 92.9027C113.642 90.4667 116.341 89.3338 117.804 89.166L117.847 89.6605Z"
        fill="#71579F" />
    <path
        d="M139.057 89.9609C141.295 90.159 142.581 91.3196 143.286 92.3225C143.992 93.3254 145.42 96.1273 145.42 96.1273C145.42 96.1273 139.571 114.683 139.374 116.514C139.177 118.344 137.214 111.415 138.225 108.944C139.868 104.95 141.109 95.359 140.735 93.2788C140.406 91.4483 140.025 90.8667 138.887 90.7696L139.057 89.9609Z"
        fill="#71579F" />
    <path
        d="M175.936 102.244C180.499 96.2014 184.441 88.2967 185.976 89.0826C187.511 89.8686 185.768 96.9887 185.768 96.9887C190.747 99.8031 193.451 101.646 194.77 102.244C196.596 103.073 201.325 103.232 201.325 104.398C201.325 105.804 196.267 106.176 195.019 105.969C197.882 107.046 203.773 106.176 203.939 107.873C204.105 109.57 197.924 110.15 195.061 109.818C199.21 111.805 205.456 110.585 205.391 112.054C205.308 113.917 198.069 114.558 195.123 113.233C199.521 115.055 203.151 114.661 203.026 116.4C202.901 118.138 196.929 117.559 193.9 116.4C190.872 115.24 179.919 106.508 179.462 104.852C179.006 103.195 175.936 102.244 175.936 102.244Z"
        fill="#FDBA9D" />
    <path
        d="M80.8495 93.387C80.8495 93.387 73.5483 72.9843 71.2621 73.3968C68.9759 73.8093 71.0547 82.4609 71.0547 82.4609C67.155 84.8578 63.1314 87.2206 61.5963 87.507C60.0612 87.7934 52.6766 86.8447 52.1379 88.086C51.5992 89.3274 57.1567 90.7353 61.0564 91.3559C55.1246 91.5628 48.3621 89.4106 48.7351 91.2727C49.1082 93.1347 56.1198 95.1632 61.0564 94.9147C50.9341 95.0409 47.238 93.3832 47.3632 94.998C47.4884 96.6127 55.9124 98.8053 61.0981 98.6816C53.7552 99.0601 48.8603 98.1026 49.0677 99.5925C49.2751 101.082 56.245 102.696 61.3472 101.786C66.4494 100.877 74.3715 95.9504 75.2035 94.6674C76.0355 93.3845 80.8495 93.387 80.8495 93.387Z"
        fill="#FDBA9D" />
    <path
        d="M198.629 245.191L58.2872 240.776C57.0729 240.738 55.8791 240.453 54.7787 239.94C53.6783 239.426 52.6944 238.694 51.8872 237.788C51.0799 236.882 50.4663 235.822 50.0837 234.671C49.7011 233.521 49.5577 232.305 49.6621 231.097C51.5702 209.052 55.9163 154.319 53.883 134.358L63.4767 138.332L66.7479 139.686L136.52 168.552L186.078 138.999L189.254 137.107L196.102 133.023C196.102 133.023 196.681 144.251 197.666 159.672C198.306 169.715 199.12 181.534 200.068 193.176C201.481 210.663 203.178 227.758 205 237.853C205.164 238.769 205.121 239.71 204.873 240.607C204.626 241.504 204.181 242.335 203.57 243.039C202.959 243.742 202.199 244.3 201.344 244.673C200.489 245.045 199.562 245.222 198.629 245.191V245.191Z"
        fill="#8EC5FC" />
    <path
        d="M193.151 234.024C192.391 234.847 191.468 235.503 190.441 235.952C189.414 236.401 188.305 236.633 187.183 236.633C187.098 236.633 187.012 236.633 186.93 236.633L66.3191 232.842C65.2205 232.808 64.1403 232.552 63.1442 232.089C62.148 231.625 61.2567 230.965 60.5244 230.147C59.7922 229.329 59.2343 228.372 58.8846 227.332C58.535 226.292 58.401 225.193 58.4907 224.1C60.8161 195.521 63.3147 158.354 63.4765 138.331L66.7478 139.685C66.4873 160.077 64.0443 196.35 61.7644 224.365C61.7111 225.015 61.7909 225.669 61.9989 226.287C62.207 226.906 62.5389 227.475 62.9745 227.962C63.4101 228.448 63.9403 228.841 64.5329 229.117C65.1255 229.392 65.7681 229.545 66.4215 229.565L187.033 233.349C187.724 233.371 188.411 233.244 189.049 232.978C189.687 232.711 190.26 232.311 190.729 231.804C191.198 231.297 191.552 230.696 191.768 230.04C191.983 229.385 192.055 228.691 191.978 228.006C189.828 209.144 188.149 177.562 186.92 154.5C186.601 148.571 186.322 143.33 186.075 138.996L189.252 137.104C189.527 141.752 189.84 147.588 190.201 154.328C191.429 177.346 193.11 208.874 195.246 227.64C195.375 228.791 195.256 229.958 194.894 231.059C194.533 232.161 193.939 233.172 193.151 234.024V234.024Z"
        fill="#5985AA" />
    <path
        d="M132.873 190.002C137.737 190.002 141.679 186.069 141.679 181.217C141.679 176.365 137.737 172.432 132.873 172.432C128.01 172.432 124.067 176.365 124.067 181.217C124.067 186.069 128.01 190.002 132.873 190.002Z"
        fill="#F1F2F2" />
    <path
        d="M132.873 190.003C137.737 190.003 141.679 186.07 141.679 181.218C141.679 176.366 137.737 172.433 132.873 172.433C128.01 172.433 124.067 176.366 124.067 181.218C124.067 186.07 128.01 190.003 132.873 190.003Z"
        fill="#C8DBDA" />
    <path
        d="M207.11 152.946C207.11 152.946 215.574 168.095 223.788 169.336L207.11 187.961C195.287 187.217 185.58 171.448 186.451 159.031L207.11 152.946Z"
        fill="#D4E3E8" />
    <path
        d="M57.6297 185.821C61.8557 194.771 71.5493 205.524 78.2195 206.051C73.7406 215.906 67.924 226.502 67.924 226.502C52.2442 224.8 39.7536 209.032 38.2893 196.359L57.6297 185.821Z"
        fill="#D4E3E8" />
    <path
        d="M20.2854 156.429L0.910842 145.184C-1.39053 130.402 21.6713 112.424 27.4652 110.996L40.6614 133.145C31.155 137.541 20.1374 151.008 20.2854 156.429Z"
        fill="#D4E3E8" />
    <path
        d="M164.678 222.413L179.725 231.219C181.477 242.73 163.478 256.66 158.961 257.76L148.753 240.477C156.166 237.085 164.779 226.638 164.678 222.413Z"
        fill="#D4E3E8" />
    <path
        d="M228.215 108.076L245.768 97.8019C243.387 83.6728 226.591 74.6049 220.186 73.959L209.458 90.4459C220.807 94.4046 226.162 104.092 228.215 108.076Z"
        fill="#D4E3E8" />
    <path
        d="M117.434 63.6699L117.004 54.1643C117 54.021 117.052 53.8819 117.15 53.777C117.248 53.672 117.383 53.6095 117.526 53.6031C117.67 53.5966 117.81 53.6467 117.917 53.7424C118.024 53.8382 118.089 53.972 118.098 54.1151V54.1516L117.899 63.6648C117.899 63.7264 117.875 63.7854 117.831 63.829C117.787 63.8725 117.728 63.8969 117.666 63.8969C117.605 63.8969 117.545 63.8725 117.502 63.829C117.458 63.7854 117.434 63.7264 117.434 63.6648V63.6699Z"
        fill="#95B0C1" />
    <path
        d="M111.489 66.2815L105.582 55.5761C105.545 55.5132 105.52 55.4434 105.51 55.371C105.501 55.2985 105.506 55.2248 105.525 55.1543C105.544 55.0838 105.578 55.0179 105.623 54.9604C105.668 54.903 105.725 54.8552 105.789 54.8199C105.853 54.7846 105.924 54.7625 105.996 54.7549C106.069 54.7473 106.143 54.7544 106.213 54.7758C106.283 54.7971 106.348 54.8323 106.404 54.8792C106.461 54.9261 106.507 54.9838 106.54 55.0488C106.546 55.0568 106.55 55.0652 106.554 55.074L111.906 66.062C111.934 66.117 111.94 66.1811 111.921 66.2403C111.902 66.2994 111.861 66.3487 111.806 66.3773C111.75 66.4059 111.686 66.4115 111.627 66.3928C111.568 66.3741 111.518 66.3327 111.489 66.2777V66.2815Z"
        fill="#95B0C1" />
    <path
        d="M105.895 70.3945L98.7218 67.8021C98.5852 67.7519 98.4741 67.6496 98.413 67.5177C98.352 67.3858 98.3459 67.2351 98.3962 67.0988C98.4465 66.9625 98.5491 66.8516 98.6813 66.7907C98.8135 66.7298 98.9645 66.7238 99.1012 66.774L99.1442 66.7916L106.074 69.9757C106.128 70.0012 106.171 70.0472 106.191 70.1037C106.212 70.1601 106.21 70.2225 106.185 70.2772C106.161 70.3302 106.118 70.3719 106.064 70.3938C106.01 70.4156 105.949 70.4159 105.895 70.3945V70.3945Z"
        fill="#95B0C1" />
    <path
        d="M125.239 96.5283C125.152 96.5284 125.067 96.5009 124.997 96.4496C124.927 96.3984 124.875 96.3261 124.848 96.2432C124.822 96.1604 124.823 96.0713 124.85 95.989C124.878 95.9066 124.932 95.8353 125.003 95.7852C128.196 93.5334 132.151 93.7555 132.318 93.7668C132.426 93.7743 132.527 93.8241 132.598 93.9055C132.669 93.9869 132.705 94.0931 132.697 94.2008C132.694 94.2542 132.681 94.3065 132.657 94.3546C132.634 94.4027 132.601 94.4457 132.56 94.4809C132.52 94.5162 132.473 94.543 132.422 94.5599C132.371 94.5768 132.317 94.5834 132.264 94.5792C132.226 94.5792 128.425 94.3686 125.472 96.4501C125.404 96.4995 125.323 96.5268 125.239 96.5283V96.5283Z"
        fill="#142232" />
    <path
        d="M133.019 79.0049C125.084 79.0049 118.063 85.0035 114.132 79.4086C112.306 76.8111 113.1 72.0766 113.759 73.1009C114.868 74.8393 119.829 74.1102 121.226 73.5046C124.524 72.0766 129.298 65.5986 135.279 69.4589C136.299 70.1079 137.148 70.9917 137.755 72.036C138.361 73.0803 138.707 74.2545 138.764 75.46C142.706 73.4327 144.455 82.7453 139.594 84.7726C139.594 83.4291 138.069 82.734 137.405 81.2037C136.875 79.9851 134.761 79.0049 133.019 79.0049Z"
        fill="#142232" />
    <g style="mix-blend-mode:multiply" opacity="0.2">
        <g style="mix-blend-mode:multiply" opacity="0.6">
            <path
                d="M166.143 115.902C166.143 115.902 165.588 116.688 164.73 118.028C164.097 114.711 162.087 109.086 160.667 106.198L160.681 106.212L161.701 107.58C163.516 110.163 165.007 112.958 166.143 115.902V115.902Z"
                fill="#599FD3" />
        </g>
    </g>
    <g style="mix-blend-mode:multiply" opacity="0.2">
        <g style="mix-blend-mode:multiply" opacity="0.6">
            <path
                d="M154.735 135.247C154.458 133.651 154.269 132.041 154.169 130.425V130.343C154.169 130.343 154.927 121.844 154.843 113.526C154.899 114.826 155.628 131.141 154.735 135.247Z"
                fill="#599FD3" />
        </g>
    </g>
    <path
        d="M95.4063 132.479C94.7407 133.556 93.9532 134.552 93.0594 135.449C91.4447 137.044 89.3191 138.332 86.6598 138.332C79.6887 138.332 69.9824 106.627 69.9824 106.627C74.2969 106.957 81.1858 95.7853 80.8571 93.3809C83.1799 99.9206 88.2215 110.35 88.2215 110.35C88.2215 110.35 89.166 112.045 90.38 114.534C90.4343 114.644 90.4874 114.752 90.5418 114.865L90.5886 114.961C90.6809 115.151 90.7745 115.348 90.8693 115.547C91.2803 116.409 91.7102 117.342 92.1338 118.315C92.192 118.441 92.2514 118.579 92.3096 118.712C92.5498 119.267 92.7859 119.83 93.0177 120.4C93.1075 120.624 93.1985 120.847 93.2858 121.071L93.3427 121.215C93.3958 121.341 93.4438 121.478 93.4931 121.606C93.6601 122.035 93.8194 122.465 93.9724 122.892C94.0192 123.026 94.066 123.157 94.1115 123.288C94.4706 124.311 94.788 125.324 95.0421 126.295C95.0965 126.502 95.1484 126.71 95.1977 126.915C95.2963 127.332 95.3836 127.742 95.4506 128.14C95.4721 128.255 95.491 128.367 95.5075 128.479C95.5163 128.519 95.5214 128.557 95.5264 128.599C95.5517 128.749 95.5732 128.894 95.5897 129.038C95.6011 129.112 95.6086 129.186 95.615 129.26C95.6226 129.303 95.6251 129.345 95.6314 129.386C95.6377 129.428 95.6415 129.482 95.644 129.529C95.6529 129.616 95.6605 129.7 95.663 129.781C95.7401 130.837 95.6668 131.75 95.4063 132.479Z"
        fill="#9D82C4" />
    <g style="mix-blend-mode:multiply" opacity="0.2">
        <g style="mix-blend-mode:multiply" opacity="0.6">
            <path
                d="M95.6176 129.265C98.1668 122.633 101.212 113.912 101.341 113.541L96.9441 129.487L96.9061 129.579L96.6216 130.237L96.5774 130.332C96.231 131.07 95.84 131.786 95.4065 132.477C94.7408 133.553 93.9534 134.549 93.0596 135.446C93.7019 134.115 94.6237 131.847 95.6176 129.265C95.6151 129.269 95.6176 129.269 95.6176 129.265Z"
                fill="#599FD3" />
        </g>
    </g>
</svg>    