<svg width="337" height="288" viewBox="0 0 337 288" fill="none" xmlns="http://www.w3.org/2000/svg">
    <g clip-path="url(#clip0_1666_14901)">
    <path fill-rule="evenodd" clip-rule="evenodd" d="M154.573 48.1517C168.642 28.5216 184.136 17.7064 199.732 13.9567C213.585 10.6274 227.499 12.8718 240.558 19.4762C253.577 26.0534 265.749 36.9703 276.157 50.9996C302.459 86.4625 317.519 141.901 306.521 197.652C303.741 211.756 299.232 222.09 293.549 229.494C273.601 262.082 234.808 249.708 207.509 239.536C174.487 227.236 155.068 230.471 107.155 248.602C103.738 249.897 100.402 250.874 97.1537 251.599C75.4081 258.712 57.1613 252.454 44.6373 239.577C38.9009 233.678 34.3714 226.396 31.259 218.367C28.1535 210.352 26.4583 201.599 26.3973 192.757C26.343 185.074 27.5229 177.33 30.0656 169.94C34.8731 149.543 48.6244 130.795 73.5298 121.139C104.463 109.151 118.438 111.022 137.594 74.4404C142.978 64.1541 148.673 55.4409 154.573 48.1517ZM106.626 99.8883C156.546 70.2025 129.416 -14.8951 80.2359 22.1681C47.4378 46.8837 35.9987 80.5905 44.2237 99.3052C51.201 115.186 72.35 120.264 106.626 99.8883ZM299.415 216.998C301.835 211.498 303.836 205.016 305.334 197.422C316.265 142.017 301.313 86.9372 275.187 51.7115C264.894 37.8315 252.865 27.0434 240.016 20.5475C227.207 14.072 213.565 11.8682 200.01 15.123C188.645 17.8556 177.329 24.4193 166.581 35.526C236.456 -26.1782 326.354 87.5271 303.334 202.629C302.269 207.945 300.954 212.719 299.422 216.998H299.415ZM84.996 253.05C48.8414 253.573 26.3905 218.333 28.1738 183.243C27.7602 186.403 27.5636 189.583 27.5907 192.75C27.6517 201.443 29.3198 210.054 32.3779 217.933C35.4292 225.806 39.8773 232.952 45.4985 238.736C55.3847 248.901 68.9325 254.834 84.996 253.05Z" fill="url(#paint0_linear_1666_14901)"/>
    <path fill-rule="evenodd" clip-rule="evenodd" d="M246.925 78.0678C246.078 78.0678 245.264 78.2238 244.511 78.5018C244.172 78.1289 243.677 77.8915 243.135 77.8915C242.877 77.8915 242.64 77.9458 242.416 78.0339C242.294 76.4337 240.958 75.1725 239.324 75.1725C238.619 75.1725 237.961 75.4098 237.446 75.8099C237.331 75.6539 237.195 75.5183 237.039 75.403C237.337 74.8741 237.507 74.2639 237.507 73.6197C237.507 72.6094 237.1 71.694 236.436 71.0363C235.778 70.3785 234.862 69.9649 233.852 69.9649H233.839C233.283 69.6733 232.652 69.5038 231.981 69.5038C231.567 69.5038 231.174 69.5649 230.801 69.6801C230.631 69.314 230.347 69.0224 229.987 68.8393C230.082 68.385 230.136 67.9171 230.136 67.4289C230.136 65.5981 229.397 63.9437 228.197 62.7435C226.997 61.5433 225.342 60.8042 223.512 60.8042C222.928 60.8042 222.366 60.8788 221.823 61.0212C217.904 61.0754 214.744 64.2759 214.744 68.2019C214.744 68.2562 214.744 68.3104 214.744 68.3647C214.398 68.2765 214.032 68.2291 213.659 68.2291C212.913 68.2291 212.215 68.4121 211.598 68.7376C210.554 67.3069 208.859 66.3779 206.953 66.3779C203.773 66.3779 201.196 68.9546 201.196 72.1347C201.196 72.7586 201.298 73.362 201.481 73.9248C201.42 73.9248 201.366 73.9248 201.305 73.9248C199.739 73.9248 198.471 75.1928 198.471 76.7592C198.471 76.9422 198.491 77.1253 198.525 77.2948C198.504 77.2948 198.484 77.2948 198.464 77.2948C197.582 77.2948 196.857 78 196.83 78.8747C196.586 78.8273 196.328 78.8069 196.07 78.8069C195.046 78.8069 194.09 79.1595 193.405 79.8105C191.568 81.5531 193.575 82.0074 195.514 82.0074H249.048C251.068 82.0074 253.95 82.3397 251.95 80.2241C250.689 78.8951 248.898 78.0611 246.919 78.0611L246.925 78.0678ZM229.465 68.663C229.363 68.6495 229.262 68.6359 229.153 68.6359H229.099C229.106 68.4935 229.112 68.3443 229.112 68.2019C229.112 65.0421 227.071 62.357 224.237 61.3941C225.62 61.5636 226.861 62.1942 227.804 63.13C228.902 64.2285 229.587 65.7473 229.587 67.4289C229.587 67.8493 229.546 68.263 229.465 68.6562V68.663ZM236.551 75.1521C236.368 75.0911 236.164 75.0572 235.961 75.0572C235.859 75.0572 235.758 75.064 235.663 75.0843C235.873 74.6029 235.981 74.0672 235.981 73.5112C235.981 72.3992 235.527 71.3889 234.795 70.6701C235.276 70.8193 235.703 71.0905 236.049 71.4363C236.612 71.9991 236.958 72.7721 236.958 73.6333C236.958 74.1893 236.809 74.7114 236.551 75.1657V75.1521Z" fill="white"/>
    <path d="M319.438 248.551C319.925 248.551 320.319 248.156 320.319 247.67C320.319 247.183 319.925 246.788 319.438 246.788C318.951 246.788 318.556 247.183 318.556 247.67C318.556 248.156 318.951 248.551 319.438 248.551Z" fill="#E4D9E1"/>
    <path fill-rule="evenodd" clip-rule="evenodd" d="M315.017 246.788C314.529 246.788 314.135 247.181 314.135 247.67C314.135 248.158 314.529 248.551 315.017 248.551C315.505 248.551 315.898 248.158 315.898 247.67C315.898 247.181 315.505 246.788 315.017 246.788Z" fill="#E4D9E1"/>
    <path fill-rule="evenodd" clip-rule="evenodd" d="M310.61 246.788C310.121 246.788 309.728 247.181 309.728 247.67C309.728 248.158 310.121 248.551 310.61 248.551C311.098 248.551 311.491 248.158 311.491 247.67C311.491 247.181 311.098 246.788 310.61 246.788Z" fill="#E4D9E1"/>
    <path fill-rule="evenodd" clip-rule="evenodd" d="M306.189 246.788C305.7 246.788 305.307 247.181 305.307 247.67C305.307 248.158 305.7 248.551 306.189 248.551C306.677 248.551 307.07 248.158 307.07 247.67C307.07 247.181 306.677 246.788 306.189 246.788Z" fill="#E4D9E1"/>
    <path fill-rule="evenodd" clip-rule="evenodd" d="M301.774 246.788C301.286 246.788 300.893 247.181 300.893 247.67C300.893 248.158 301.286 248.551 301.774 248.551C302.263 248.551 302.656 248.158 302.656 247.67C302.656 247.181 302.263 246.788 301.774 246.788Z" fill="#E4D9E1"/>
    <path fill-rule="evenodd" clip-rule="evenodd" d="M297.36 246.788C296.872 246.788 296.479 247.181 296.479 247.67C296.479 248.158 296.872 248.551 297.36 248.551C297.848 248.551 298.241 248.158 298.241 247.67C298.241 247.181 297.848 246.788 297.36 246.788Z" fill="#E4D9E1"/>
    <path fill-rule="evenodd" clip-rule="evenodd" d="M292.946 246.788C292.458 246.788 292.064 247.181 292.064 247.67C292.064 248.158 292.458 248.551 292.946 248.551C293.434 248.551 293.827 248.158 293.827 247.67C293.827 247.181 293.434 246.788 292.946 246.788Z" fill="#E4D9E1"/>
    <path fill-rule="evenodd" clip-rule="evenodd" d="M288.532 246.788C288.043 246.788 287.65 247.181 287.65 247.67C287.65 248.158 288.043 248.551 288.532 248.551C289.02 248.551 289.413 248.158 289.413 247.67C289.413 247.181 289.02 246.788 288.532 246.788Z" fill="#E4D9E1"/>
    <path fill-rule="evenodd" clip-rule="evenodd" d="M284.117 246.788C283.629 246.788 283.236 247.181 283.236 247.67C283.236 248.158 283.629 248.551 284.117 248.551C284.606 248.551 284.999 248.158 284.999 247.67C284.999 247.181 284.606 246.788 284.117 246.788Z" fill="#E4D9E1"/>
    <path fill-rule="evenodd" clip-rule="evenodd" d="M279.703 246.788C279.215 246.788 278.822 247.181 278.822 247.67C278.822 248.158 279.215 248.551 279.703 248.551C280.191 248.551 280.585 248.158 280.585 247.67C280.585 247.181 280.191 246.788 279.703 246.788Z" fill="#E4D9E1"/>
    <path fill-rule="evenodd" clip-rule="evenodd" d="M275.289 246.788C274.801 246.788 274.407 247.181 274.407 247.67C274.407 248.158 274.801 248.551 275.289 248.551C275.777 248.551 276.17 248.158 276.17 247.67C276.17 247.181 275.777 246.788 275.289 246.788Z" fill="#E4D9E1"/>
    <path fill-rule="evenodd" clip-rule="evenodd" d="M270.875 246.788C270.386 246.788 269.993 247.181 269.993 247.67C269.993 248.158 270.386 248.551 270.875 248.551C271.363 248.551 271.756 248.158 271.756 247.67C271.756 247.181 271.363 246.788 270.875 246.788Z" fill="#E4D9E1"/>
    <path fill-rule="evenodd" clip-rule="evenodd" d="M266.461 246.788C265.972 246.788 265.579 247.181 265.579 247.67C265.579 248.158 265.972 248.551 266.461 248.551C266.949 248.551 267.342 248.158 267.342 247.67C267.342 247.181 266.949 246.788 266.461 246.788Z" fill="#E4D9E1"/>
    <path fill-rule="evenodd" clip-rule="evenodd" d="M262.046 246.788C261.558 246.788 261.165 247.181 261.165 247.67C261.165 248.158 261.558 248.551 262.046 248.551C262.534 248.551 262.928 248.158 262.928 247.67C262.928 247.181 262.534 246.788 262.046 246.788Z" fill="#E4D9E1"/>
    <path fill-rule="evenodd" clip-rule="evenodd" d="M257.632 246.788C257.144 246.788 256.75 247.181 256.75 247.67C256.75 248.158 257.144 248.551 257.632 248.551C258.12 248.551 258.513 248.158 258.513 247.67C258.513 247.181 258.12 246.788 257.632 246.788Z" fill="#E4D9E1"/>
    <path fill-rule="evenodd" clip-rule="evenodd" d="M253.218 246.788C252.73 246.788 252.336 247.181 252.336 247.67C252.336 248.158 252.73 248.551 253.218 248.551C253.706 248.551 254.099 248.158 254.099 247.67C254.099 247.181 253.706 246.788 253.218 246.788Z" fill="#E4D9E1"/>
    <path fill-rule="evenodd" clip-rule="evenodd" d="M248.804 246.788C248.315 246.788 247.922 247.181 247.922 247.67C247.922 248.158 248.315 248.551 248.804 248.551C249.292 248.551 249.685 248.158 249.685 247.67C249.685 247.181 249.292 246.788 248.804 246.788Z" fill="#E4D9E1"/>
    <path fill-rule="evenodd" clip-rule="evenodd" d="M319.438 251.202C318.95 251.202 318.556 251.595 318.556 252.084C318.556 252.572 318.95 252.965 319.438 252.965C319.926 252.965 320.319 252.572 320.319 252.084C320.319 251.595 319.926 251.202 319.438 251.202Z" fill="#E4D9E1"/>
    <path fill-rule="evenodd" clip-rule="evenodd" d="M315.017 251.202C314.529 251.202 314.135 251.595 314.135 252.084C314.135 252.572 314.529 252.965 315.017 252.965C315.505 252.965 315.898 252.572 315.898 252.084C315.898 251.595 315.505 251.202 315.017 251.202Z" fill="#E4D9E1"/>
    <path fill-rule="evenodd" clip-rule="evenodd" d="M310.61 251.202C310.121 251.202 309.728 251.595 309.728 252.084C309.728 252.572 310.121 252.965 310.61 252.965C311.098 252.965 311.491 252.572 311.491 252.084C311.491 251.595 311.098 251.202 310.61 251.202Z" fill="#E4D9E1"/>
    <path fill-rule="evenodd" clip-rule="evenodd" d="M306.189 251.202C305.7 251.202 305.307 251.595 305.307 252.084C305.307 252.572 305.7 252.965 306.189 252.965C306.677 252.965 307.07 252.572 307.07 252.084C307.07 251.595 306.677 251.202 306.189 251.202Z" fill="#E4D9E1"/>
    <path fill-rule="evenodd" clip-rule="evenodd" d="M301.774 251.202C301.286 251.202 300.893 251.595 300.893 252.084C300.893 252.572 301.286 252.965 301.774 252.965C302.263 252.965 302.656 252.572 302.656 252.084C302.656 251.595 302.263 251.202 301.774 251.202Z" fill="#E4D9E1"/>
    <path fill-rule="evenodd" clip-rule="evenodd" d="M297.36 251.202C296.872 251.202 296.479 251.595 296.479 252.084C296.479 252.572 296.872 252.965 297.36 252.965C297.848 252.965 298.241 252.572 298.241 252.084C298.241 251.595 297.848 251.202 297.36 251.202Z" fill="#E4D9E1"/>
    <path fill-rule="evenodd" clip-rule="evenodd" d="M292.946 251.202C292.458 251.202 292.064 251.595 292.064 252.084C292.064 252.572 292.458 252.965 292.946 252.965C293.434 252.965 293.827 252.572 293.827 252.084C293.827 251.595 293.434 251.202 292.946 251.202Z" fill="#E4D9E1"/>
    <path fill-rule="evenodd" clip-rule="evenodd" d="M288.532 251.202C288.043 251.202 287.65 251.595 287.65 252.084C287.65 252.572 288.043 252.965 288.532 252.965C289.02 252.965 289.413 252.572 289.413 252.084C289.413 251.595 289.02 251.202 288.532 251.202Z" fill="#E4D9E1"/>
    <path fill-rule="evenodd" clip-rule="evenodd" d="M284.117 251.202C283.629 251.202 283.236 251.595 283.236 252.084C283.236 252.572 283.629 252.965 284.117 252.965C284.606 252.965 284.999 252.572 284.999 252.084C284.999 251.595 284.606 251.202 284.117 251.202Z" fill="#E4D9E1"/>
    <path fill-rule="evenodd" clip-rule="evenodd" d="M279.703 251.202C279.215 251.202 278.822 251.595 278.822 252.084C278.822 252.572 279.215 252.965 279.703 252.965C280.191 252.965 280.585 252.572 280.585 252.084C280.585 251.595 280.191 251.202 279.703 251.202Z" fill="#E4D9E1"/>
    <path fill-rule="evenodd" clip-rule="evenodd" d="M275.289 251.202C274.801 251.202 274.407 251.595 274.407 252.084C274.407 252.572 274.801 252.965 275.289 252.965C275.777 252.965 276.17 252.572 276.17 252.084C276.17 251.595 275.777 251.202 275.289 251.202Z" fill="#E4D9E1"/>
    <path fill-rule="evenodd" clip-rule="evenodd" d="M270.875 251.202C270.386 251.202 269.993 251.595 269.993 252.084C269.993 252.572 270.386 252.965 270.875 252.965C271.363 252.965 271.756 252.572 271.756 252.084C271.756 251.595 271.363 251.202 270.875 251.202Z" fill="#E4D9E1"/>
    <path fill-rule="evenodd" clip-rule="evenodd" d="M266.461 251.202C265.972 251.202 265.579 251.595 265.579 252.084C265.579 252.572 265.972 252.965 266.461 252.965C266.949 252.965 267.342 252.572 267.342 252.084C267.342 251.595 266.949 251.202 266.461 251.202Z" fill="#E4D9E1"/>
    <path fill-rule="evenodd" clip-rule="evenodd" d="M262.046 251.202C261.558 251.202 261.165 251.595 261.165 252.084C261.165 252.572 261.558 252.965 262.046 252.965C262.534 252.965 262.928 252.572 262.928 252.084C262.928 251.595 262.534 251.202 262.046 251.202Z" fill="#E4D9E1"/>
    <path fill-rule="evenodd" clip-rule="evenodd" d="M257.632 251.202C257.144 251.202 256.75 251.595 256.75 252.084C256.75 252.572 257.144 252.965 257.632 252.965C258.12 252.965 258.513 252.572 258.513 252.084C258.513 251.595 258.12 251.202 257.632 251.202Z" fill="#E4D9E1"/>
    <path fill-rule="evenodd" clip-rule="evenodd" d="M253.218 251.202C252.73 251.202 252.336 251.595 252.336 252.084C252.336 252.572 252.73 252.965 253.218 252.965C253.706 252.965 254.099 252.572 254.099 252.084C254.099 251.595 253.706 251.202 253.218 251.202Z" fill="#E4D9E1"/>
    <path fill-rule="evenodd" clip-rule="evenodd" d="M248.804 251.202C248.315 251.202 247.922 251.595 247.922 252.084C247.922 252.572 248.315 252.965 248.804 252.965C249.292 252.965 249.685 252.572 249.685 252.084C249.685 251.595 249.292 251.202 248.804 251.202Z" fill="#E4D9E1"/>
    <path fill-rule="evenodd" clip-rule="evenodd" d="M319.438 255.617C318.95 255.617 318.556 256.01 318.556 256.498C318.556 256.986 318.95 257.38 319.438 257.38C319.926 257.38 320.319 256.986 320.319 256.498C320.319 256.01 319.926 255.617 319.438 255.617Z" fill="#E4D9E1"/>
    <path fill-rule="evenodd" clip-rule="evenodd" d="M315.017 255.617C314.529 255.617 314.135 256.01 314.135 256.498C314.135 256.986 314.529 257.38 315.017 257.38C315.505 257.38 315.898 256.986 315.898 256.498C315.898 256.01 315.505 255.617 315.017 255.617Z" fill="#E4D9E1"/>
    <path fill-rule="evenodd" clip-rule="evenodd" d="M310.61 255.617C310.121 255.617 309.728 256.01 309.728 256.498C309.728 256.986 310.121 257.38 310.61 257.38C311.098 257.38 311.491 256.986 311.491 256.498C311.491 256.01 311.098 255.617 310.61 255.617Z" fill="#E4D9E1"/>
    <path fill-rule="evenodd" clip-rule="evenodd" d="M306.189 255.617C305.7 255.617 305.307 256.01 305.307 256.498C305.307 256.986 305.7 257.38 306.189 257.38C306.677 257.38 307.07 256.986 307.07 256.498C307.07 256.01 306.677 255.617 306.189 255.617Z" fill="#E4D9E1"/>
    <path fill-rule="evenodd" clip-rule="evenodd" d="M301.774 255.617C301.286 255.617 300.893 256.01 300.893 256.498C300.893 256.986 301.286 257.38 301.774 257.38C302.263 257.38 302.656 256.986 302.656 256.498C302.656 256.01 302.263 255.617 301.774 255.617Z" fill="#E4D9E1"/>
    <path fill-rule="evenodd" clip-rule="evenodd" d="M297.36 255.617C296.872 255.617 296.479 256.01 296.479 256.498C296.479 256.986 296.872 257.38 297.36 257.38C297.848 257.38 298.241 256.986 298.241 256.498C298.241 256.01 297.848 255.617 297.36 255.617Z" fill="#E4D9E1"/>
    <path fill-rule="evenodd" clip-rule="evenodd" d="M292.946 255.617C292.458 255.617 292.064 256.01 292.064 256.498C292.064 256.986 292.458 257.38 292.946 257.38C293.434 257.38 293.827 256.986 293.827 256.498C293.827 256.01 293.434 255.617 292.946 255.617Z" fill="#E4D9E1"/>
    <path fill-rule="evenodd" clip-rule="evenodd" d="M288.532 255.617C288.043 255.617 287.65 256.01 287.65 256.498C287.65 256.986 288.043 257.38 288.532 257.38C289.02 257.38 289.413 256.986 289.413 256.498C289.413 256.01 289.02 255.617 288.532 255.617Z" fill="#E4D9E1"/>
    <path fill-rule="evenodd" clip-rule="evenodd" d="M284.117 255.617C283.629 255.617 283.236 256.01 283.236 256.498C283.236 256.986 283.629 257.38 284.117 257.38C284.606 257.38 284.999 256.986 284.999 256.498C284.999 256.01 284.606 255.617 284.117 255.617Z" fill="#E4D9E1"/>
    <path fill-rule="evenodd" clip-rule="evenodd" d="M279.703 255.617C279.215 255.617 278.822 256.01 278.822 256.498C278.822 256.986 279.215 257.38 279.703 257.38C280.191 257.38 280.585 256.986 280.585 256.498C280.585 256.01 280.191 255.617 279.703 255.617Z" fill="#E4D9E1"/>
    <path fill-rule="evenodd" clip-rule="evenodd" d="M275.289 255.617C274.801 255.617 274.407 256.01 274.407 256.498C274.407 256.986 274.801 257.38 275.289 257.38C275.777 257.38 276.17 256.986 276.17 256.498C276.17 256.01 275.777 255.617 275.289 255.617Z" fill="#E4D9E1"/>
    <path fill-rule="evenodd" clip-rule="evenodd" d="M270.875 255.617C270.386 255.617 269.993 256.01 269.993 256.498C269.993 256.986 270.386 257.38 270.875 257.38C271.363 257.38 271.756 256.986 271.756 256.498C271.756 256.01 271.363 255.617 270.875 255.617Z" fill="#E4D9E1"/>
    <path fill-rule="evenodd" clip-rule="evenodd" d="M266.461 255.617C265.972 255.617 265.579 256.01 265.579 256.498C265.579 256.986 265.972 257.38 266.461 257.38C266.949 257.38 267.342 256.986 267.342 256.498C267.342 256.01 266.949 255.617 266.461 255.617Z" fill="#E4D9E1"/>
    <path fill-rule="evenodd" clip-rule="evenodd" d="M262.046 255.617C261.558 255.617 261.165 256.01 261.165 256.498C261.165 256.986 261.558 257.38 262.046 257.38C262.534 257.38 262.928 256.986 262.928 256.498C262.928 256.01 262.534 255.617 262.046 255.617Z" fill="#E4D9E1"/>
    <path fill-rule="evenodd" clip-rule="evenodd" d="M257.632 255.617C257.144 255.617 256.75 256.01 256.75 256.498C256.75 256.986 257.144 257.38 257.632 257.38C258.12 257.38 258.513 256.986 258.513 256.498C258.513 256.01 258.12 255.617 257.632 255.617Z" fill="#E4D9E1"/>
    <path fill-rule="evenodd" clip-rule="evenodd" d="M253.218 255.617C252.73 255.617 252.336 256.01 252.336 256.498C252.336 256.986 252.73 257.38 253.218 257.38C253.706 257.38 254.099 256.986 254.099 256.498C254.099 256.01 253.706 255.617 253.218 255.617Z" fill="#E4D9E1"/>
    <path fill-rule="evenodd" clip-rule="evenodd" d="M248.804 255.617C248.315 255.617 247.922 256.01 247.922 256.498C247.922 256.986 248.315 257.38 248.804 257.38C249.292 257.38 249.685 256.986 249.685 256.498C249.685 256.01 249.292 255.617 248.804 255.617Z" fill="#E4D9E1"/>
    <path fill-rule="evenodd" clip-rule="evenodd" d="M319.438 260.031C318.95 260.031 318.556 260.424 318.556 260.912C318.556 261.4 318.95 261.794 319.438 261.794C319.926 261.794 320.319 261.4 320.319 260.912C320.319 260.424 319.926 260.031 319.438 260.031Z" fill="#E4D9E1"/>
    <path fill-rule="evenodd" clip-rule="evenodd" d="M315.017 260.031C314.529 260.031 314.135 260.424 314.135 260.912C314.135 261.4 314.529 261.794 315.017 261.794C315.505 261.794 315.898 261.4 315.898 260.912C315.898 260.424 315.505 260.031 315.017 260.031Z" fill="#E4D9E1"/>
    <path fill-rule="evenodd" clip-rule="evenodd" d="M310.61 260.031C310.121 260.031 309.728 260.424 309.728 260.912C309.728 261.4 310.121 261.794 310.61 261.794C311.098 261.794 311.491 261.4 311.491 260.912C311.491 260.424 311.098 260.031 310.61 260.031Z" fill="#E4D9E1"/>
    <path fill-rule="evenodd" clip-rule="evenodd" d="M306.189 260.031C305.7 260.031 305.307 260.424 305.307 260.912C305.307 261.4 305.7 261.794 306.189 261.794C306.677 261.794 307.07 261.4 307.07 260.912C307.07 260.424 306.677 260.031 306.189 260.031Z" fill="#E4D9E1"/>
    <path fill-rule="evenodd" clip-rule="evenodd" d="M301.774 260.031C301.286 260.031 300.893 260.424 300.893 260.912C300.893 261.4 301.286 261.794 301.774 261.794C302.263 261.794 302.656 261.4 302.656 260.912C302.656 260.424 302.263 260.031 301.774 260.031Z" fill="#E4D9E1"/>
    <path fill-rule="evenodd" clip-rule="evenodd" d="M297.36 260.031C296.872 260.031 296.479 260.424 296.479 260.912C296.479 261.4 296.872 261.794 297.36 261.794C297.848 261.794 298.241 261.4 298.241 260.912C298.241 260.424 297.848 260.031 297.36 260.031Z" fill="#E4D9E1"/>
    <path fill-rule="evenodd" clip-rule="evenodd" d="M292.946 260.031C292.458 260.031 292.064 260.424 292.064 260.912C292.064 261.4 292.458 261.794 292.946 261.794C293.434 261.794 293.827 261.4 293.827 260.912C293.827 260.424 293.434 260.031 292.946 260.031Z" fill="#E4D9E1"/>
    <path fill-rule="evenodd" clip-rule="evenodd" d="M288.532 260.031C288.043 260.031 287.65 260.424 287.65 260.912C287.65 261.4 288.043 261.794 288.532 261.794C289.02 261.794 289.413 261.4 289.413 260.912C289.413 260.424 289.02 260.031 288.532 260.031Z" fill="#E4D9E1"/>
    <path fill-rule="evenodd" clip-rule="evenodd" d="M284.117 260.031C283.629 260.031 283.236 260.424 283.236 260.912C283.236 261.4 283.629 261.794 284.117 261.794C284.606 261.794 284.999 261.4 284.999 260.912C284.999 260.424 284.606 260.031 284.117 260.031Z" fill="#E4D9E1"/>
    <path fill-rule="evenodd" clip-rule="evenodd" d="M279.703 260.031C279.215 260.031 278.822 260.424 278.822 260.912C278.822 261.4 279.215 261.794 279.703 261.794C280.191 261.794 280.585 261.4 280.585 260.912C280.585 260.424 280.191 260.031 279.703 260.031Z" fill="#E4D9E1"/>
    <path fill-rule="evenodd" clip-rule="evenodd" d="M275.289 260.031C274.801 260.031 274.407 260.424 274.407 260.912C274.407 261.4 274.801 261.794 275.289 261.794C275.777 261.794 276.17 261.4 276.17 260.912C276.17 260.424 275.777 260.031 275.289 260.031Z" fill="#E4D9E1"/>
    <path fill-rule="evenodd" clip-rule="evenodd" d="M270.875 260.031C270.386 260.031 269.993 260.424 269.993 260.912C269.993 261.4 270.386 261.794 270.875 261.794C271.363 261.794 271.756 261.4 271.756 260.912C271.756 260.424 271.363 260.031 270.875 260.031Z" fill="#E4D9E1"/>
    <path fill-rule="evenodd" clip-rule="evenodd" d="M266.461 260.031C265.972 260.031 265.579 260.424 265.579 260.912C265.579 261.4 265.972 261.794 266.461 261.794C266.949 261.794 267.342 261.4 267.342 260.912C267.342 260.424 266.949 260.031 266.461 260.031Z" fill="#E4D9E1"/>
    <path fill-rule="evenodd" clip-rule="evenodd" d="M262.046 260.031C261.558 260.031 261.165 260.424 261.165 260.912C261.165 261.4 261.558 261.794 262.046 261.794C262.534 261.794 262.928 261.4 262.928 260.912C262.928 260.424 262.534 260.031 262.046 260.031Z" fill="#E4D9E1"/>
    <path fill-rule="evenodd" clip-rule="evenodd" d="M257.632 260.031C257.144 260.031 256.75 260.424 256.75 260.912C256.75 261.4 257.144 261.794 257.632 261.794C258.12 261.794 258.513 261.4 258.513 260.912C258.513 260.424 258.12 260.031 257.632 260.031Z" fill="#E4D9E1"/>
    <path fill-rule="evenodd" clip-rule="evenodd" d="M253.218 260.031C252.73 260.031 252.336 260.424 252.336 260.912C252.336 261.4 252.73 261.794 253.218 261.794C253.706 261.794 254.099 261.4 254.099 260.912C254.099 260.424 253.706 260.031 253.218 260.031Z" fill="#E4D9E1"/>
    <path fill-rule="evenodd" clip-rule="evenodd" d="M248.804 260.031C248.315 260.031 247.922 260.424 247.922 260.912C247.922 261.4 248.315 261.794 248.804 261.794C249.292 261.794 249.685 261.4 249.685 260.912C249.685 260.424 249.292 260.031 248.804 260.031Z" fill="#E4D9E1"/>
    <path fill-rule="evenodd" clip-rule="evenodd" d="M41.6929 86.7223C41.6929 86.2341 41.2996 85.8408 40.8114 85.8408C40.3232 85.8408 39.9299 86.2341 39.9299 86.7223C39.9299 87.2105 40.3232 87.6038 40.8114 87.6038C41.2996 87.6038 41.6929 87.2105 41.6929 86.7223Z" fill="#E4D9E1"/>
    <path fill-rule="evenodd" clip-rule="evenodd" d="M41.6929 82.3082C41.6929 81.82 41.2996 81.4268 40.8114 81.4268C40.3232 81.4268 39.9299 81.82 39.9299 82.3082C39.9299 82.7965 40.3232 83.1897 40.8114 83.1897C41.2996 83.1897 41.6929 82.7965 41.6929 82.3082Z" fill="#E4D9E1"/>
    <path fill-rule="evenodd" clip-rule="evenodd" d="M41.6929 77.8942C41.6929 77.406 41.2996 77.0127 40.8114 77.0127C40.3232 77.0127 39.9299 77.406 39.9299 77.8942C39.9299 78.3824 40.3232 78.7757 40.8114 78.7757C41.2996 78.7757 41.6929 78.3824 41.6929 77.8942Z" fill="#E4D9E1"/>
    <path fill-rule="evenodd" clip-rule="evenodd" d="M41.6929 73.4796C41.6929 72.9914 41.2996 72.5981 40.8114 72.5981C40.3232 72.5981 39.9299 72.9914 39.9299 73.4796C39.9299 73.9678 40.3232 74.3611 40.8114 74.3611C41.2996 74.3611 41.6929 73.9678 41.6929 73.4796Z" fill="#E4D9E1"/>
    <path fill-rule="evenodd" clip-rule="evenodd" d="M41.6929 69.0656C41.6929 68.5774 41.2996 68.1841 40.8114 68.1841C40.3232 68.1841 39.9299 68.5774 39.9299 69.0656C39.9299 69.5538 40.3232 69.9471 40.8114 69.9471C41.2996 69.9471 41.6929 69.5538 41.6929 69.0656Z" fill="#E4D9E1"/>
    <path fill-rule="evenodd" clip-rule="evenodd" d="M41.6929 64.6515C41.6929 64.1633 41.2996 63.77 40.8114 63.77C40.3232 63.77 39.9299 64.1633 39.9299 64.6515C39.9299 65.1397 40.3232 65.533 40.8114 65.533C41.2996 65.533 41.6929 65.1397 41.6929 64.6515Z" fill="#E4D9E1"/>
    <path fill-rule="evenodd" clip-rule="evenodd" d="M41.6929 60.2301C41.6929 59.7419 41.2996 59.3486 40.8114 59.3486C40.3232 59.3486 39.9299 59.7419 39.9299 60.2301C39.9299 60.7183 40.3232 61.1116 40.8114 61.1116C41.2996 61.1116 41.6929 60.7183 41.6929 60.2301Z" fill="#E4D9E1"/>
    <path fill-rule="evenodd" clip-rule="evenodd" d="M41.6929 55.8161C41.6929 55.3279 41.2996 54.9346 40.8114 54.9346C40.3232 54.9346 39.9299 55.3279 39.9299 55.8161C39.9299 56.3043 40.3232 56.6975 40.8114 56.6975C41.2996 56.6975 41.6929 56.3043 41.6929 55.8161Z" fill="#E4D9E1"/>
    <path fill-rule="evenodd" clip-rule="evenodd" d="M41.6929 51.402C41.6929 50.9138 41.2996 50.5205 40.8114 50.5205C40.3232 50.5205 39.9299 50.9138 39.9299 51.402C39.9299 51.8902 40.3232 52.2835 40.8114 52.2835C41.2996 52.2835 41.6929 51.8902 41.6929 51.402Z" fill="#E4D9E1"/>
    <path fill-rule="evenodd" clip-rule="evenodd" d="M41.6929 46.9874C41.6929 46.4992 41.2996 46.106 40.8114 46.106C40.3232 46.106 39.9299 46.4992 39.9299 46.9874C39.9299 47.4757 40.3232 47.8689 40.8114 47.8689C41.2996 47.8689 41.6929 47.4757 41.6929 46.9874Z" fill="#E4D9E1"/>
    <path fill-rule="evenodd" clip-rule="evenodd" d="M41.6929 42.5734C41.6929 42.0852 41.2996 41.6919 40.8114 41.6919C40.3232 41.6919 39.9299 42.0852 39.9299 42.5734C39.9299 43.0616 40.3232 43.4549 40.8114 43.4549C41.2996 43.4549 41.6929 43.0616 41.6929 42.5734Z" fill="#E4D9E1"/>
    <path fill-rule="evenodd" clip-rule="evenodd" d="M41.6929 38.1593C41.6929 37.6711 41.2996 37.2778 40.8114 37.2778C40.3232 37.2778 39.9299 37.6711 39.9299 38.1593C39.9299 38.6475 40.3232 39.0408 40.8114 39.0408C41.2996 39.0408 41.6929 38.6475 41.6929 38.1593Z" fill="#E4D9E1"/>
    <path fill-rule="evenodd" clip-rule="evenodd" d="M41.6929 33.7448C41.6929 33.2566 41.2996 32.8633 40.8114 32.8633C40.3232 32.8633 39.9299 33.2566 39.9299 33.7448C39.9299 34.233 40.3232 34.6263 40.8114 34.6263C41.2996 34.6263 41.6929 34.233 41.6929 33.7448Z" fill="#E4D9E1"/>
    <path fill-rule="evenodd" clip-rule="evenodd" d="M41.6929 29.3307C41.6929 28.8425 41.2996 28.4492 40.8114 28.4492C40.3232 28.4492 39.9299 28.8425 39.9299 29.3307C39.9299 29.8189 40.3232 30.2122 40.8114 30.2122C41.2996 30.2122 41.6929 29.8189 41.6929 29.3307Z" fill="#E4D9E1"/>
    <path fill-rule="evenodd" clip-rule="evenodd" d="M41.6929 24.9166C41.6929 24.4284 41.2996 24.0352 40.8114 24.0352C40.3232 24.0352 39.9299 24.4284 39.9299 24.9166C39.9299 25.4049 40.3232 25.7981 40.8114 25.7981C41.2996 25.7981 41.6929 25.4049 41.6929 24.9166Z" fill="#E4D9E1"/>
    <path fill-rule="evenodd" clip-rule="evenodd" d="M41.6929 20.5021C41.6929 20.0139 41.2996 19.6206 40.8114 19.6206C40.3232 19.6206 39.9299 20.0139 39.9299 20.5021C39.9299 20.9903 40.3232 21.3836 40.8114 21.3836C41.2996 21.3836 41.6929 20.9903 41.6929 20.5021Z" fill="#E4D9E1"/>
    <path fill-rule="evenodd" clip-rule="evenodd" d="M41.6929 16.088C41.6929 15.5998 41.2996 15.2065 40.8114 15.2065C40.3232 15.2065 39.9299 15.5998 39.9299 16.088C39.9299 16.5762 40.3232 16.9695 40.8114 16.9695C41.2996 16.9695 41.6929 16.5762 41.6929 16.088Z" fill="#E4D9E1"/>
    <path fill-rule="evenodd" clip-rule="evenodd" d="M37.2786 86.7223C37.2786 86.2341 36.8853 85.8408 36.3971 85.8408C35.9089 85.8408 35.5156 86.2341 35.5156 86.7223C35.5156 87.2105 35.9089 87.6038 36.3971 87.6038C36.8853 87.6038 37.2786 87.2105 37.2786 86.7223Z" fill="#E4D9E1"/>
    <path fill-rule="evenodd" clip-rule="evenodd" d="M37.2786 82.3082C37.2786 81.82 36.8853 81.4268 36.3971 81.4268C35.9089 81.4268 35.5156 81.82 35.5156 82.3082C35.5156 82.7965 35.9089 83.1897 36.3971 83.1897C36.8853 83.1897 37.2786 82.7965 37.2786 82.3082Z" fill="#E4D9E1"/>
    <path fill-rule="evenodd" clip-rule="evenodd" d="M37.2786 77.8942C37.2786 77.406 36.8853 77.0127 36.3971 77.0127C35.9089 77.0127 35.5156 77.406 35.5156 77.8942C35.5156 78.3824 35.9089 78.7757 36.3971 78.7757C36.8853 78.7757 37.2786 78.3824 37.2786 77.8942Z" fill="#E4D9E1"/>
    <path fill-rule="evenodd" clip-rule="evenodd" d="M37.2786 73.4796C37.2786 72.9914 36.8853 72.5981 36.3971 72.5981C35.9089 72.5981 35.5156 72.9914 35.5156 73.4796C35.5156 73.9678 35.9089 74.3611 36.3971 74.3611C36.8853 74.3611 37.2786 73.9678 37.2786 73.4796Z" fill="#E4D9E1"/>
    <path fill-rule="evenodd" clip-rule="evenodd" d="M37.2786 69.0656C37.2786 68.5774 36.8853 68.1841 36.3971 68.1841C35.9089 68.1841 35.5156 68.5774 35.5156 69.0656C35.5156 69.5538 35.9089 69.9471 36.3971 69.9471C36.8853 69.9471 37.2786 69.5538 37.2786 69.0656Z" fill="#E4D9E1"/>
    <path d="M36.3971 65.533C36.8839 65.533 37.2786 65.1383 37.2786 64.6515C37.2786 64.1647 36.8839 63.77 36.3971 63.77C35.9103 63.77 35.5156 64.1647 35.5156 64.6515C35.5156 65.1383 35.9103 65.533 36.3971 65.533Z" fill="#E4D9E1"/>
    <path fill-rule="evenodd" clip-rule="evenodd" d="M37.2786 60.2301C37.2786 59.7419 36.8853 59.3486 36.3971 59.3486C35.9089 59.3486 35.5156 59.7419 35.5156 60.2301C35.5156 60.7183 35.9089 61.1116 36.3971 61.1116C36.8853 61.1116 37.2786 60.7183 37.2786 60.2301Z" fill="#E4D9E1"/>
    <path fill-rule="evenodd" clip-rule="evenodd" d="M37.2786 55.8161C37.2786 55.3279 36.8853 54.9346 36.3971 54.9346C35.9089 54.9346 35.5156 55.3279 35.5156 55.8161C35.5156 56.3043 35.9089 56.6975 36.3971 56.6975C36.8853 56.6975 37.2786 56.3043 37.2786 55.8161Z" fill="#E4D9E1"/>
    <path d="M36.3971 52.2835C36.8839 52.2835 37.2786 51.8888 37.2786 51.402C37.2786 50.9152 36.8839 50.5205 36.3971 50.5205C35.9103 50.5205 35.5156 50.9152 35.5156 51.402C35.5156 51.8888 35.9103 52.2835 36.3971 52.2835Z" fill="#E4D9E1"/>
    <path fill-rule="evenodd" clip-rule="evenodd" d="M37.2786 46.9874C37.2786 46.4992 36.8853 46.106 36.3971 46.106C35.9089 46.106 35.5156 46.4992 35.5156 46.9874C35.5156 47.4757 35.9089 47.8689 36.3971 47.8689C36.8853 47.8689 37.2786 47.4757 37.2786 46.9874Z" fill="#E4D9E1"/>
    <path fill-rule="evenodd" clip-rule="evenodd" d="M37.2786 42.5734C37.2786 42.0852 36.8853 41.6919 36.3971 41.6919C35.9089 41.6919 35.5156 42.0852 35.5156 42.5734C35.5156 43.0616 35.9089 43.4549 36.3971 43.4549C36.8853 43.4549 37.2786 43.0616 37.2786 42.5734Z" fill="#E4D9E1"/>
    <path fill-rule="evenodd" clip-rule="evenodd" d="M37.2786 38.1593C37.2786 37.6711 36.8853 37.2778 36.3971 37.2778C35.9089 37.2778 35.5156 37.6711 35.5156 38.1593C35.5156 38.6475 35.9089 39.0408 36.3971 39.0408C36.8853 39.0408 37.2786 38.6475 37.2786 38.1593Z" fill="#E4D9E1"/>
    <path fill-rule="evenodd" clip-rule="evenodd" d="M37.2786 33.7448C37.2786 33.2566 36.8853 32.8633 36.3971 32.8633C35.9089 32.8633 35.5156 33.2566 35.5156 33.7448C35.5156 34.233 35.9089 34.6263 36.3971 34.6263C36.8853 34.6263 37.2786 34.233 37.2786 33.7448Z" fill="#E4D9E1"/>
    <path fill-rule="evenodd" clip-rule="evenodd" d="M37.2786 29.3307C37.2786 28.8425 36.8853 28.4492 36.3971 28.4492C35.9089 28.4492 35.5156 28.8425 35.5156 29.3307C35.5156 29.8189 35.9089 30.2122 36.3971 30.2122C36.8853 30.2122 37.2786 29.8189 37.2786 29.3307Z" fill="#E4D9E1"/>
    <path fill-rule="evenodd" clip-rule="evenodd" d="M37.2786 24.9166C37.2786 24.4284 36.8853 24.0352 36.3971 24.0352C35.9089 24.0352 35.5156 24.4284 35.5156 24.9166C35.5156 25.4049 35.9089 25.7981 36.3971 25.7981C36.8853 25.7981 37.2786 25.4049 37.2786 24.9166Z" fill="#E4D9E1"/>
    <path fill-rule="evenodd" clip-rule="evenodd" d="M37.2786 20.5021C37.2786 20.0139 36.8853 19.6206 36.3971 19.6206C35.9089 19.6206 35.5156 20.0139 35.5156 20.5021C35.5156 20.9903 35.9089 21.3836 36.3971 21.3836C36.8853 21.3836 37.2786 20.9903 37.2786 20.5021Z" fill="#E4D9E1"/>
    <path fill-rule="evenodd" clip-rule="evenodd" d="M37.2786 16.088C37.2786 15.5998 36.8853 15.2065 36.3971 15.2065C35.9089 15.2065 35.5156 15.5998 35.5156 16.088C35.5156 16.5762 35.9089 16.9695 36.3971 16.9695C36.8853 16.9695 37.2786 16.5762 37.2786 16.088Z" fill="#E4D9E1"/>
    <path fill-rule="evenodd" clip-rule="evenodd" d="M32.8645 86.7223C32.8645 86.2341 32.4713 85.8408 31.983 85.8408C31.4948 85.8408 31.1016 86.2341 31.1016 86.7223C31.1016 87.2105 31.4948 87.6038 31.983 87.6038C32.4713 87.6038 32.8645 87.2105 32.8645 86.7223Z" fill="#E4D9E1"/>
    <path fill-rule="evenodd" clip-rule="evenodd" d="M32.8645 82.3082C32.8645 81.82 32.4713 81.4268 31.983 81.4268C31.4948 81.4268 31.1016 81.82 31.1016 82.3082C31.1016 82.7965 31.4948 83.1897 31.983 83.1897C32.4713 83.1897 32.8645 82.7965 32.8645 82.3082Z" fill="#E4D9E1"/>
    <path fill-rule="evenodd" clip-rule="evenodd" d="M32.8645 77.8942C32.8645 77.406 32.4713 77.0127 31.983 77.0127C31.4948 77.0127 31.1016 77.406 31.1016 77.8942C31.1016 78.3824 31.4948 78.7757 31.983 78.7757C32.4713 78.7757 32.8645 78.3824 32.8645 77.8942Z" fill="#E4D9E1"/>
    <path fill-rule="evenodd" clip-rule="evenodd" d="M32.8645 73.4796C32.8645 72.9914 32.4713 72.5981 31.983 72.5981C31.4948 72.5981 31.1016 72.9914 31.1016 73.4796C31.1016 73.9678 31.4948 74.3611 31.983 74.3611C32.4713 74.3611 32.8645 73.9678 32.8645 73.4796Z" fill="#E4D9E1"/>
    <path fill-rule="evenodd" clip-rule="evenodd" d="M32.8645 69.0656C32.8645 68.5774 32.4713 68.1841 31.983 68.1841C31.4948 68.1841 31.1016 68.5774 31.1016 69.0656C31.1016 69.5538 31.4948 69.9471 31.983 69.9471C32.4713 69.9471 32.8645 69.5538 32.8645 69.0656Z" fill="#E4D9E1"/>
    <path fill-rule="evenodd" clip-rule="evenodd" d="M32.8645 64.6515C32.8645 64.1633 32.4713 63.77 31.983 63.77C31.4948 63.77 31.1016 64.1633 31.1016 64.6515C31.1016 65.1397 31.4948 65.533 31.983 65.533C32.4713 65.533 32.8645 65.1397 32.8645 64.6515Z" fill="#E4D9E1"/>
    <path fill-rule="evenodd" clip-rule="evenodd" d="M32.8645 60.2301C32.8645 59.7419 32.4713 59.3486 31.983 59.3486C31.4948 59.3486 31.1016 59.7419 31.1016 60.2301C31.1016 60.7183 31.4948 61.1116 31.983 61.1116C32.4713 61.1116 32.8645 60.7183 32.8645 60.2301Z" fill="#E4D9E1"/>
    <path fill-rule="evenodd" clip-rule="evenodd" d="M32.8645 55.8161C32.8645 55.3279 32.4713 54.9346 31.983 54.9346C31.4948 54.9346 31.1016 55.3279 31.1016 55.8161C31.1016 56.3043 31.4948 56.6975 31.983 56.6975C32.4713 56.6975 32.8645 56.3043 32.8645 55.8161Z" fill="#E4D9E1"/>
    <path fill-rule="evenodd" clip-rule="evenodd" d="M32.8645 51.402C32.8645 50.9138 32.4713 50.5205 31.983 50.5205C31.4948 50.5205 31.1016 50.9138 31.1016 51.402C31.1016 51.8902 31.4948 52.2835 31.983 52.2835C32.4713 52.2835 32.8645 51.8902 32.8645 51.402Z" fill="#E4D9E1"/>
    <path fill-rule="evenodd" clip-rule="evenodd" d="M32.8645 46.9874C32.8645 46.4992 32.4713 46.106 31.983 46.106C31.4948 46.106 31.1016 46.4992 31.1016 46.9874C31.1016 47.4757 31.4948 47.8689 31.983 47.8689C32.4713 47.8689 32.8645 47.4757 32.8645 46.9874Z" fill="#E4D9E1"/>
    <path fill-rule="evenodd" clip-rule="evenodd" d="M32.8645 42.5734C32.8645 42.0852 32.4713 41.6919 31.983 41.6919C31.4948 41.6919 31.1016 42.0852 31.1016 42.5734C31.1016 43.0616 31.4948 43.4549 31.983 43.4549C32.4713 43.4549 32.8645 43.0616 32.8645 42.5734Z" fill="#E4D9E1"/>
    <path fill-rule="evenodd" clip-rule="evenodd" d="M32.8645 38.1593C32.8645 37.6711 32.4713 37.2778 31.983 37.2778C31.4948 37.2778 31.1016 37.6711 31.1016 38.1593C31.1016 38.6475 31.4948 39.0408 31.983 39.0408C32.4713 39.0408 32.8645 38.6475 32.8645 38.1593Z" fill="#E4D9E1"/>
    <path fill-rule="evenodd" clip-rule="evenodd" d="M32.8645 33.7448C32.8645 33.2566 32.4713 32.8633 31.983 32.8633C31.4948 32.8633 31.1016 33.2566 31.1016 33.7448C31.1016 34.233 31.4948 34.6263 31.983 34.6263C32.4713 34.6263 32.8645 34.233 32.8645 33.7448Z" fill="#E4D9E1"/>
    <path fill-rule="evenodd" clip-rule="evenodd" d="M32.8645 29.3307C32.8645 28.8425 32.4713 28.4492 31.983 28.4492C31.4948 28.4492 31.1016 28.8425 31.1016 29.3307C31.1016 29.8189 31.4948 30.2122 31.983 30.2122C32.4713 30.2122 32.8645 29.8189 32.8645 29.3307Z" fill="#E4D9E1"/>
    <path fill-rule="evenodd" clip-rule="evenodd" d="M32.8645 24.9166C32.8645 24.4284 32.4713 24.0352 31.983 24.0352C31.4948 24.0352 31.1016 24.4284 31.1016 24.9166C31.1016 25.4049 31.4948 25.7981 31.983 25.7981C32.4713 25.7981 32.8645 25.4049 32.8645 24.9166Z" fill="#E4D9E1"/>
    <path fill-rule="evenodd" clip-rule="evenodd" d="M32.8645 20.5021C32.8645 20.0139 32.4713 19.6206 31.983 19.6206C31.4948 19.6206 31.1016 20.0139 31.1016 20.5021C31.1016 20.9903 31.4948 21.3836 31.983 21.3836C32.4713 21.3836 32.8645 20.9903 32.8645 20.5021Z" fill="#E4D9E1"/>
    <path fill-rule="evenodd" clip-rule="evenodd" d="M32.8645 16.088C32.8645 15.5998 32.4713 15.2065 31.983 15.2065C31.4948 15.2065 31.1016 15.5998 31.1016 16.088C31.1016 16.5762 31.4948 16.9695 31.983 16.9695C32.4713 16.9695 32.8645 16.5762 32.8645 16.088Z" fill="#E4D9E1"/>
    <path fill-rule="evenodd" clip-rule="evenodd" d="M28.4502 86.7223C28.4502 86.2341 28.057 85.8408 27.5687 85.8408C27.0805 85.8408 26.6873 86.2341 26.6873 86.7223C26.6873 87.2105 27.0805 87.6038 27.5687 87.6038C28.057 87.6038 28.4502 87.2105 28.4502 86.7223Z" fill="#E4D9E1"/>
    <path fill-rule="evenodd" clip-rule="evenodd" d="M28.4502 82.3082C28.4502 81.82 28.057 81.4268 27.5687 81.4268C27.0805 81.4268 26.6873 81.82 26.6873 82.3082C26.6873 82.7965 27.0805 83.1897 27.5687 83.1897C28.057 83.1897 28.4502 82.7965 28.4502 82.3082Z" fill="#E4D9E1"/>
    <path fill-rule="evenodd" clip-rule="evenodd" d="M28.4502 77.8942C28.4502 77.406 28.057 77.0127 27.5687 77.0127C27.0805 77.0127 26.6873 77.406 26.6873 77.8942C26.6873 78.3824 27.0805 78.7757 27.5687 78.7757C28.057 78.7757 28.4502 78.3824 28.4502 77.8942Z" fill="#E4D9E1"/>
    <path fill-rule="evenodd" clip-rule="evenodd" d="M28.4502 73.4796C28.4502 72.9914 28.057 72.5981 27.5687 72.5981C27.0805 72.5981 26.6873 72.9914 26.6873 73.4796C26.6873 73.9678 27.0805 74.3611 27.5687 74.3611C28.057 74.3611 28.4502 73.9678 28.4502 73.4796Z" fill="#E4D9E1"/>
    <path fill-rule="evenodd" clip-rule="evenodd" d="M28.4502 69.0656C28.4502 68.5774 28.057 68.1841 27.5687 68.1841C27.0805 68.1841 26.6873 68.5774 26.6873 69.0656C26.6873 69.5538 27.0805 69.9471 27.5687 69.9471C28.057 69.9471 28.4502 69.5538 28.4502 69.0656Z" fill="#E4D9E1"/>
    <path fill-rule="evenodd" clip-rule="evenodd" d="M28.4502 64.6515C28.4502 64.1633 28.057 63.77 27.5687 63.77C27.0805 63.77 26.6873 64.1633 26.6873 64.6515C26.6873 65.1397 27.0805 65.533 27.5687 65.533C28.057 65.533 28.4502 65.1397 28.4502 64.6515Z" fill="#E4D9E1"/>
    <path fill-rule="evenodd" clip-rule="evenodd" d="M28.4502 60.2301C28.4502 59.7419 28.057 59.3486 27.5687 59.3486C27.0805 59.3486 26.6873 59.7419 26.6873 60.2301C26.6873 60.7183 27.0805 61.1116 27.5687 61.1116C28.057 61.1116 28.4502 60.7183 28.4502 60.2301Z" fill="#E4D9E1"/>
    <path fill-rule="evenodd" clip-rule="evenodd" d="M28.4502 55.8161C28.4502 55.3279 28.057 54.9346 27.5687 54.9346C27.0805 54.9346 26.6873 55.3279 26.6873 55.8161C26.6873 56.3043 27.0805 56.6975 27.5687 56.6975C28.057 56.6975 28.4502 56.3043 28.4502 55.8161Z" fill="#E4D9E1"/>
    <path fill-rule="evenodd" clip-rule="evenodd" d="M28.4502 51.402C28.4502 50.9138 28.057 50.5205 27.5687 50.5205C27.0805 50.5205 26.6873 50.9138 26.6873 51.402C26.6873 51.8902 27.0805 52.2835 27.5687 52.2835C28.057 52.2835 28.4502 51.8902 28.4502 51.402Z" fill="#E4D9E1"/>
    <path fill-rule="evenodd" clip-rule="evenodd" d="M28.4502 46.9874C28.4502 46.4992 28.057 46.106 27.5687 46.106C27.0805 46.106 26.6873 46.4992 26.6873 46.9874C26.6873 47.4757 27.0805 47.8689 27.5687 47.8689C28.057 47.8689 28.4502 47.4757 28.4502 46.9874Z" fill="#E4D9E1"/>
    <path fill-rule="evenodd" clip-rule="evenodd" d="M28.4502 42.5734C28.4502 42.0852 28.057 41.6919 27.5687 41.6919C27.0805 41.6919 26.6873 42.0852 26.6873 42.5734C26.6873 43.0616 27.0805 43.4549 27.5687 43.4549C28.057 43.4549 28.4502 43.0616 28.4502 42.5734Z" fill="#E4D9E1"/>
    <path fill-rule="evenodd" clip-rule="evenodd" d="M28.4502 38.1593C28.4502 37.6711 28.057 37.2778 27.5687 37.2778C27.0805 37.2778 26.6873 37.6711 26.6873 38.1593C26.6873 38.6475 27.0805 39.0408 27.5687 39.0408C28.057 39.0408 28.4502 38.6475 28.4502 38.1593Z" fill="#E4D9E1"/>
    <path fill-rule="evenodd" clip-rule="evenodd" d="M28.4502 33.7448C28.4502 33.2566 28.057 32.8633 27.5687 32.8633C27.0805 32.8633 26.6873 33.2566 26.6873 33.7448C26.6873 34.233 27.0805 34.6263 27.5687 34.6263C28.057 34.6263 28.4502 34.233 28.4502 33.7448Z" fill="#E4D9E1"/>
    <path fill-rule="evenodd" clip-rule="evenodd" d="M28.4502 29.3307C28.4502 28.8425 28.057 28.4492 27.5687 28.4492C27.0805 28.4492 26.6873 28.8425 26.6873 29.3307C26.6873 29.8189 27.0805 30.2122 27.5687 30.2122C28.057 30.2122 28.4502 29.8189 28.4502 29.3307Z" fill="#E4D9E1"/>
    <path fill-rule="evenodd" clip-rule="evenodd" d="M28.4502 24.9166C28.4502 24.4284 28.057 24.0352 27.5687 24.0352C27.0805 24.0352 26.6873 24.4284 26.6873 24.9166C26.6873 25.4049 27.0805 25.7981 27.5687 25.7981C28.057 25.7981 28.4502 25.4049 28.4502 24.9166Z" fill="#E4D9E1"/>
    <path fill-rule="evenodd" clip-rule="evenodd" d="M28.4502 20.5021C28.4502 20.0139 28.057 19.6206 27.5687 19.6206C27.0805 19.6206 26.6873 20.0139 26.6873 20.5021C26.6873 20.9903 27.0805 21.3836 27.5687 21.3836C28.057 21.3836 28.4502 20.9903 28.4502 20.5021Z" fill="#E4D9E1"/>
    <path fill-rule="evenodd" clip-rule="evenodd" d="M28.4502 16.088C28.4502 15.5998 28.057 15.2065 27.5687 15.2065C27.0805 15.2065 26.6873 15.5998 26.6873 16.088C26.6873 16.5762 27.0805 16.9695 27.5687 16.9695C28.057 16.9695 28.4502 16.5762 28.4502 16.088Z" fill="#E4D9E1"/>
    <path fill-rule="evenodd" clip-rule="evenodd" d="M125.07 131.276C125.07 131.276 118.716 136.999 116.797 146.417C114.878 155.836 108.64 204.195 108.64 204.195C108.64 204.195 138.421 186.525 138.421 185.657C138.421 184.789 141.906 144.329 125.07 131.276Z" fill="white"/>
    <path fill-rule="evenodd" clip-rule="evenodd" d="M222.494 131.514C222.494 131.514 228.848 137.237 230.767 146.655C232.686 156.073 238.924 204.433 238.924 204.433C238.924 204.433 209.143 186.763 209.143 185.895C209.143 185.027 205.658 144.56 222.494 131.514Z" fill="white"/>
    <path d="M173.023 75.5728H173.016C164.481 75.5728 157.563 82.4914 157.563 91.0259V132.497C157.563 141.031 164.481 147.95 173.016 147.95H173.023C181.557 147.95 188.476 141.031 188.476 132.497V91.0259C188.476 82.4914 181.557 75.5728 173.023 75.5728Z" fill="#FCD1C8"/>
    <path fill-rule="evenodd" clip-rule="evenodd" d="M173.016 75.5727C164.513 75.5727 157.563 82.5297 157.563 91.0259V115.938C160.77 118.759 165.544 122.841 167.713 124.041C169.754 125.173 172.304 125.696 174.826 125.689C177.349 125.689 179.898 125.167 181.939 124.041C183.377 123.241 185.96 121.186 188.469 119.064V91.0191C188.469 82.5161 181.512 75.5659 173.016 75.5659V75.5727Z" fill="#F8A8A0"/>
    <path fill-rule="evenodd" clip-rule="evenodd" d="M197.474 122.658L192.049 120.569L173.016 134.673L154.057 120.847L148.673 122.922C153.135 133.5 162.316 154.005 173.016 154.005C183.716 154.005 193.053 133.371 197.474 122.658Z" fill="#EFE8ED"/>
    <path fill-rule="evenodd" clip-rule="evenodd" d="M132.094 169.668L132.908 222.497C132.908 222.497 129.145 225.141 132.047 229.013L129.904 240.459C162.282 229.813 180.271 229.379 207.523 239.53C210.744 240.73 214.127 241.964 217.626 243.144L213.103 219.635C216.005 215.763 212.242 213.119 212.242 213.119L213.076 172.421C206.187 154.839 215.056 143.868 220.155 131.398L197.487 122.665C193.066 133.378 183.777 140.769 173.029 140.769C162.282 140.769 153.148 133.507 148.687 122.929L126.697 131.405C128.107 139.623 139.94 149.224 132.108 169.682L132.094 169.668Z" fill="#9E6D82"/>
    <path fill-rule="evenodd" clip-rule="evenodd" d="M132.786 214.78L132.901 222.497C132.901 222.497 129.138 225.141 132.04 229.013L169.314 201.07C169.314 201.07 172.256 198.52 175.918 201.626C178.881 204.135 197.847 221.459 214.893 229.02L213.09 219.635C215.992 215.763 212.229 213.119 212.229 213.119L212.296 210.007C191.181 200.453 167.157 189.604 167.157 189.604L132.786 214.78Z" fill="#4C466A"/>
    <path d="M173.016 144.207C160.417 144.207 149.141 136.226 144.957 124.346C144.903 124.19 144.985 124.014 145.141 123.96C145.297 123.905 145.466 123.987 145.527 124.143C149.623 135.785 160.675 143.603 173.016 143.603C185.357 143.603 196.579 135.677 200.6 123.878C200.654 123.722 200.824 123.634 200.979 123.688C201.135 123.743 201.224 123.912 201.169 124.068C197.06 136.111 185.743 144.2 173.016 144.2V144.207Z" fill="#4C466A"/>
    <path fill-rule="evenodd" clip-rule="evenodd" d="M157.563 117.05C157.563 117.05 154.355 118.874 153.806 120.441C153.257 122.014 157.732 142.681 157.732 142.681C157.732 142.681 158.281 143.658 159.265 143.373C160.248 143.088 173.023 134.673 173.023 134.673L157.57 120.352V117.05H157.563Z" fill="white"/>
    <path fill-rule="evenodd" clip-rule="evenodd" d="M188.476 117.05C188.476 117.05 191.683 118.874 192.232 120.441C192.782 122.014 188.306 142.681 188.306 142.681C188.306 142.681 187.757 143.658 186.774 143.373C185.791 143.088 173.016 134.673 173.016 134.673L188.469 120.298V117.05H188.476Z" fill="white"/>
    <path fill-rule="evenodd" clip-rule="evenodd" d="M107.128 112.365C107.128 112.365 108.104 110.792 109.325 112.127C110.545 113.456 116.96 119.993 121.157 123.037C125.354 126.082 132.779 128.577 135.451 130.971C138.122 133.364 147.663 140.993 150.158 143.034C152.653 145.075 154.118 149.781 151.013 154.398C147.907 159.016 139.465 160.792 132.23 155.327C124.995 149.862 120.33 144.959 118.567 142.912C116.804 140.864 117.543 139.148 117.543 139.148C117.543 139.148 110.857 133.568 107.86 128.679C104.856 123.797 106.158 121.525 106.158 121.525C106.158 121.525 103.941 119.206 102.856 117.477C101.764 115.748 102.958 114.345 102.958 114.345C101.887 111.775 103.975 108.866 104.958 110.086C105.813 111.144 107.121 112.351 107.121 112.351L107.128 112.365Z" fill="#FCD1C8"/>
    <path d="M129.884 144.01C129.83 144.01 129.782 143.996 129.728 143.969C128.569 143.284 126.894 142.464 125.266 141.671C123.192 140.66 121.056 139.609 119.944 138.823C119.401 138.436 118.94 138.307 118.567 138.43C118.045 138.606 117.835 139.25 117.835 139.257C117.787 139.413 117.618 139.508 117.455 139.453C117.299 139.406 117.211 139.236 117.258 139.08C117.272 139.04 117.557 138.138 118.37 137.867C118.933 137.677 119.577 137.833 120.289 138.335C121.361 139.094 123.483 140.131 125.531 141.135C127.165 141.935 128.853 142.762 130.033 143.454C130.176 143.535 130.223 143.725 130.142 143.868C130.087 143.963 129.986 144.017 129.884 144.017V144.01ZM126.928 133.602C126.894 133.602 126.853 133.602 126.819 133.581C116.011 129.262 110.912 123.993 108.993 122.007C108.837 121.844 108.701 121.708 108.586 121.586C108.145 121.146 107.732 120.949 107.352 120.996C106.782 121.071 106.43 121.681 106.423 121.688C106.342 121.83 106.158 121.885 106.009 121.803C105.867 121.722 105.813 121.539 105.894 121.396C105.914 121.363 106.396 120.529 107.264 120.406C107.84 120.332 108.43 120.583 109.006 121.166C109.128 121.288 109.264 121.43 109.42 121.593C111.312 123.553 116.343 128.753 127.036 133.025C127.192 133.086 127.267 133.263 127.206 133.419C127.158 133.534 127.043 133.608 126.928 133.608V133.602ZM128.969 130.469C128.935 130.469 128.894 130.462 128.853 130.449C120.886 127.221 113.041 121.932 105.535 114.745C105.216 114.439 104.992 114.222 104.877 114.128C104.673 113.958 104.463 113.883 104.233 113.904C103.684 113.958 103.202 114.541 103.195 114.548C103.094 114.677 102.904 114.697 102.775 114.595C102.646 114.494 102.626 114.304 102.727 114.175C102.755 114.141 103.365 113.388 104.178 113.314C104.572 113.273 104.938 113.395 105.27 113.673C105.392 113.775 105.623 113.999 105.955 114.317C113.407 121.451 121.191 126.692 129.091 129.899C129.247 129.96 129.314 130.137 129.253 130.293C129.206 130.408 129.091 130.483 128.975 130.483L128.969 130.469ZM127.857 127.065C127.816 127.065 127.775 127.058 127.735 127.038C115.733 121.715 106.992 112.67 106.904 112.575C106.789 112.453 106.796 112.263 106.911 112.148C107.033 112.032 107.223 112.039 107.338 112.154C107.426 112.243 116.092 121.207 127.979 126.482C128.128 126.55 128.196 126.726 128.135 126.882C128.087 126.997 127.972 127.058 127.857 127.058V127.065Z" fill="#F8A8A0"/>
    <path fill-rule="evenodd" clip-rule="evenodd" d="M232.279 192.98C220.772 183.515 172.684 151.537 169.395 148.987C165.686 146.112 160.926 147.997 160.926 147.997C157.603 150.669 153.528 152.744 151.108 155.822C146.653 161.491 145.113 167.79 145.113 167.79C145.113 167.79 144.178 172.842 148.409 176.646C157.075 184.437 202.797 213.946 215.687 222.924C231.398 233.868 249.095 206.806 232.279 192.98Z" fill="white"/>
    <path fill-rule="evenodd" clip-rule="evenodd" d="M204.919 173.309C201.319 170.828 197.671 168.326 194.145 165.918L166.771 188.607L167.551 190.593C169.721 192.078 171.985 193.618 174.304 195.184C178.508 192.933 185.662 189.034 194.477 183.989C202.241 179.548 204.492 175.805 204.919 173.309Z" fill="#E4D9E1"/>
    <path fill-rule="evenodd" clip-rule="evenodd" d="M160.926 147.998L153.087 142.22C153.087 142.22 151.189 141.149 149.439 143.014C147.69 144.885 140.218 153.246 137.939 160.033C137.939 160.033 137.058 161.349 139.187 163.037C141.316 164.725 145.107 167.784 145.107 167.784C145.107 167.784 151.501 155.578 160.926 147.991V147.998Z" fill="white"/>
    <path fill-rule="evenodd" clip-rule="evenodd" d="M236.741 113.111C236.741 113.111 235.764 111.538 234.544 112.873C233.323 114.202 226.909 120.739 222.705 123.784C218.508 126.828 211.083 129.323 208.411 131.717C205.739 134.111 196.199 141.739 193.704 143.78C191.208 145.821 189.744 150.527 192.849 155.144C195.955 159.762 204.397 161.538 211.632 156.073C218.867 150.608 223.532 145.706 225.288 143.658C227.051 141.61 226.312 139.894 226.312 139.894C226.312 139.894 232.998 134.314 235.995 129.425C238.992 124.543 237.697 122.271 237.697 122.271C237.697 122.271 239.914 119.952 240.999 118.223C242.091 116.494 240.897 115.091 240.897 115.091C241.969 112.521 239.88 109.612 238.897 110.832C238.043 111.89 236.734 113.097 236.734 113.097L236.741 113.111Z" fill="#FCD1C8"/>
    <path d="M213.985 144.756C213.883 144.756 213.781 144.702 213.727 144.607C213.646 144.465 213.687 144.282 213.836 144.193C215.009 143.502 216.697 142.675 218.331 141.874C220.379 140.871 222.501 139.833 223.573 139.074C224.278 138.572 224.929 138.409 225.485 138.606C226.299 138.884 226.583 139.786 226.597 139.82C226.644 139.976 226.556 140.145 226.4 140.193C226.244 140.247 226.075 140.152 226.021 139.996C226.021 139.996 225.81 139.345 225.288 139.169C224.922 139.047 224.454 139.176 223.919 139.562C222.807 140.349 220.664 141.4 218.589 142.417C216.968 143.21 215.287 144.031 214.134 144.716C214.087 144.743 214.032 144.756 213.985 144.756ZM216.941 134.348C216.819 134.348 216.711 134.28 216.663 134.158C216.602 134.002 216.677 133.826 216.833 133.765C227.519 129.5 232.55 124.292 234.449 122.332C234.605 122.17 234.741 122.027 234.863 121.905C235.439 121.322 236.029 121.071 236.605 121.146C237.473 121.261 237.955 122.095 237.975 122.136C238.056 122.278 238.009 122.461 237.86 122.543C237.717 122.624 237.534 122.577 237.446 122.427C237.446 122.427 237.087 121.81 236.517 121.736C236.137 121.682 235.724 121.885 235.283 122.326C235.168 122.441 235.032 122.583 234.876 122.746C232.957 124.733 227.858 130.001 217.05 134.321C217.016 134.334 216.975 134.341 216.941 134.341V134.348ZM214.9 131.215C214.778 131.215 214.67 131.141 214.622 131.025C214.561 130.869 214.636 130.693 214.785 130.632C222.678 127.432 230.462 122.19 237.914 115.057C238.246 114.738 238.484 114.514 238.606 114.413C238.931 114.135 239.297 114.006 239.697 114.053C240.504 114.135 241.121 114.887 241.148 114.914C241.25 115.043 241.23 115.233 241.101 115.335C240.972 115.437 240.782 115.416 240.68 115.287C240.68 115.287 240.199 114.697 239.643 114.643C239.412 114.623 239.202 114.697 238.999 114.867C238.884 114.962 238.66 115.179 238.341 115.484C230.835 122.672 222.99 127.954 215.022 131.181C214.988 131.195 214.948 131.202 214.907 131.202L214.9 131.215ZM216.012 127.811C215.897 127.811 215.789 127.743 215.741 127.635C215.673 127.486 215.741 127.303 215.89 127.235C227.777 121.96 236.443 112.995 236.531 112.907C236.646 112.785 236.836 112.785 236.958 112.901C237.08 113.016 237.08 113.206 236.965 113.328C236.876 113.416 228.136 122.468 216.134 127.791C216.094 127.811 216.053 127.818 216.012 127.818V127.811Z" fill="#F8A8A0"/>
    <path fill-rule="evenodd" clip-rule="evenodd" d="M115.19 193.333C126.697 183.867 173.206 151.537 176.494 148.987C180.197 146.112 184.963 147.997 184.963 147.997C188.286 150.669 192.368 152.744 194.782 155.822C199.23 161.491 200.776 167.79 200.776 167.79C200.776 167.79 201.712 172.842 197.481 176.646C188.815 184.437 144.673 214.299 131.782 223.277C116.072 234.221 98.3741 207.159 115.19 193.333Z" fill="white"/>
    <path fill-rule="evenodd" clip-rule="evenodd" d="M184.963 147.998L192.802 142.22C192.802 142.22 194.7 141.149 196.45 143.014C198.199 144.885 205.672 153.246 207.943 160.033C207.943 160.033 208.825 161.349 206.695 163.037C204.566 164.725 200.776 167.784 200.776 167.784C200.776 167.784 194.388 155.578 184.957 147.991L184.963 147.998Z" fill="white"/>
    <path fill-rule="evenodd" clip-rule="evenodd" d="M147.473 81.4245C147.473 81.4245 144.571 78.2105 142.605 78.4071C140.638 78.6037 138.204 82.9841 138.489 86.293C138.767 89.602 142.516 101.088 148.972 96.7082C155.427 92.3279 147.473 81.4245 147.473 81.4245Z" fill="#FCD1C8"/>
    <path fill-rule="evenodd" clip-rule="evenodd" d="M149.941 85.1269C150.165 85.3506 150.233 85.7439 150.091 85.9948C149.962 86.2185 149.704 86.2592 149.494 86.1033C149.494 86.1033 147.765 96.2946 146.307 94.708C144.856 93.1213 143.323 91.5956 142.706 89.019C142.089 86.4355 144.293 84.0623 143.493 83.3842C142.733 82.7401 141.92 83.7504 141.845 83.8453C141.201 84.72 140.909 85.7507 140.909 85.7575C140.821 86.0558 140.543 86.1643 140.292 86.0016C140.042 85.8388 139.913 85.4659 140.001 85.1675C140.001 85.154 141.113 81.289 143.846 81.411C146.456 81.5263 149.941 85.1201 149.955 85.1336L149.941 85.1269Z" fill="#F8A8A0"/>
    <path fill-rule="evenodd" clip-rule="evenodd" d="M199.888 81.4245C199.888 81.4245 202.79 78.2105 204.756 78.4071C206.723 78.6037 209.157 82.9841 208.872 86.293C208.594 89.602 204.851 101.088 198.389 96.7082C191.927 92.3279 199.888 81.4245 199.888 81.4245Z" fill="#FCD1C8"/>
    <path fill-rule="evenodd" clip-rule="evenodd" d="M197.413 85.1269C197.189 85.3506 197.121 85.7439 197.271 85.9948C197.399 86.2185 197.657 86.2592 197.867 86.1033C197.867 86.1033 199.596 96.2946 201.054 94.708C202.512 93.1213 204.038 91.5956 204.655 89.019C205.272 86.4355 203.068 84.0623 203.868 83.3842C204.628 82.7401 205.441 83.7504 205.516 83.8453C206.153 84.72 206.452 85.7507 206.452 85.7575C206.54 86.0558 206.818 86.1643 207.069 86.0016C207.319 85.8388 207.455 85.4659 207.367 85.1675C207.367 85.154 206.255 81.289 203.522 81.411C200.912 81.5263 197.426 85.1201 197.413 85.1336V85.1269Z" fill="#F8A8A0"/>
    <path fill-rule="evenodd" clip-rule="evenodd" d="M173.68 41.2827C138.529 41.8116 143.703 70.2701 146.802 93.216C148.104 102.872 153.243 108.574 153.243 108.574C153.243 108.574 163.15 117.62 166.567 119.518C168.608 120.651 171.158 121.173 173.68 121.166C176.203 121.166 178.752 120.644 180.793 119.518C184.218 117.62 194.124 108.574 194.124 108.574C194.124 108.574 199.257 102.872 200.566 93.216C203.665 70.2701 208.838 41.8116 173.687 41.2827H173.68Z" fill="#FCD1C8"/>
    <path fill-rule="evenodd" clip-rule="evenodd" d="M173.511 59.4757L175.016 64.6154C175.016 64.6154 155.284 74.5559 147.907 62.6965C140.523 50.8371 173.511 59.4757 173.511 59.4757ZM186.076 60.5741L180.936 67.8498C180.936 67.8498 192.049 67.0904 197.467 59.157C202.885 51.2236 186.076 60.5674 186.076 60.5674V60.5741Z" fill="#F8A8A0"/>
    <path fill-rule="evenodd" clip-rule="evenodd" d="M190.625 54.4035C196.701 58.838 198.626 66.0391 198.348 78.1765C198.213 84.1232 201.515 86.1167 201.515 86.1167C201.515 86.1167 202.085 79.4649 203.176 78.7936C202.986 63.4353 206.194 51.915 191.663 44.09C185.614 40.8353 179.647 39.2012 173.674 39.2012C167.7 39.2012 161.733 40.8285 155.684 44.09C141.153 51.915 144.361 63.4353 144.171 78.7936C145.263 79.4649 145.832 86.1167 145.832 86.1167C145.832 86.1167 149.134 84.1232 148.999 78.1765C148.721 66.0459 150.653 58.8448 156.722 54.4035C161.509 50.9046 167.591 49.1891 173.674 49.2027C179.749 49.1891 185.831 50.8979 190.625 54.4035Z" fill="#4C466A"/>
    <path d="M186.699 78.6445C188.666 78.6445 190.266 80.2448 190.266 82.2112V85.6354C190.266 87.6018 188.666 89.2021 186.699 89.2021C184.726 89.2021 183.133 87.6018 183.133 85.6354V82.2112C183.133 80.238 184.733 78.6445 186.699 78.6445Z" fill="#4C466A"/>
    <path d="M160.655 78.6445C162.628 78.6445 164.221 80.2448 164.221 82.2112V85.6354C164.221 87.6086 162.621 89.2021 160.655 89.2021C158.682 89.2021 157.088 87.6018 157.088 85.6354V82.2112C157.088 80.238 158.688 78.6445 160.655 78.6445Z" fill="#4C466A"/>
    <path fill-rule="evenodd" clip-rule="evenodd" d="M164.465 79.1528C164.465 79.1528 165.259 79.4443 166.039 79.1731C166.818 78.9019 167.551 77.7153 167.544 77.4237C167.53 77.1321 167.083 77.5525 165.713 76.7727C164.371 76.0065 159.319 73.9994 155.4 77.3423C154.722 77.9187 155.149 78.4543 155.949 78.2645C156.749 78.0746 160.221 76.6914 164.465 79.146V79.1528Z" fill="#4C466A"/>
    <path fill-rule="evenodd" clip-rule="evenodd" d="M182.902 74.5149C182.902 74.5149 182.116 74.8133 181.329 74.5488C180.542 74.2844 179.803 73.1046 179.81 72.813C179.817 72.5214 180.271 72.935 181.634 72.1485C182.97 71.3755 188.001 69.3142 191.954 72.6231C192.632 73.1927 192.219 73.7352 191.412 73.5521C190.605 73.369 187.126 72.0197 182.902 74.5082V74.5149Z" fill="#4C466A"/>
    <path fill-rule="evenodd" clip-rule="evenodd" d="M175.335 84.1572C175.362 84.4013 175.335 84.6522 175.24 84.8353C174.596 86.0965 171.795 91.4939 171.782 92.233C171.823 93.1959 174.481 94.0638 175.918 94.2198C176.806 94.3147 175.599 97.3118 174.162 96.7829C172.629 96.2201 170.432 94.1045 170.358 92.2669C170.324 91.3854 172.141 87.6018 173.45 85.0658C173.782 84.4149 173.633 83.7097 173.545 83.2554C173.314 82.062 175.233 83.3639 175.335 84.1572Z" fill="#F8A8A0"/>
    <path fill-rule="evenodd" clip-rule="evenodd" d="M175.145 102.94C175.511 103.001 175.755 103.347 175.687 103.713C175.626 104.079 175.281 104.323 174.914 104.255C174.914 104.255 174.175 104.14 173.029 104.126C171.89 104.215 171.158 104.384 171.158 104.384C170.799 104.472 170.439 104.255 170.351 103.896C170.263 103.536 170.487 103.177 170.839 103.089C170.839 103.089 171.687 102.892 172.982 102.797C174.284 102.804 175.138 102.94 175.138 102.947L175.145 102.94Z" fill="#F8A8A0"/>
    <path fill-rule="evenodd" clip-rule="evenodd" d="M180.739 100.478C181.098 100.594 181.302 100.98 181.187 101.34C181.071 101.699 180.692 101.902 180.325 101.787C180.305 101.787 176.847 100.655 173.131 100.736C169.415 100.912 166.039 102.269 166.025 102.275C165.672 102.411 165.272 102.241 165.137 101.889C165.001 101.536 165.171 101.143 165.523 101.001C165.544 100.994 169.083 99.5631 173.084 99.3868C177.091 99.2918 180.719 100.478 180.739 100.485V100.478Z" fill="#F8A8A0"/>
    <path fill-rule="evenodd" clip-rule="evenodd" d="M180.868 120.881C184.36 118.386 186.367 116.46 187.723 114.684C189.886 111.856 183.845 115.552 183.743 115.626C181.566 117.172 179.329 117.789 177.823 117.105C176.318 116.42 175.111 116.454 174.609 116.454H172.738C172.236 116.454 171.036 116.42 169.524 117.105C168.019 117.789 165.781 117.172 163.604 115.626C163.503 115.552 157.468 111.863 159.624 114.684C160.987 116.46 162.987 118.386 166.479 120.881C168.751 122.502 171.212 123.316 173.674 123.316C176.135 123.316 178.596 122.502 180.868 120.881Z" fill="#4C466A"/>
    <path fill-rule="evenodd" clip-rule="evenodd" d="M180.936 67.8496C180.936 67.8496 179.383 68.1683 178.807 67.3478C178.237 66.5206 179.044 64.9203 180.441 63.7269C181.844 62.5335 185.424 58.2753 185.886 55.2985C185.886 55.2985 177.844 69.4091 158.959 66.568C140.075 63.7269 148.897 41.3642 160.099 35.4989C171.307 29.6337 181.58 35.682 181.58 35.682C177.667 31.3763 191.805 28.9081 193.304 41.2693C210.065 49.6841 187.777 66.507 180.929 67.8428L180.936 67.8496Z" fill="#4C466A"/>
    <path fill-rule="evenodd" clip-rule="evenodd" d="M148.253 58.0582C147.256 53.5966 148.843 48.1788 151.745 43.6222C156.213 46.3073 163.564 47.9686 174.372 42.4355C174.372 42.4355 163.821 60.6078 148.253 58.0582Z" fill="#675D82"/>
    <path d="M158.553 95.0332C154.735 95.0332 150.918 92.565 148.592 88.5915C146.314 84.6994 145.995 80.3123 147.778 77.1322C149.514 74.0266 154.993 72.9214 159.156 72.9214C163.679 72.9214 169.436 74.169 170.785 77.7018C172.114 81.1803 171.517 85.3639 169.178 88.8831C166.71 92.5989 162.852 94.8976 158.865 95.0264C158.763 95.0264 158.661 95.0264 158.559 95.0264L158.553 95.0332ZM159.149 73.7622C154.043 73.7622 149.772 75.2811 148.504 77.5458C146.87 80.4615 147.181 84.5299 149.311 88.1644C151.548 91.9751 155.189 94.3077 158.824 94.1856C162.546 94.0636 166.147 91.9073 168.466 88.4152C170.656 85.1198 171.226 81.2277 169.985 78.0001C168.866 75.0776 163.733 73.7622 159.143 73.7622H159.149Z" fill="white"/>
    <path d="M188.489 94.2057C188.367 94.2057 188.245 94.2057 188.123 94.199C184.428 94.043 180.881 91.88 178.63 88.4218C176.501 85.1468 175.979 81.2682 177.247 78.0609C178.508 74.8672 183.729 73.7349 187.818 73.7349C191.907 73.7349 196.924 74.7859 198.538 77.7422C200.145 80.6851 199.827 84.7196 197.718 88.2862C195.548 91.941 192.015 94.2125 188.489 94.2125V94.2057ZM187.818 74.5757C183.689 74.5757 179.064 75.7487 178.027 78.3661C176.86 81.3225 177.349 84.9094 179.335 87.9607C181.437 91.1951 184.733 93.209 188.157 93.3582C191.52 93.4802 194.904 91.3646 196.992 87.8455C198.952 84.5365 199.264 80.8207 197.799 78.1355C196.633 75.9996 192.619 74.5689 187.818 74.5689V74.5757Z" fill="white"/>
    <path d="M176.983 82.15C176.874 82.15 176.766 82.1093 176.684 82.0211C176.603 81.9398 174.698 80.0954 171.28 82.0415C171.077 82.1568 170.819 82.089 170.704 81.8855C170.588 81.6821 170.656 81.4244 170.86 81.3092C174.874 79.0241 177.186 81.3363 177.288 81.438C177.45 81.6075 177.444 81.872 177.274 82.0347C177.193 82.1161 177.084 82.1568 176.983 82.1568V82.15Z" fill="white"/>
    <path d="M173.287 194.865C173.192 194.865 173.097 194.818 173.036 194.736C172.941 194.601 172.975 194.411 173.111 194.316C186.245 185.081 194.151 179.229 197.277 176.415C201.135 172.95 200.566 168.366 200.491 167.878C200.064 167.085 193.765 155.456 184.774 148.221C184.645 148.119 184.624 147.929 184.726 147.801C184.828 147.672 185.018 147.651 185.147 147.753C194.422 155.219 200.851 167.288 201.04 167.634C201.047 167.648 201.054 167.661 201.061 167.682C201.061 167.702 201.068 167.715 201.074 167.736C201.122 168.014 201.888 173.079 197.677 176.863C194.531 179.69 186.611 185.555 173.457 194.804C173.402 194.838 173.341 194.858 173.287 194.858V194.865ZM121.367 188.83C121.272 188.83 121.184 188.79 121.123 188.708C121.022 188.573 121.049 188.39 121.184 188.288C121.53 188.03 121.883 187.766 122.242 187.495L121.713 187.44C121.55 187.42 121.428 187.271 121.449 187.108C121.469 186.945 121.618 186.823 121.781 186.844L122.954 186.973C125.551 185.033 128.65 182.769 132.183 180.205C132.318 180.11 132.508 180.138 132.603 180.273C132.698 180.409 132.671 180.599 132.535 180.694C128.162 183.86 124.466 186.579 121.55 188.776C121.496 188.817 121.435 188.837 121.374 188.837L121.367 188.83ZM223.918 187.257C223.857 187.257 223.79 187.237 223.735 187.196C220.806 184.993 217.111 182.274 212.751 179.114C212.615 179.019 212.588 178.829 212.683 178.693C212.778 178.558 212.968 178.531 213.103 178.626C216.636 181.182 219.728 183.453 222.332 185.393L223.505 185.264C223.668 185.264 223.817 185.366 223.837 185.528C223.857 185.691 223.735 185.84 223.573 185.861L223.044 185.915C223.41 186.186 223.763 186.45 224.102 186.708C224.237 186.81 224.264 187 224.163 187.128C224.102 187.21 224.013 187.251 223.918 187.251V187.257ZM145.351 171.411C145.256 171.411 145.161 171.37 145.107 171.282C145.012 171.146 145.039 170.957 145.174 170.862C152.036 165.973 158.851 161.152 164.364 157.253C167.747 154.859 170.643 152.811 172.751 151.313C172.887 151.218 173.077 151.252 173.172 151.388C173.267 151.523 173.24 151.713 173.104 151.808C170.988 153.313 168.1 155.354 164.71 157.748C159.197 161.647 152.382 166.468 145.52 171.357C145.466 171.397 145.405 171.411 145.344 171.411H145.351ZM145.107 168.088C145.059 168.088 145.012 168.075 144.964 168.054C144.815 167.98 144.761 167.797 144.835 167.648C144.903 167.526 151.365 155.3 160.729 147.76C160.858 147.658 161.048 147.678 161.15 147.807C161.251 147.936 161.231 148.126 161.102 148.228C151.84 155.686 145.425 167.804 145.364 167.926C145.31 168.027 145.208 168.088 145.1 168.088H145.107Z" fill="#E4D9E1"/>
    <path fill-rule="evenodd" clip-rule="evenodd" d="M83.2395 42.13L112.647 53.2775C115.556 54.3827 117.034 57.6714 115.936 60.5803L105.006 89.405C103.9 92.3139 100.618 93.7989 97.7027 92.6936L80.0729 86.0079L74.5331 90.4492C73.021 91.6629 71.2513 90.7747 71.014 88.9846C70.8309 87.5742 70.6614 84.8958 70.4647 82.3666L68.2881 81.5394C65.3792 80.4341 63.8942 77.1523 64.9995 74.2366L75.9299 45.4119C77.0352 42.4962 80.317 41.0248 83.2327 42.1233L83.2395 42.13Z" fill="#F1AB20"/>
    <path fill-rule="evenodd" clip-rule="evenodd" d="M77.1845 40.1976L107.453 48.7413C110.451 49.5889 112.213 52.7351 111.366 55.7322L102.992 85.4044C102.144 88.4015 98.9979 90.1645 96.0076 89.3169L77.8625 84.1975L72.7363 89.0999C71.3327 90.4425 69.4884 89.7102 69.1019 87.9472C68.7968 86.5572 68.3967 83.9059 67.9763 81.4038L65.7387 80.7732C62.7416 79.9256 60.9786 76.7862 61.8262 73.7891L70.2004 44.1168C71.0479 41.1198 74.1874 39.3568 77.1845 40.2044V40.1976Z" fill="white"/>
    <path fill-rule="evenodd" clip-rule="evenodd" d="M83.2328 52.6269L87.9928 60.0721L95.438 55.312C95.7838 55.0883 96.2449 55.19 96.4687 55.5426L99.147 59.733C99.3708 60.0788 99.2691 60.5399 98.9233 60.7637L91.4781 65.5237L96.2381 72.9689C96.4619 73.3147 96.3602 73.7758 96.0144 73.9996L91.8307 76.6779C91.4849 76.9017 91.0238 76.8 90.8 76.4542L86.04 69.009L78.5948 73.769C78.249 73.9928 77.7879 73.8911 77.5641 73.5385L74.8858 69.348C74.662 69.0022 74.7637 68.5411 75.1095 68.3174L82.5547 63.5573L77.7947 56.1121C77.5709 55.7663 77.6726 55.3052 78.0184 55.0815L82.2089 52.4031C82.5547 52.1793 83.0158 52.281 83.2396 52.6269H83.2328Z" fill="#FF808F"/>
    <path fill-rule="evenodd" clip-rule="evenodd" d="M267.539 147.733L295.177 158.209C297.916 159.246 299.299 162.331 298.262 165.071L287.989 192.16C286.952 194.892 283.86 196.289 281.127 195.252L264.562 188.973L259.361 193.143C257.937 194.282 256.276 193.448 256.059 191.766C255.889 190.444 255.734 187.922 255.544 185.548L253.496 184.775C250.757 183.738 249.373 180.646 250.411 177.913L260.683 150.825C261.721 148.085 264.806 146.695 267.545 147.733H267.539Z" fill="#AB7813"/>
    <path fill-rule="evenodd" clip-rule="evenodd" d="M261.856 145.916L290.301 153.944C293.122 154.737 294.77 157.694 293.977 160.508L286.111 188.39C285.318 191.204 282.361 192.858 279.547 192.065L262.494 187.251L257.673 191.861C256.351 193.123 254.621 192.438 254.262 190.783C253.977 189.481 253.598 186.986 253.204 184.633L251.096 184.037C248.282 183.243 246.627 180.287 247.42 177.473L255.286 149.591C256.079 146.777 259.036 145.122 261.856 145.916Z" fill="white"/>
    <path fill-rule="evenodd" clip-rule="evenodd" d="M280.097 169.621L280.022 169.919C279.608 171.641 278.876 173.316 277.825 174.937C277.337 175.73 276.686 176.408 275.886 176.964C274.97 177.547 273.96 177.717 272.855 177.479L272.658 177.432C271.756 177.215 271.031 176.835 270.461 176.293C269.898 175.75 269.478 175.072 269.22 174.245C268.807 172.902 268.691 171.539 268.861 170.163C268.936 169.56 269.037 168.97 269.18 168.386C269.573 166.766 270.265 165.254 271.268 163.85C271.919 162.874 272.78 162.08 273.845 161.463C275.031 160.867 276.137 160.69 277.174 160.941C277.771 161.084 278.313 161.362 278.801 161.775C279.283 162.189 279.663 162.731 279.954 163.403C280.429 164.616 280.605 165.864 280.49 167.132C280.436 167.905 280.3 168.732 280.097 169.627V169.621ZM273.14 169.79L273.085 170.014C272.875 170.889 272.76 171.946 272.74 173.194C272.665 177.615 275.201 175.221 276.51 173.004C277.31 171.729 277.886 170.387 278.225 168.97C278.395 168.271 278.51 167.552 278.571 166.82C278.822 164.21 278.117 160.426 275.547 164.271C274.991 165.071 274.523 165.925 274.143 166.834C273.763 167.735 273.431 168.725 273.14 169.797V169.79Z" fill="#FF808F"/>
    <path fill-rule="evenodd" clip-rule="evenodd" d="M261.145 164.942C261.104 164.976 261.07 165.016 261.056 165.044C261.043 165.077 261.029 165.111 261.023 165.139L261.002 165.22C260.69 166.244 260.399 167.274 260.121 168.305C259.87 169.248 259.599 170.177 259.327 171.099C259.165 171.675 258.975 172.258 258.765 172.841C258.602 173.248 258.371 173.513 258.073 173.628C257.775 173.743 257.469 173.764 257.158 173.689C257.002 173.648 256.852 173.601 256.703 173.533C256.378 173.384 256.215 173.133 256.229 172.794C256.351 171.858 256.588 170.678 256.934 169.248C257.388 167.349 257.958 165.301 258.629 163.098C259.307 160.894 259.938 159.083 260.528 157.639C260.67 157.361 260.9 157.232 261.219 157.232C261.436 157.225 261.64 157.246 261.843 157.293C262.08 157.347 262.304 157.442 262.514 157.578C262.765 157.72 262.921 157.931 262.982 158.209C263.091 158.697 263.158 159.178 263.192 159.653C263.219 159.931 263.253 160.202 263.294 160.467C263.369 161.009 263.443 161.552 263.518 162.108C263.823 164.223 264.108 166.345 264.359 168.468C264.359 168.509 264.379 168.556 264.42 168.617L264.474 168.386C265.247 165.254 266.128 162.189 267.132 159.185C267.193 159.036 267.315 158.927 267.485 158.873C267.661 158.819 267.837 158.785 268.007 158.785C268.183 158.771 268.352 158.785 268.529 158.826C268.644 158.853 268.766 158.893 268.881 158.948C269.159 159.07 269.342 159.205 269.424 159.361C269.505 159.517 269.519 159.734 269.451 160.012C269.309 160.602 269.139 161.185 268.956 161.762C268.807 162.27 268.671 162.779 268.542 163.281C268.291 164.237 268.041 165.186 267.776 166.135C267.274 168.034 266.793 169.939 266.318 171.838C266.081 172.753 265.803 173.662 265.491 174.557C265.369 174.889 265.179 175.12 264.935 175.242C264.691 175.364 264.426 175.391 264.142 175.323C263.823 175.249 263.525 175.059 263.233 174.754C262.948 174.455 262.745 174.055 262.63 173.567C262.507 172.909 262.379 172.245 262.243 171.58C261.796 169.431 261.429 167.281 261.131 165.145C261.131 165.111 261.131 165.071 261.131 165.03C261.117 165.003 261.117 164.962 261.117 164.915L261.145 164.942Z" fill="#FF808F"/>
    <path fill-rule="evenodd" clip-rule="evenodd" d="M286.809 164.881C285.297 169.858 284.829 171.268 283.609 176.327C283.236 177.879 280.836 177.283 281.134 175.703C282.077 170.773 282.68 168.495 284.382 163.884C284.985 162.243 287.426 162.853 286.809 164.881Z" fill="#FF808F"/>
    <path fill-rule="evenodd" clip-rule="evenodd" d="M281.832 178.089C282.571 178.266 283.019 179.066 282.822 179.866C282.626 180.666 281.873 181.175 281.127 180.998C280.388 180.822 279.941 180.022 280.137 179.222C280.334 178.415 281.086 177.913 281.826 178.089H281.832Z" fill="#FF808F"/>
    <path fill-rule="evenodd" clip-rule="evenodd" d="M66.4031 250.982C67.2507 250.982 68.0644 251.138 68.8171 251.416C69.1561 251.043 69.6443 250.806 70.1935 250.806C70.4444 250.806 70.6885 250.854 70.9123 250.948C71.0344 249.348 72.3701 248.087 73.9975 248.087C74.7027 248.087 75.3604 248.324 75.8825 248.724C75.9978 248.568 76.1334 248.433 76.2894 248.318C75.991 247.789 75.8215 247.178 75.8215 246.534C75.8215 245.524 76.2284 244.615 76.8929 243.951C77.5506 243.293 78.466 242.879 79.4763 242.879H79.4899C80.0459 242.588 80.6765 242.418 81.3478 242.418C81.7614 242.418 82.1547 242.479 82.5276 242.595C82.6971 242.229 82.9819 241.937 83.3413 241.754C83.2464 241.3 83.1921 240.832 83.1921 240.343C83.1921 238.513 83.938 236.858 85.1382 235.658C86.3384 234.458 87.9928 233.719 89.8236 233.719C90.4068 233.719 90.9696 233.793 91.512 233.936C95.4313 233.99 98.591 237.184 98.591 241.116C98.591 241.171 98.591 241.225 98.591 241.286C98.9369 241.198 99.303 241.15 99.676 241.15C100.422 241.15 101.12 241.333 101.731 241.659C102.775 240.228 104.47 239.299 106.375 239.299C109.555 239.299 112.132 241.876 112.132 245.056C112.132 245.68 112.03 246.283 111.847 246.846C111.902 246.846 111.963 246.846 112.024 246.846C113.59 246.846 114.858 248.114 114.858 249.68C114.858 249.864 114.838 250.047 114.804 250.216C114.824 250.216 114.844 250.216 114.865 250.216C115.753 250.216 116.472 250.921 116.499 251.796C116.743 251.749 117.001 251.728 117.258 251.728C118.282 251.728 119.238 252.081 119.923 252.732C121.761 254.474 119.754 254.929 117.814 254.929H64.2808C62.2601 254.929 59.3784 255.261 61.3787 253.145C62.6399 251.816 64.43 250.982 66.4031 250.982ZM83.8634 241.578C83.9651 241.564 84.0668 241.55 84.1685 241.55H84.2228C84.216 241.408 84.2092 241.266 84.2092 241.116C84.2092 237.957 86.2502 235.272 89.0845 234.309C87.7013 234.478 86.4604 235.109 85.5179 236.045C84.4194 237.143 83.7346 238.662 83.7346 240.343C83.7346 240.764 83.7753 241.178 83.8566 241.571L83.8634 241.578ZM76.7776 248.067C76.9607 248.006 77.1641 247.972 77.3675 247.972C77.4692 247.972 77.5709 247.979 77.6659 247.999C77.4624 247.517 77.3472 246.982 77.3472 246.426C77.3472 245.314 77.8015 244.303 78.5338 243.585C78.0524 243.734 77.6252 244.005 77.2794 244.351C76.7166 244.914 76.3707 245.687 76.3707 246.548C76.3707 247.104 76.5199 247.626 76.7776 248.08V248.067Z" fill="white"/>
    <path d="M67.0269 149.977C66.8642 149.977 66.7286 149.842 66.7286 149.679V149.021H66.0776C65.9081 149.021 65.7793 148.885 65.7793 148.723C65.7793 148.56 65.9149 148.424 66.0776 148.424H66.7286V147.773C66.7286 147.611 66.8642 147.475 67.0269 147.475C67.1897 147.475 67.3321 147.611 67.3321 147.773V148.424H67.983C68.1525 148.424 68.2881 148.56 68.2881 148.723C68.2881 148.885 68.1525 149.021 67.983 149.021H67.3321V149.679C67.3321 149.842 67.1965 149.977 67.0269 149.977Z" fill="white"/>
    <path d="M279.425 120.359C279.262 120.359 279.127 120.223 279.127 120.061V119.41H278.476C278.306 119.41 278.177 119.274 278.177 119.111C278.177 118.949 278.313 118.813 278.476 118.813H279.127V118.162C279.127 117.999 279.262 117.864 279.425 117.864C279.588 117.864 279.73 117.999 279.73 118.162V118.813H280.381C280.551 118.813 280.68 118.949 280.68 119.111C280.68 119.274 280.544 119.41 280.381 119.41H279.73V120.061C279.73 120.23 279.595 120.359 279.425 120.359Z" fill="white"/>
    <path d="M231.024 47.7516C230.855 47.7516 230.726 47.616 230.726 47.4533V46.8023H230.075C229.906 46.8023 229.77 46.6667 229.77 46.504C229.77 46.3413 229.906 46.2056 230.075 46.2056H230.726V45.5547C230.726 45.392 230.862 45.2563 231.024 45.2563C231.187 45.2563 231.323 45.392 231.323 45.5547V46.2056H231.974C232.143 46.2056 232.279 46.3413 232.279 46.504C232.279 46.6667 232.143 46.8023 231.974 46.8023H231.323V47.4533C231.323 47.616 231.187 47.7516 231.024 47.7516Z" fill="white"/>
    <path d="M110.335 32.4679C110.166 32.4679 110.03 32.3323 110.03 32.1696V31.5187H109.379C109.216 31.5187 109.081 31.383 109.081 31.2203C109.081 31.0576 109.216 30.922 109.379 30.922H110.03V30.271C110.03 30.1015 110.166 29.9727 110.335 29.9727C110.505 29.9727 110.634 30.1083 110.634 30.271V30.922H111.285C111.447 30.922 111.583 31.0576 111.583 31.2203C111.583 31.383 111.447 31.5187 111.285 31.5187H110.634V32.1696C110.634 32.3391 110.498 32.4679 110.335 32.4679Z" fill="white"/>
    <path d="M58.1104 96.1588C57.9477 96.1588 57.8121 96.0232 57.8121 95.8605V95.2027H57.1611C56.9984 95.2027 56.8628 95.0671 56.8628 94.9044C56.8628 94.7416 56.9984 94.606 57.1611 94.606H57.8121V93.9551C57.8121 93.7923 57.9477 93.6567 58.1104 93.6567C58.2732 93.6567 58.4088 93.7923 58.4088 93.9551V94.606H59.0665C59.2293 94.606 59.3649 94.7416 59.3649 94.9044C59.3649 95.0671 59.2293 95.2027 59.0665 95.2027H58.4088V95.8605C58.4088 96.0232 58.2732 96.1588 58.1104 96.1588Z" fill="white"/>
    <path d="M51.4178 208.569C51.2483 208.569 51.1195 208.433 51.1195 208.271V207.613H50.4685C50.299 207.613 50.1702 207.477 50.1702 207.315C50.1702 207.152 50.3058 207.016 50.4685 207.016H51.1195V206.365C51.1195 206.203 51.2551 206.067 51.4178 206.067C51.5806 206.067 51.7162 206.203 51.7162 206.365V207.016H52.3671C52.5366 207.016 52.6655 207.152 52.6655 207.315C52.6655 207.477 52.5298 207.613 52.3671 207.613H51.7162V208.271C51.7162 208.433 51.5806 208.569 51.4178 208.569Z" fill="white"/>
    <path d="M86.1349 182.457C85.9653 182.457 85.8365 182.321 85.8365 182.158V181.507H85.1856C85.016 181.507 84.8872 181.372 84.8872 181.209C84.8872 181.046 85.0228 180.911 85.1856 180.911H85.8365V180.26C85.8365 180.09 85.9721 179.961 86.1349 179.961C86.2976 179.961 86.4332 180.097 86.4332 180.26V180.911H87.0841C87.2537 180.911 87.3825 181.046 87.3825 181.209C87.3825 181.372 87.2469 181.507 87.0841 181.507H86.4332V182.158C86.4332 182.328 86.2976 182.457 86.1349 182.457Z" fill="white"/>
    <path d="M117.658 236.275C117.496 236.275 117.36 236.139 117.36 235.977V235.326H116.709C116.539 235.326 116.411 235.19 116.411 235.027C116.411 234.865 116.546 234.729 116.709 234.729H117.36V234.078C117.36 233.909 117.496 233.78 117.658 233.78C117.821 233.78 117.957 233.915 117.957 234.078V234.729H118.614C118.784 234.729 118.913 234.865 118.913 235.027C118.913 235.19 118.777 235.326 118.614 235.326H117.957V235.977C117.957 236.146 117.821 236.275 117.658 236.275Z" fill="white"/>
    <path d="M245.99 235C245.82 235 245.691 234.865 245.691 234.702V234.044H245.04C244.871 234.044 244.742 233.908 244.742 233.746C244.742 233.583 244.878 233.447 245.04 233.447H245.691V232.796C245.691 232.634 245.827 232.498 245.99 232.498C246.152 232.498 246.295 232.634 246.295 232.796V233.447H246.946C247.115 233.447 247.251 233.583 247.251 233.746C247.251 233.908 247.115 234.044 246.946 234.044H246.295V234.702C246.295 234.865 246.159 235 245.99 235Z" fill="white"/>
    <path d="M280.7 213.031C280.537 213.031 280.402 212.895 280.402 212.733V212.082H279.744C279.574 212.082 279.446 211.946 279.446 211.783C279.446 211.621 279.581 211.485 279.744 211.485H280.402V210.834C280.402 210.664 280.537 210.536 280.7 210.536C280.863 210.536 281.005 210.671 281.005 210.834V211.485H281.656C281.826 211.485 281.961 211.621 281.961 211.783C281.961 211.946 281.826 212.082 281.656 212.082H281.005V212.733C281.005 212.895 280.87 213.031 280.7 213.031Z" fill="white"/>
    <path d="M241.853 141.379C241.684 141.379 241.555 141.243 241.555 141.081V140.43H240.904C240.735 140.43 240.606 140.294 240.606 140.131C240.606 139.969 240.741 139.833 240.904 139.833H241.555V139.182C241.555 139.013 241.691 138.884 241.853 138.884C242.016 138.884 242.152 139.019 242.152 139.182V139.833H242.803C242.972 139.833 243.108 139.969 243.108 140.131C243.108 140.294 242.972 140.43 242.803 140.43H242.152V141.081C242.152 141.25 242.016 141.379 241.853 141.379Z" fill="white"/>
    <path d="M134.217 113.036C134.047 113.036 133.912 112.901 133.912 112.738V112.08H133.261C133.098 112.08 132.962 111.945 132.962 111.782C132.962 111.619 133.098 111.483 133.261 111.483H133.912V110.833C133.912 110.67 134.047 110.534 134.217 110.534C134.386 110.534 134.515 110.67 134.515 110.833V111.483H135.166C135.329 111.483 135.464 111.619 135.464 111.782C135.464 111.945 135.329 112.08 135.166 112.08H134.515V112.738C134.515 112.901 134.38 113.036 134.217 113.036Z" fill="white"/>
    <path d="M213.829 106.669C213.666 106.669 213.53 106.534 213.53 106.371V105.72H212.873C212.703 105.72 212.574 105.584 212.574 105.421C212.574 105.259 212.71 105.123 212.873 105.123H213.53V104.472C213.53 104.309 213.666 104.174 213.829 104.174C213.991 104.174 214.127 104.309 214.127 104.472V105.123H214.778C214.947 105.123 215.076 105.259 215.076 105.421C215.076 105.584 214.941 105.72 214.778 105.72H214.127V106.371C214.127 106.54 213.991 106.669 213.829 106.669Z" fill="white"/>
    <path d="M273.377 81.194C273.207 81.194 273.078 81.0584 273.078 80.8957V80.2447H272.421C272.258 80.2447 272.122 80.1091 272.122 79.9464C272.122 79.7836 272.258 79.648 272.421 79.648H273.078V78.9971C273.078 78.8276 273.214 78.6987 273.377 78.6987C273.539 78.6987 273.675 78.8343 273.675 78.9971V79.648H274.326C274.496 79.648 274.631 79.7836 274.631 79.9464C274.631 80.1091 274.496 80.2447 274.326 80.2447H273.675V80.8957C273.675 81.0584 273.539 81.194 273.377 81.194Z" fill="white"/>
    <path d="M193.71 144.085C193.622 144.085 193.534 144.044 193.48 143.976C193.378 143.847 193.392 143.657 193.521 143.556C194.117 143.067 195.128 142.254 196.348 141.264C200.267 138.097 206.194 133.31 208.214 131.5C209.604 130.252 212.235 128.991 215.015 127.655C217.714 126.36 220.494 125.024 222.535 123.546C226.631 120.576 232.916 114.209 234.327 112.676C234.442 112.554 234.632 112.548 234.754 112.656C234.876 112.771 234.883 112.961 234.774 113.083C233.357 114.629 227.031 121.037 222.895 124.034C220.813 125.546 217.999 126.895 215.28 128.197C212.54 129.513 209.95 130.76 208.621 131.947C206.587 133.771 200.654 138.558 196.728 141.732C195.507 142.715 194.504 143.529 193.9 144.024C193.846 144.071 193.778 144.091 193.71 144.091V144.085ZM150.165 143.339C150.097 143.339 150.029 143.318 149.975 143.271C149.378 142.783 148.375 141.969 147.161 140.993C143.235 137.819 137.295 133.025 135.261 131.201C133.932 130.015 131.342 128.767 128.602 127.452C125.883 126.143 123.069 124.793 120.994 123.288C116.851 120.284 110.532 113.883 109.115 112.337C108.999 112.215 109.013 112.025 109.135 111.91C109.257 111.795 109.447 111.808 109.562 111.931C110.973 113.463 117.245 119.823 121.354 122.8C123.388 124.278 126.175 125.614 128.874 126.909C131.654 128.245 134.278 129.506 135.675 130.754C137.702 132.564 143.628 137.358 147.554 140.525C148.775 141.508 149.778 142.322 150.375 142.81C150.504 142.918 150.524 143.101 150.416 143.23C150.355 143.305 150.267 143.339 150.185 143.339H150.165ZM158.553 113.483C158.485 113.483 158.41 113.456 158.356 113.409C157.895 113.015 157.4 112.602 156.878 112.175C155.088 110.703 153.054 109.035 151.833 107.286C150.619 105.543 148.694 102.295 147.432 97.786C146.144 98.1725 144.896 97.9894 143.717 97.2436C140.252 95.0466 138.38 88.6185 138.183 86.3131C137.899 82.9228 140.36 78.3187 142.571 78.1017C143.296 78.0339 144.184 78.3526 145.222 79.051C145.357 79.1459 145.391 79.329 145.303 79.4714C145.208 79.607 145.025 79.6409 144.883 79.5528C143.981 78.9425 143.201 78.6442 142.632 78.7052C140.916 78.8747 138.509 83.0313 138.787 86.2656C138.97 88.4151 140.801 94.6872 144.042 96.7418C145.073 97.3927 146.158 97.5555 147.276 97.2097C146.958 95.9824 146.693 94.6601 146.503 93.2633L145.974 89.4051C145.954 89.2424 146.069 89.0864 146.232 89.0661C146.395 89.0457 146.551 89.161 146.571 89.3237L147.1 93.1819C148.049 100.2 151.074 105.15 152.328 106.954C153.501 108.635 155.495 110.269 157.258 111.72C157.78 112.148 158.288 112.568 158.743 112.961C158.871 113.07 158.885 113.26 158.776 113.388C158.715 113.456 158.634 113.49 158.546 113.49L158.553 113.483Z" fill="white"/>
    </g>
    <defs>
    <linearGradient id="paint0_linear_1666_14901" x1="120.398" y1="84.7742" x2="221.566" y2="239.679" gradientUnits="userSpaceOnUse">
    <stop stop-color="#FDE3B1"/>
    <stop offset="0.921875" stop-color="#FEB423"/>
    </linearGradient>
    <clipPath id="clip0_1666_14901">
    <rect width="337" height="288" fill="white"/>
    </clipPath>
    </defs>
</svg>    